<svg width="73" height="46" viewBox="0 0 73 46" fill="none" xmlns="http://www.w3.org/2000/svg">
<path d="M71.5649 35.5076C71.586 35.2258 71.2901 35.106 70.1979 34.9651C69.6342 34.8946 69.0283 34.8101 68.838 34.7889C68.6478 34.7607 68.4928 34.6762 68.4857 34.5987C68.4787 34.5212 68.4011 34.4437 68.3236 34.4366C68.2179 34.4225 68.2109 34.4648 68.2884 34.5775C68.38 34.7114 68.3589 34.7326 68.1686 34.7255C68.0418 34.7255 67.2033 34.7326 66.3014 34.7607C63.4688 34.8453 62.581 34.8382 62.2287 34.7114C61.827 34.5705 61.6861 34.5846 61.8834 34.7326C61.9961 34.8242 61.8623 34.8523 61.1224 34.9087C59.847 35.0074 59.3327 34.951 59.1424 34.6973C58.9874 34.493 58.9592 34.493 58.1841 34.7326C57.5852 34.9228 57.3597 34.951 57.2752 34.8735C57.2118 34.8101 57.0849 34.7748 56.9933 34.7889C56.8595 34.8101 56.8524 34.8382 56.9722 34.9298C57.092 35.0214 57.0779 35.0567 56.8806 35.099C56.7467 35.1271 56.5987 35.113 56.5565 35.0637C56.5071 35.0144 56.338 35.0074 56.1689 35.0426C55.6968 35.1483 56.0069 34.9087 56.7256 34.6269C57.0708 34.493 57.4584 34.3591 57.5923 34.338C57.7261 34.3168 57.9375 34.2393 58.0644 34.1618C58.2476 34.0632 58.311 34.0632 58.3462 34.1829C58.4026 34.3873 58.5505 34.338 58.7901 34.0491C58.9451 33.8588 59.1142 33.7884 59.6357 33.7108C60.0866 33.6404 60.291 33.6545 60.3191 33.7461C60.3755 33.9504 60.608 33.9857 60.6433 33.8025C60.6855 33.6052 61.3127 33.4924 62.1089 33.5417C62.3907 33.5558 62.9262 33.5558 63.3067 33.5417C63.6872 33.5206 64.0818 33.5558 64.1875 33.6193C64.3637 33.7179 64.864 33.7461 65.7236 33.7038C66.0054 33.6897 66.2521 33.7954 66.7735 34.1407C67.457 34.5987 67.6613 34.6409 67.1399 34.2182C66.9849 34.0984 66.8792 33.9716 66.8933 33.9434C66.9074 33.9152 67.3372 33.9434 67.8375 33.9997C68.3448 34.0632 68.8451 34.0913 68.9508 34.0632C69.0564 34.042 69.2819 34.0632 69.4581 34.1054C69.7822 34.197 70.3882 34.1266 70.1204 34.0209C70.0429 33.9927 70.2261 33.9363 70.5291 33.8941C71.0223 33.8306 71.0646 33.8025 70.9237 33.6968C70.8321 33.6263 70.5432 33.5629 70.2825 33.5488C70.0218 33.5347 69.7047 33.5065 69.592 33.4783C69.3524 33.422 68.528 33.4149 68.0841 33.4572C67.5274 33.5136 66.5832 33.4572 66.7101 33.3656C67.0765 33.119 67.3019 33.0767 67.7458 33.1683C68.0136 33.2247 68.232 33.2317 68.232 33.1753C68.232 33.126 68.373 33.0626 68.5421 33.0415C68.7112 33.0203 68.7605 32.9921 68.6478 32.9851C68.535 32.978 68.1898 32.9146 67.8797 32.8442C67.5697 32.7737 67.1399 32.7314 66.9285 32.7385C66.3084 32.7737 66.4353 32.6398 67.1187 32.5271C67.464 32.4707 67.7318 32.3932 67.7177 32.3439C67.7036 32.2946 67.5274 32.2805 67.3301 32.3227C67.1258 32.358 66.4 32.3439 65.7165 32.2946C65.026 32.2452 64.3848 32.2171 64.2862 32.2382C64.1875 32.2593 64.0889 32.2171 64.0677 32.1395C64.0114 31.9352 63.7577 31.9211 62.8487 32.0832C61.5522 32.3087 60.601 32.2734 60.6715 32.0057C60.7208 31.8295 63.8704 31.6463 64.6807 31.7731C65.1951 31.8506 65.5404 31.8436 65.9702 31.7309C66.3084 31.6463 66.9214 31.597 67.4147 31.6111C67.8868 31.6252 68.528 31.6393 68.8451 31.6322C69.1621 31.6322 69.6906 31.7027 70.0288 31.8013C70.367 31.9 70.6841 31.9493 70.7405 31.9141C70.7969 31.8788 70.7194 31.8154 70.5643 31.7731C70.1204 31.6463 69.3101 31.2447 69.3524 31.1672C69.3735 31.1319 69.5779 31.1249 69.8104 31.1531C70.3952 31.2306 70.508 31.1813 70.0781 31.0333C69.8809 30.9628 69.7047 30.8642 69.6906 30.8078C69.6201 30.5541 67.8868 30.3287 66.7312 30.4203C65.8927 30.4907 65.2304 30.5048 63.7084 30.5048C63.4688 30.5048 62.6585 30.5401 61.9045 30.5823C61.7002 30.5964 61.4959 30.5612 61.4465 30.5189C61.3902 30.4625 61.5029 30.4203 61.7918 30.4062C62.0314 30.3921 62.5669 30.3287 62.9897 30.2582C63.955 30.1032 64.1875 30.075 64.9767 30.0398C65.329 30.0257 66.0689 29.9341 66.6185 29.8425C67.1681 29.7509 67.8727 29.6452 68.1757 29.6029C68.4787 29.5677 68.7253 29.5113 68.7182 29.4831C68.7112 29.4549 68.528 29.3986 68.3166 29.3563C67.915 29.2788 67.5274 29.3211 67.6331 29.4268C67.6683 29.462 67.2878 29.5677 66.7805 29.6593C65.7729 29.8495 65.4488 29.772 65.4065 29.3492C65.3854 29.159 65.3431 29.1238 65.1528 29.166C65.026 29.1942 64.7019 29.166 64.4341 29.1097C64.0677 29.0251 63.9691 28.9688 64.0466 28.8842C64.103 28.8208 64.2227 28.7503 64.3003 28.7292C64.3778 28.708 64.5116 28.5601 64.5962 28.398C64.6807 28.2359 64.8005 28.088 64.878 28.0668C64.9485 28.0527 64.9697 27.9964 64.9203 27.9541C64.8005 27.8343 64.878 27.8273 65.322 27.9189C65.8786 28.0246 66.0759 27.947 65.6672 27.785L65.329 27.6511L65.8011 27.5454C66.0618 27.489 66.4423 27.482 66.6466 27.5384C66.9567 27.6229 67.0553 27.7075 67.1963 28.0246L67.3654 28.4121L67.2738 28.0386C67.2174 27.8132 67.2244 27.6511 67.2949 27.637C67.4851 27.5947 68.077 27.8343 68.5844 28.1655C68.8451 28.3346 69.2115 28.5248 69.3947 28.5883L69.7258 28.701L69.3242 28.4473C68.8873 28.1725 68.8451 27.9682 69.2256 27.9611C69.4651 27.9611 69.5145 27.8343 69.3031 27.7568C69.148 27.7004 69.1128 27.5313 69.2537 27.5031C69.5285 27.4468 70.5362 27.7638 71.0787 28.088C71.4874 28.3346 71.7129 28.4051 71.8327 28.3416C71.9524 28.2712 72.0652 28.3134 72.2061 28.4755C72.3188 28.6023 72.4175 28.6799 72.4316 28.6517C72.4809 28.553 72.0088 28.095 71.6142 27.8625C71.0576 27.5384 70.5855 27.3552 70.2543 27.3481C69.9443 27.3411 69.8315 27.172 70.0852 27.1015C70.3318 27.0381 69.6413 26.9465 68.3941 26.876C65.9209 26.7421 65.5968 26.714 65.5756 26.6294C65.5545 26.5449 65.6884 26.4673 65.8645 26.4673C65.9138 26.4673 66.0266 26.3757 66.1252 26.263C66.2239 26.1503 66.4141 26.0375 66.555 26.0023C66.7946 25.9459 66.7946 25.9389 66.5973 25.8473C66.3014 25.7134 66.4634 25.5936 66.9285 25.6007C67.1469 25.6007 67.4429 25.5795 67.5838 25.5513C67.9925 25.4597 68.993 25.7557 69.7258 26.1714L70.4023 26.5589L69.9161 26.1784C69.6483 25.9671 69.2537 25.7275 69.0353 25.6359C68.8169 25.5443 68.6266 25.4245 68.6125 25.3611C68.5703 25.2202 68.2391 25.199 67.774 25.2977C67.5838 25.3399 67.3583 25.3259 67.2667 25.2695C67.1751 25.2131 67.0201 25.1567 66.9214 25.1356C66.4775 25.0651 66.8721 24.6847 67.3724 24.6987C67.5767 24.7058 67.6049 24.6776 67.5204 24.5578C67.464 24.4733 67.464 24.4028 67.5204 24.3887C67.8586 24.3112 67.2456 23.5079 66.5973 23.1838C66.4493 23.1063 66.3366 23.0288 66.3507 23.0077C66.4 22.9161 67.7106 22.9724 68.2743 23.0922C68.6125 23.1627 68.8803 23.2049 68.8732 23.1768C68.8521 23.1063 67.5767 22.8245 66.6889 22.6906C66.2309 22.6272 65.8293 22.5215 65.7941 22.4721C65.6743 22.2889 66.3084 22.1128 67.3019 22.0564C67.8445 22.0212 68.3448 21.9789 68.4223 21.9648C68.6689 21.9014 68.0277 21.7464 67.7599 21.8027C67.619 21.8309 67.4358 21.845 67.3442 21.8309C67.1681 21.8027 67.0412 21.542 67.1892 21.5068C67.3301 21.4786 68.3025 21.535 68.8098 21.6055C69.444 21.6971 69.8174 21.6055 69.754 21.3588C69.7117 21.2179 69.6061 21.1756 69.296 21.1968C69.0142 21.2109 68.8592 21.1615 68.7887 21.0418C68.7041 20.9008 68.6337 20.8867 68.3941 20.9854C68.1263 21.0981 67.6613 21.1052 67.0976 20.9995C66.9849 20.9783 66.5903 20.9149 66.2309 20.8586C65.5474 20.7529 65.3079 20.5838 65.8363 20.5767C66.0829 20.5767 66.1252 20.5485 66.0477 20.4358C65.9209 20.2596 66.5691 19.7171 67.0835 19.555C67.2878 19.4916 67.7529 19.3225 68.1264 19.1745C68.7394 18.9279 70.36 18.6038 70.7969 18.632C70.8955 18.632 70.966 18.6038 70.9519 18.5544C70.9166 18.4276 70.2261 18.491 68.6266 18.7729C67.5204 18.9702 67.2808 18.9843 67.3794 18.8574C67.4922 18.7165 67.4781 18.7024 67.2667 18.6883C67.1399 18.6883 66.8651 18.7165 66.6537 18.7588C66.2943 18.8363 66.0125 18.7588 65.9561 18.5685C65.942 18.5192 66.4423 18.3783 67.0624 18.2515C67.6824 18.1246 68.2179 17.9837 68.2391 17.9414C68.2602 17.8991 68.1686 17.8851 68.0277 17.9203C67.8868 17.9555 67.6331 17.9414 67.471 17.8921C66.9496 17.7512 65.3361 17.8921 63.8845 18.2162C63.1165 18.3853 62.2075 18.5263 61.8482 18.5263C61.4888 18.5263 61.2845 18.5051 61.3972 18.4769C61.6086 18.4206 61.9821 17.9555 61.9398 17.8075C61.9045 17.6948 60.6855 18.0964 60.6785 18.2162C60.6715 18.3431 60.4107 18.3924 60.3755 18.2656C60.3614 18.2092 60.2346 18.1951 60.0937 18.2374L59.84 18.3078L60.1007 18.336C60.3473 18.3642 60.3403 18.3642 60.0584 18.4417C59.8893 18.484 59.7414 18.4699 59.7273 18.4135C59.7132 18.3501 59.6216 18.3501 59.53 18.4135C59.4384 18.4699 59.3468 18.4769 59.3327 18.4276C59.3186 18.3783 59.2058 18.3783 59.0861 18.4347C58.9663 18.491 58.7408 18.5263 58.5858 18.5263L58.3039 18.5122L58.5787 18.2515C58.7267 18.1105 58.9874 17.9555 59.1565 17.9203C59.3679 17.871 59.4454 17.8005 59.4172 17.6948C59.382 17.575 59.4595 17.5257 59.7836 17.4834C60.1007 17.4341 60.2275 17.4693 60.3473 17.6243C60.6433 18.0119 60.8547 17.7794 60.6996 17.2227C60.601 16.8493 60.7208 16.504 60.9744 16.4476C61.0731 16.4265 61.2774 16.2715 61.4324 16.0953C61.7002 15.8064 61.7707 15.7782 62.6303 15.6585C63.1306 15.588 63.8211 15.5034 64.1664 15.4682C64.6173 15.4189 64.7583 15.3766 64.6878 15.3061C64.561 15.1793 64.7864 15.13 65.1669 15.1934C65.329 15.2216 65.5263 15.2357 65.6108 15.2286C65.6884 15.2286 66.0336 15.2357 66.3718 15.2639C66.7101 15.292 67.0694 15.3202 67.161 15.3273C67.2738 15.3343 67.3231 15.285 67.2949 15.1934C67.2667 15.0877 67.0553 15.0525 66.5832 15.0736C65.7165 15.1159 65.3642 14.982 66.1111 14.9045C66.4071 14.8763 67.1399 14.7636 67.7388 14.6508C68.3377 14.5452 69.0635 14.4606 69.3524 14.4606C69.7893 14.4606 69.9161 14.4254 70.1627 14.214C70.3459 14.059 70.6348 13.9321 70.9519 13.8758C71.3676 13.8053 71.4803 13.7419 71.6072 13.5094C71.8327 13.0936 71.6072 12.9386 70.9096 13.0161C70.5925 13.0514 69.902 13.0514 69.3665 13.0161C68.831 12.9809 68.1968 12.9527 67.9502 12.9527C67.5697 12.9527 65.1247 13.1782 64.8992 13.2205C64.8569 13.2275 64.8358 13.1782 64.8569 13.1148C64.878 13.0302 64.7864 13.0302 64.5398 13.1359C64.3496 13.2134 63.497 13.3614 62.6444 13.46C61.7918 13.5587 60.8828 13.6714 60.6151 13.7067C59.9175 13.7912 59.6709 13.7842 59.7061 13.6573C59.7202 13.5939 59.8259 13.5234 59.9457 13.5023C60.2275 13.4389 60.3262 13.2205 60.2346 12.8893C60.1289 12.5158 60.305 12.4877 61.5804 12.699C62.1371 12.7906 62.1441 12.7906 61.8693 12.6497C61.7072 12.5722 61.5452 12.5088 61.5029 12.5158L61.3972 12.4172C61.3761 12.3397 61.7072 12.2481 62.5317 12.1142C63.1729 12.0085 64.1382 11.8394 64.6667 11.7408C65.6531 11.5576 66.0548 11.5646 65.7518 11.7689C65.6531 11.8324 65.8434 11.8465 66.2309 11.7971C66.5832 11.7549 67.0553 11.7619 67.2808 11.8112C67.5063 11.8605 67.774 11.8887 67.8797 11.8746C67.9854 11.8605 68.1616 11.8324 68.2743 11.8183C68.3871 11.8042 68.6971 11.8746 68.9719 11.9874C69.2537 12.1001 69.4933 12.1424 69.5285 12.086C69.6131 11.9381 69.0776 11.022 68.9226 11.0502C68.6619 11.1066 68.7253 10.7613 69.0212 10.5359C69.1903 10.409 69.4369 10.1624 69.5638 9.98625C69.8104 9.66212 70.0711 9.60575 70.1486 9.86646C70.1698 9.94397 70.2402 10.0285 70.3036 10.0497C70.5362 10.1342 70.3389 9.87351 69.9584 9.59871C69.444 9.22526 69.1974 9.16889 67.9925 9.14775C66.5903 9.11957 65.2726 8.9716 64.5187 8.75316C63.8704 8.56292 63.645 8.39381 64.0536 8.39381C65.1599 8.40085 66.1252 8.45018 66.2943 8.49245C66.4212 8.52768 66.5198 8.50655 66.555 8.43608C66.6537 8.25288 66.2732 7.85829 65.9702 7.81602L65.7024 7.78079L65.9209 7.61872C66.0407 7.52712 66.1534 7.40734 66.1675 7.35097C66.2239 7.13958 65.9913 6.94933 65.7447 7.0057C65.2092 7.11844 63.6097 6.90706 63.2081 6.66044C62.9897 6.52656 62.6585 6.42791 62.4471 6.43496C62.2428 6.44201 62.0384 6.40677 61.9891 6.35745C61.9327 6.30108 62.0243 6.26585 62.2569 6.2588C62.6796 6.24471 62.6867 6.10379 62.2639 5.93468C62.1018 5.87126 61.9821 5.8008 61.9961 5.77262C62.0384 5.70215 63.8211 5.84308 63.9902 5.93468C64.0677 5.97696 64.2439 5.96286 64.3707 5.89945C64.568 5.80785 66.1252 5.89945 66.8721 6.04742C66.9849 6.06856 67.0483 6.04037 67.0271 5.96991C67.006 5.90649 66.9144 5.85012 66.8158 5.83603C66.7171 5.82194 66.4423 5.77262 66.2098 5.72329C65.9772 5.67397 65.5686 5.63874 65.3079 5.64578C64.7583 5.65988 64.6526 5.54714 64.9626 5.27938C65.0965 5.16664 65.174 4.96935 65.1669 4.76501C65.1528 4.37747 65.3501 4.28586 66.09 4.31405C66.3577 4.32814 66.5832 4.29291 66.5973 4.24359C66.6114 4.19426 66.4987 4.01106 66.3577 3.83491C66.1745 3.60943 66.0054 3.51078 65.787 3.50374C65.6179 3.50374 65.4136 3.41213 65.336 3.31349C65.2304 3.17961 65.0965 3.15142 64.8217 3.20075C64.265 3.2994 63.4054 3.20779 62.8628 2.98936C61.8834 2.59477 58.3039 2.41157 57.0849 2.70047C56.9088 2.74274 56.6763 2.65819 56.331 2.43976C55.8518 2.12972 55.8096 2.12268 55.4009 2.27065C55.1684 2.3552 54.6681 2.45385 54.2946 2.48203C53.9212 2.51022 52.8149 2.67228 51.8496 2.83434C50.8772 2.99641 49.3623 3.20075 48.4815 3.2853C47.6007 3.36986 46.2972 3.54601 45.5926 3.67284C43.2039 4.09562 42.5415 4.18017 42.5063 4.07448C42.4711 3.94765 46.0788 3.2853 48.1997 3.02459C48.7563 2.95413 49.8837 2.79911 50.7011 2.67933C51.5184 2.55954 52.3146 2.4468 52.4767 2.42566C52.6388 2.41157 53.7591 2.17905 54.9781 1.91834C56.1971 1.65763 57.7966 1.36873 58.5435 1.28418C59.2904 1.19962 60.3191 1.03051 60.8335 0.917775C62.3625 0.57251 62.4753 0.530233 62.4189 0.347032C62.3485 0.114507 61.4395 -0.0757412 60.9322 0.029952C58.5717 0.551372 56.7115 0.854359 56.7115 0.720481C56.7115 0.657065 57.1413 0.523187 57.8177 0.389309C59.1283 0.121553 58.8183 0.065183 57.1131 0.262477C56.5071 0.332939 55.9364 0.36817 55.8377 0.347032C55.7391 0.318847 54.9358 0.438632 54.0551 0.600695C52.2794 0.938913 50.0176 1.28418 48.7352 1.41101C48.2772 1.46033 46.9877 1.67172 45.8744 1.89015C44.7329 2.10858 43.7817 2.24951 43.6971 2.20723C43.6126 2.16495 43.5492 2.05926 43.5562 1.97471C43.5633 1.84787 43.5139 1.84083 43.2814 1.96061C43.1264 2.03812 42.8727 2.13677 42.7177 2.17905C42.5627 2.22132 42.4077 2.29179 42.3654 2.33406C42.1681 2.5525 41.4494 2.75684 37.7854 3.61647L33.8395 4.53953L33.8254 4.56067C33.6986 4.52544 33.5788 4.4902 33.4449 4.46202C32.6064 4.72978 32.0286 4.86365 32.0568 4.7791C32.0709 4.71568 32.0075 4.6875 31.9159 4.70864C31.8243 4.72978 31.3944 4.79319 30.9646 4.85661C30.4291 4.93412 30.1754 5.00458 30.1543 5.09618C30.1332 5.16664 30.0416 5.24415 29.95 5.26529C29.8513 5.28643 29.7738 5.36394 29.7738 5.44144C29.7738 5.54009 29.7315 5.55418 29.6047 5.49077C29.4285 5.39917 27.9488 5.6176 27.9841 5.72329C28.0264 5.85717 27.5683 5.984 27.4838 5.86422C27.4274 5.78671 27.2583 5.77262 27.0469 5.82899C26.7298 5.91354 26.7158 5.92059 26.9553 5.95582C27.1174 5.97696 26.7721 6.06856 26.0323 6.20948C25.384 6.32927 24.8133 6.39268 24.771 6.34336L24.5948 6.35745C24.5455 6.41382 24.1087 6.49838 23.6225 6.55475C22.9531 6.63225 22.7276 6.68862 22.6994 6.79432C22.6712 6.89296 22.4458 6.96343 21.8327 7.04798C21.2479 7.12549 20.9731 7.203 20.9026 7.30869C20.8251 7.42143 20.7124 7.43552 20.3953 7.37211C20.1698 7.32983 19.7048 7.33687 19.3666 7.39324C19.0213 7.44961 18.6126 7.4778 18.4505 7.44961C18.2885 7.42143 18.0207 7.43552 17.8516 7.47075C17.6825 7.50598 17.2668 7.50598 16.9356 7.47075C16.5974 7.42848 16.231 7.42143 16.1183 7.44257C16.0055 7.46371 15.8716 7.44257 15.8223 7.40029C15.773 7.35097 15.8223 7.2946 15.9351 7.26641C16.0478 7.23823 16.0971 7.1889 16.0548 7.14663C16.0126 7.10435 15.8082 7.11844 15.6039 7.17481C15.3995 7.23118 15.2234 7.25232 15.2163 7.21709C15.2093 7.18186 14.8781 7.02684 14.4906 6.87887C13.9903 6.68158 13.7296 6.63225 13.5957 6.70272C13.483 6.76613 13.2504 6.75204 13.0109 6.67453C12.7924 6.60407 12.5599 6.55475 12.4895 6.56884C12.419 6.58293 12.2358 6.53361 12.0737 6.44905C11.7214 6.27994 11.651 6.27994 11.7073 6.47019C11.7285 6.5477 11.9962 6.74499 12.2922 6.9141C12.722 7.15367 12.8347 7.26641 12.8347 7.44257C12.8347 7.61168 12.7783 7.661 12.6092 7.63986C12.4895 7.62577 12.3133 7.63986 12.2217 7.661C12.1301 7.68919 12.0455 7.661 12.0315 7.61168C12.0174 7.55531 11.8764 7.5694 11.7003 7.65395C11.5312 7.73146 11.2282 7.77374 11.0309 7.7526C10.6433 7.71032 10.4954 7.55531 10.7772 7.49189C10.8829 7.47075 10.8265 7.42143 10.6152 7.36506C10.439 7.31574 10.1994 7.21709 10.0796 7.15367C9.86826 7.03389 9.34684 7.0057 8.62813 7.07616C8.24763 7.1114 8.24763 7.11844 8.57881 7.13253C9.02272 7.15367 9.48072 7.36506 9.58642 7.59758C9.62869 7.69623 9.73439 7.80192 9.81189 7.82306C9.8894 7.85125 10.0656 7.92171 10.1924 7.99217C10.4179 8.10491 10.3967 8.119 9.89645 8.17537C8.52948 8.33744 8.44493 8.35153 9.19183 8.33039C9.62869 8.3163 10.5588 8.23879 11.2634 8.16128C12.1724 8.06264 12.6727 8.05559 12.9827 8.14014C13.5464 8.29516 13.7084 8.25993 13.342 8.06263L13.0602 7.90762H13.3632C13.5252 7.90762 13.8212 7.90057 14.0044 7.88648C14.1946 7.87239 14.4835 7.94285 14.6456 8.03445C15.0825 8.28107 16.0267 8.62633 16.1746 8.59815C16.2451 8.58405 16.3155 8.61929 16.3296 8.67566L16.2451 8.73907L16.0407 8.80249C15.9773 8.87295 16.0267 8.90818 16.2028 8.92227C16.3719 8.93167 16.3696 8.95985 16.1958 9.00683C16.0548 9.04206 15.8505 9.02092 15.7518 8.9575C15.5334 8.81658 14.9556 8.91523 15.1036 9.0632C15.167 9.11957 15.1459 9.1548 15.0543 9.14071C14.9768 9.12661 14.9063 9.07024 14.8993 8.99978C14.8993 8.93637 14.8499 8.89409 14.7936 8.90113L14.7231 9.00683C14.7372 9.0491 14.6104 9.09843 14.4413 9.11252C14.2228 9.12661 14.1665 9.09843 14.2369 9.02092C14.3144 8.93637 14.2933 8.91523 14.1524 8.95046C14.0467 8.9716 13.8 8.93637 13.6028 8.85886C13.18 8.71089 13.0672 8.71089 13.2716 8.85886C13.3491 8.92227 13.3984 9.00683 13.3702 9.0491L13.4407 9.10547C13.5041 9.09138 13.7225 9.20412 13.9339 9.35914C14.1453 9.51415 14.406 9.64803 14.5188 9.65508C14.7795 9.68326 14.8217 9.84533 14.5892 9.9017C14.4906 9.92284 14.3356 9.86647 14.244 9.76782C14.0608 9.56348 13.8846 9.57052 13.948 9.78191C13.9833 9.9017 13.9339 9.92284 13.7225 9.8876C13.5746 9.86647 13.1941 9.9017 12.8699 9.97216C12.5529 10.0426 12.1301 10.0919 11.9328 10.0849C11.7355 10.0779 11.4184 10.0638 11.2211 10.0497C10.8547 10.0356 9.36798 9.5212 9.33275 9.39437C9.31161 9.33095 10.2135 9.28868 10.8336 9.31686C10.9886 9.32391 11.1014 9.28868 11.0873 9.23935C11.045 9.09138 7.89532 9.16184 7.85305 9.31686C7.83895 9.36618 7.99397 9.38028 8.18422 9.35914C8.67745 9.29572 8.79724 9.51415 8.33219 9.63394L7.97283 9.72554L8.3181 9.71145C8.52244 9.7044 8.69155 9.76077 8.74087 9.85237C8.80429 9.98625 8.75496 10.0074 8.33924 10.0144C7.42323 10.0285 6.81725 9.95102 6.32402 9.75373C5.71804 9.50711 5.5137 9.5212 5.9858 9.77487C6.17605 9.88056 6.3663 9.95102 6.40857 9.94397C6.45085 9.93693 6.50722 9.9933 6.52836 10.0779C6.56359 10.1906 6.50722 10.2258 6.29583 10.2258C6.14082 10.2258 5.96466 10.1906 5.90829 10.1554C5.85192 10.1201 5.66167 10.1201 5.49961 10.1554C5.11912 10.2399 3.86489 10.0849 3.23073 9.87351C2.95593 9.78191 2.68113 9.73963 2.62476 9.78191C2.56134 9.83123 2.58248 9.84533 2.68817 9.83123C2.77977 9.81714 2.86433 9.83828 2.87842 9.8876C2.91365 10.0003 1.82149 10.0003 1.40576 9.8876C0.975943 9.76782 0.884342 9.78896 0.87025 10.0144C0.849111 10.2963 1.14505 10.4161 2.23721 10.557C2.80091 10.6275 3.40689 10.712 3.59713 10.7331C3.78738 10.7613 3.9424 10.8459 3.94944 10.9234C3.95649 11.0009 4.034 11.0784 4.11151 11.0855C4.2172 11.0996 4.22425 11.0573 4.14674 10.9445C4.05514 10.8107 4.07628 10.7895 4.26652 10.7966C4.39336 10.7966 5.23185 10.7895 6.13377 10.7613C8.96635 10.6768 9.85417 10.6838 10.2065 10.8107C10.6081 10.9516 10.749 10.9375 10.5517 10.7895C10.439 10.6979 10.5729 10.6697 11.3127 10.6134C12.5881 10.5147 13.1025 10.5711 13.2927 10.8248C13.4477 11.0291 13.4759 11.0291 14.251 10.7895C14.8499 10.5993 15.0754 10.5711 15.16 10.6486C15.2234 10.712 15.3502 10.7472 15.4418 10.7331C15.5757 10.712 15.5827 10.6838 15.463 10.5922C15.3432 10.5006 15.3573 10.4654 15.5546 10.4231C15.6884 10.3949 15.8364 10.409 15.8787 10.4583C15.928 10.5077 16.0971 10.5147 16.2662 10.4795C16.7383 10.3738 16.4283 10.6134 15.7096 10.8952C15.3643 11.0291 14.9768 11.163 14.8429 11.1841C14.709 11.2052 14.4976 11.2828 14.3708 11.3603C14.1876 11.4589 14.1242 11.4589 14.0889 11.3391C14.0326 11.1348 13.8846 11.1841 13.645 11.473C13.49 11.6632 13.3209 11.7337 12.7995 11.8112C12.3485 11.8817 12.1442 11.8676 12.116 11.776C12.0596 11.5716 11.8271 11.5364 11.7919 11.7196C11.7496 11.9169 11.1225 12.0297 10.3263 11.9803C10.0444 11.9662 9.50891 11.9662 9.12841 11.9803C8.74792 12.0015 8.35333 11.9662 8.24763 11.9028C8.07148 11.8042 7.5712 11.776 6.71156 11.8183C6.42971 11.8324 6.18309 11.7267 5.66167 11.3814C4.97819 10.9234 4.77385 10.8811 5.29527 11.3039C5.45029 11.4237 5.55598 11.5505 5.54189 11.5787C5.5278 11.6069 5.09798 11.5787 4.5977 11.5223C4.09037 11.4589 3.59009 11.4307 3.48439 11.4589C3.3787 11.48 3.15322 11.4589 2.97707 11.4166C2.65294 11.325 2.04697 11.3955 2.31472 11.5012C2.39223 11.5294 2.20903 11.5857 1.90604 11.628C1.41281 11.6914 1.37053 11.7196 1.51145 11.8253C1.60306 11.8958 1.89195 11.9592 2.15266 11.9733C2.41337 11.9874 2.73045 12.0156 2.84319 12.0437C3.08276 12.1001 3.90717 12.1072 4.35108 12.0649C4.90773 12.0085 5.85192 12.0649 5.72509 12.1565C5.35869 12.4031 5.13321 12.4454 4.6893 12.3538C4.42154 12.2974 4.20311 12.2904 4.20311 12.3467C4.20311 12.3961 4.06218 12.4595 3.89307 12.4806C3.72397 12.5017 3.67464 12.5299 3.78738 12.537C3.90012 12.544 4.24539 12.6074 4.55542 12.6779C4.86545 12.7484 5.29527 12.7906 5.50666 12.7836C6.12672 12.7484 5.99989 12.8822 5.31641 12.995C4.97115 13.0514 4.70339 13.1289 4.71748 13.1782C4.73157 13.2275 4.90773 13.2416 5.10502 13.1993C5.30936 13.1641 6.03512 13.1782 6.71861 13.2275C7.40914 13.2768 8.05034 13.305 8.14899 13.2839C8.24763 13.2627 8.34628 13.305 8.36742 13.3825C8.42379 13.5869 8.67745 13.601 9.58642 13.4389C10.8829 13.2134 11.8342 13.2486 11.7637 13.5164C11.7144 13.6926 8.56471 13.8758 7.7544 13.7489C7.24003 13.6714 6.89476 13.6785 6.46494 13.7912C6.12672 13.8758 5.5137 13.9251 5.02047 13.911C4.54837 13.8969 3.90717 13.8828 3.59009 13.8899C3.27301 13.8899 2.74454 13.8194 2.40632 13.7207C2.06811 13.6221 1.75103 13.5728 1.69466 13.608C1.63829 13.6432 1.7158 13.7067 1.87081 13.7489C2.31472 13.8758 3.12504 14.2774 3.08276 14.3549C3.06162 14.3901 2.85728 14.3972 2.62476 14.369C2.03992 14.2915 1.92718 14.3408 2.357 14.4888C2.55429 14.5592 2.73045 14.6579 2.74454 14.7143C2.815 14.9679 4.54837 15.1934 5.70395 15.1018C6.54245 15.0313 7.20479 15.0172 8.72678 15.0172C8.96635 15.0172 9.77666 14.982 10.5306 14.9397C10.7349 14.9256 10.9393 14.9609 10.9886 15.0032C11.045 15.0595 10.9322 15.1018 10.6433 15.1159C10.4038 15.13 9.86826 15.1934 9.44549 15.2639C8.48016 15.4189 8.24763 15.4471 7.45846 15.4823C7.10615 15.4964 6.3663 15.588 5.81669 15.6796C5.26709 15.7712 4.56247 15.8769 4.25948 15.9192C3.95649 15.9544 3.70987 16.0108 3.71692 16.0389C3.72397 16.0671 3.90717 16.1235 4.11855 16.1658C4.52019 16.2433 4.90773 16.201 4.80204 16.0953C4.76681 16.0601 5.1473 15.9544 5.65463 15.8628C6.66224 15.6725 6.98636 15.7501 7.02864 16.1728C7.04978 16.3631 7.09206 16.3983 7.2823 16.356C7.40913 16.3278 7.73326 16.356 8.00102 16.4124C8.36742 16.497 8.46607 16.5533 8.38856 16.6379C8.33219 16.7013 8.2124 16.7718 8.13489 16.7929C8.05034 16.814 7.92351 16.962 7.83895 17.1241C7.7544 17.2861 7.63461 17.4341 7.55711 17.4552C7.48664 17.4693 7.4655 17.5257 7.51483 17.568C7.63461 17.6878 7.55711 17.6948 7.11319 17.6032C6.55654 17.4975 6.35925 17.575 6.76793 17.7371L7.10615 17.871L6.63405 17.9767C6.37334 18.033 5.99285 18.0401 5.78851 17.9837C5.47847 17.8991 5.37983 17.8146 5.2389 17.4975L5.06979 17.11L5.16139 17.4834C5.21776 17.7089 5.21072 17.871 5.14025 17.8851C4.95001 17.9273 4.35812 17.6878 3.8508 17.3566C3.59009 17.1875 3.22368 16.9972 3.04048 16.9338L2.70931 16.8211L3.11095 17.0747C3.54781 17.3495 3.59009 17.5539 3.20959 17.5609C2.97002 17.5609 2.9207 17.6878 3.13208 17.7653C3.2871 17.8216 3.32233 17.9907 3.18141 18.0189C2.90661 18.0753 1.899 17.7582 1.35644 17.4341C0.947758 17.1875 0.722279 17.117 0.602493 17.1804C0.482708 17.2509 0.369968 17.2086 0.229044 17.0466C0.116305 16.9197 0.0176578 16.8422 0.0035654 16.8704C-0.0457581 16.969 0.426338 17.4271 0.820926 17.6596C1.37758 17.9837 1.84967 18.1669 2.18085 18.174C2.49088 18.181 2.60362 18.3501 2.34995 18.4206C2.10334 18.484 2.79387 18.5756 4.04105 18.646C6.51427 18.7799 6.83839 18.8081 6.85953 18.8927C6.88067 18.9772 6.74679 19.0547 6.57064 19.0547C6.52131 19.0547 6.40857 19.1463 6.30993 19.2591C6.21128 19.3718 6.02103 19.4845 5.88011 19.5198C5.64054 19.5761 5.64054 19.5832 5.83783 19.6748C6.13377 19.8087 5.97171 19.9285 5.50666 19.9214C5.28822 19.9214 4.99228 19.9426 4.85136 19.9707C4.44268 20.0623 3.44212 19.7664 2.70931 19.3507L2.03287 18.9631L2.51906 19.3436C2.78682 19.555 3.18141 19.7946 3.39984 19.8862C3.61827 19.9778 3.80852 20.0976 3.82261 20.161C3.86489 20.3019 4.19606 20.323 4.66111 20.2244C4.85136 20.1821 5.07684 20.1962 5.16844 20.2526C5.26004 20.309 5.41506 20.3653 5.5137 20.3865C5.95761 20.4569 5.56303 20.8374 5.06275 20.8233C4.85841 20.8163 4.83022 20.8445 4.91478 20.9643C4.97115 21.0488 4.97115 21.1193 4.91478 21.1334C4.57656 21.2109 5.18958 22.0141 5.83783 22.3383C5.9858 22.4158 6.09854 22.4933 6.08445 22.5144C6.03512 22.606 4.72453 22.5497 4.16083 22.4299C3.82261 22.3594 3.55486 22.3171 3.5619 22.3453C3.58304 22.4158 4.85841 22.6976 5.74623 22.8315C6.20423 22.8949 6.60587 23.0006 6.6411 23.0499C6.76088 23.2331 6.12672 23.4093 5.13321 23.4657C4.59065 23.5009 4.09037 23.5432 4.01286 23.5573C3.76624 23.6207 4.40745 23.7757 4.6752 23.7193C4.81613 23.6911 4.99933 23.677 5.09093 23.6911C5.26709 23.7193 5.39392 23.98 5.24595 24.0153C5.10502 24.0434 4.13265 23.9871 3.62532 23.9166C2.99116 23.825 2.61771 23.9166 2.68113 24.1632C2.7234 24.3042 2.8291 24.3464 3.13913 24.3253C3.42098 24.3112 3.57599 24.3605 3.64646 24.4803C3.73101 24.6212 3.80147 24.6353 4.04105 24.5367C4.3088 24.4239 4.77385 24.4169 5.33755 24.5226C5.45029 24.5437 5.84488 24.6071 6.20423 24.6635C6.88772 24.7692 7.12729 24.9383 6.59882 24.9454C6.3522 24.9454 6.30993 24.9735 6.38743 25.0863C6.51427 25.2624 5.86601 25.805 5.35164 25.9671C5.1473 26.0305 4.68225 26.1996 4.3088 26.3476C3.69578 26.5942 2.07515 26.9183 1.63829 26.8901C1.53964 26.8901 1.46918 26.9183 1.48327 26.9676C1.5185 27.0945 2.20903 27.031 3.80852 26.7492C4.91478 26.5519 5.15435 26.5378 5.0557 26.6646C4.94296 26.8056 4.95705 26.8197 5.16844 26.8337C5.29527 26.8337 5.57007 26.8056 5.78146 26.7633C6.14082 26.6858 6.42267 26.7633 6.47904 26.9535C6.49313 27.0029 5.99285 27.1438 5.37278 27.2706C4.75271 27.3974 4.2172 27.5384 4.19606 27.5806C4.17492 27.6229 4.26652 27.637 4.40745 27.6018C4.54837 27.5666 4.80204 27.5806 4.9641 27.63C5.48552 27.7709 7.0991 27.63 8.55062 27.3058C9.31866 27.1367 10.2276 26.9958 10.587 26.9958C10.9463 26.9958 11.1507 27.0169 11.0379 27.0451C10.8265 27.1015 10.4531 27.5666 10.4954 27.7145C10.5306 27.8273 11.7496 27.4256 11.7566 27.3058C11.7637 27.179 12.0244 27.1297 12.0596 27.2565C12.0737 27.3129 12.2006 27.327 12.3415 27.2847L12.5951 27.2142L12.3344 27.1861C12.0878 27.1579 12.0949 27.1579 12.3767 27.0804C12.5458 27.0381 12.6938 27.0522 12.7079 27.1085C12.722 27.172 12.8136 27.172 12.9052 27.1085C12.9968 27.0522 13.0884 27.0451 13.1025 27.0945C13.1166 27.1438 13.2293 27.1438 13.3491 27.0874C13.4689 27.031 13.6944 26.9958 13.8494 26.9958L14.1312 27.0099L13.8564 27.2706C13.7084 27.4115 13.4477 27.5666 13.2786 27.6018C13.0672 27.6511 12.9897 27.7216 13.0179 27.8273C13.0532 27.947 12.9756 27.9964 12.6515 28.0386C12.3344 28.088 12.2076 28.0527 12.0878 27.8977C11.7919 27.5102 11.5805 27.7427 11.7355 28.2994C11.8342 28.6728 11.7144 29.0181 11.4607 29.0744C11.3621 29.0956 11.1577 29.2506 11.0027 29.4268C10.7349 29.7156 10.6645 29.7438 9.80485 29.8636C9.30457 29.9341 8.61404 30.0186 8.26877 30.0539C7.81782 30.1032 7.67689 30.1455 7.74735 30.2159C7.87419 30.3428 7.64871 30.3921 7.26821 30.3287C7.10615 30.3005 6.90885 30.2864 6.8243 30.2934C6.74679 30.2934 6.40153 30.2864 6.06331 30.2582C5.72509 30.23 5.36573 30.2018 5.27413 30.1948C5.16139 30.1877 5.11207 30.2371 5.14025 30.3287C5.16844 30.4344 5.37983 30.4696 5.85192 30.4485C6.71861 30.4062 7.07092 30.5401 6.32402 30.6176C6.02808 30.6457 5.29527 30.7585 4.69634 30.8712C4.09741 30.9769 3.37165 31.0615 3.08276 31.0615C2.6459 31.0615 2.51906 31.0967 2.27245 31.3081C2.08924 31.4631 1.80035 31.5899 1.48327 31.6463C1.06754 31.7168 0.954804 31.7802 0.827972 32.0127C0.602493 32.4284 0.827972 32.5835 1.52555 32.5059C1.84263 32.4707 2.53316 32.4707 3.06867 32.5059C3.60418 32.5412 4.23834 32.5694 4.48496 32.5694C4.86545 32.5694 7.31049 32.3439 7.53597 32.3016C7.57824 32.2946 7.59938 32.3439 7.57824 32.4073C7.55711 32.4919 7.64871 32.4919 7.89532 32.3862C8.08557 32.3087 8.93816 32.1607 9.79076 32.062C10.6433 31.9634 11.5523 31.8507 11.8201 31.8154C12.5176 31.7309 12.7643 31.7379 12.729 31.8647C12.7149 31.9282 12.6092 31.9986 12.4895 32.0198C12.2076 32.0832 12.109 32.3016 12.2006 32.6328C12.3063 33.0062 12.1301 33.0344 10.8547 32.823C10.2981 32.7314 10.291 32.7314 10.5658 32.8724C10.7279 32.9499 10.89 33.0133 10.9322 33.0062L11.0379 33.1049C11.0591 33.1824 10.7279 33.274 9.90349 33.4079C9.26229 33.5136 8.29696 33.6827 7.76849 33.7813C6.78202 33.9645 6.38039 33.9575 6.68338 33.7531C6.78202 33.6897 6.59177 33.6756 6.20423 33.7249C5.85192 33.7672 5.37983 33.7602 5.15435 33.7108C4.92887 33.6615 4.66111 33.6333 4.55542 33.6474C4.44973 33.6615 4.27357 33.6897 4.16083 33.7038C4.04809 33.7179 3.73806 33.6474 3.46326 33.5347C3.18141 33.422 2.94184 33.3797 2.90661 33.436C2.82205 33.584 3.35756 34.5 3.51258 34.4718C3.77329 34.4155 3.70987 34.7607 3.41393 34.9862C3.24482 35.113 2.99821 35.3597 2.87137 35.5358C2.62476 35.8599 2.36405 35.9163 2.28654 35.6556C2.2654 35.5781 2.19494 35.4935 2.13152 35.4724C1.899 35.3878 2.09629 35.6486 2.47679 35.9234C2.99116 36.2968 3.23778 36.3532 4.44268 36.3743C5.84488 36.4025 7.16252 36.5505 7.91646 36.7689C8.56471 36.9592 8.79019 37.1283 8.38151 37.1283C7.27526 37.1212 6.30993 37.0719 6.14082 37.0296C6.01398 36.9944 5.91534 37.0155 5.88011 37.086C5.78146 37.2692 6.16196 37.6638 6.46494 37.7061L6.7327 37.7413L6.51427 37.9033C6.39448 37.9949 6.28174 38.1147 6.26765 38.1711C6.21128 38.3825 6.4438 38.5727 6.69042 38.5164C7.22593 38.4036 8.82542 38.615 9.22706 38.8616C9.44549 38.9955 9.77666 39.0942 9.98805 39.0871C10.1924 39.0801 10.3967 39.1153 10.4461 39.1646C10.5024 39.221 10.4108 39.2562 10.1783 39.2633C9.75552 39.2774 9.74848 39.4183 10.1713 39.5874C10.3333 39.6508 10.4531 39.7213 10.439 39.7495C10.3967 39.8199 8.61404 39.679 8.44493 39.5874C8.36742 39.5451 8.19127 39.5592 8.06443 39.6226C7.86714 39.7142 6.30993 39.6226 5.56303 39.4747C5.45029 39.4535 5.38687 39.4817 5.40801 39.5522C5.42915 39.6156 5.52075 39.6719 5.6194 39.686C5.71804 39.7001 5.99285 39.7495 6.22537 39.7988C6.4579 39.8481 6.86658 39.8833 7.12729 39.8763C7.67689 39.8622 7.78258 39.9749 7.47255 40.2427C7.33867 40.3554 7.26116 40.5527 7.26821 40.7571C7.2823 41.1446 7.08501 41.2362 6.34516 41.208C6.0774 41.1939 5.85192 41.2292 5.83783 41.2785C5.82374 41.3278 5.93648 41.511 6.0774 41.6872C6.2606 41.9126 6.42971 42.0113 6.64814 42.0183C6.81725 42.0183 7.02159 42.1099 7.0991 42.2086C7.2048 42.3425 7.33867 42.3706 7.61348 42.3213C8.17013 42.2227 9.02976 42.3143 9.57232 42.5327C10.5517 42.9273 14.1312 43.1105 15.3502 42.8216C15.5264 42.7793 15.7589 42.8639 16.1042 43.0823C16.5833 43.3923 16.6256 43.3994 17.0343 43.2514C17.2668 43.1669 17.7671 43.0682 18.1405 43.04C18.514 43.0119 19.6202 42.8498 20.5856 42.6877C21.5579 42.5257 23.0729 42.3213 23.9536 42.2368C24.8344 42.1522 26.138 41.9761 26.8426 41.8492C29.2313 41.4265 29.8936 41.3419 29.9288 41.4476C29.9641 41.5744 26.3564 42.2368 24.2355 42.4975C23.6788 42.5679 22.5514 42.723 21.7341 42.8427C20.9167 42.9625 20.1205 43.0753 19.9584 43.0964C19.7964 43.1105 18.676 43.343 17.457 43.6037C16.238 43.8644 14.6385 44.1533 13.8917 44.2379C13.1448 44.3224 12.116 44.4916 11.6016 44.6043C10.0726 44.9496 9.95986 44.9918 10.0162 45.175C10.0867 45.4076 10.9957 45.5978 11.503 45.4921C13.8635 44.9707 15.7237 44.6677 15.7237 44.8016C15.7237 44.865 15.2938 44.9989 14.6174 45.1328C13.3068 45.4005 13.6168 45.4569 15.322 45.2596C15.928 45.1891 16.4987 45.1539 16.5974 45.175C16.696 45.1962 17.4993 45.0834 18.3801 44.9214C20.1557 44.5832 22.4176 44.2379 23.7 44.1111C24.158 44.0617 25.4474 43.8504 26.5607 43.6319C27.7022 43.4135 28.6535 43.2726 28.738 43.3148C28.8226 43.3571 28.886 43.4628 28.8789 43.5474C28.8719 43.6742 28.9212 43.6812 29.1537 43.5615C29.3088 43.4839 29.5624 43.3853 29.7174 43.343C29.8725 43.3007 30.0275 43.2303 30.0698 43.188C30.267 42.9696 30.9858 42.7652 34.6498 41.9056L38.5957 40.9825L38.6098 40.9614C38.7366 40.9966 38.8564 41.0319 38.9903 41.0601C39.8288 40.7923 40.4065 40.6584 40.3784 40.743C40.3643 40.8064 40.4277 40.8346 40.5193 40.8134C40.6109 40.7923 41.0407 40.7289 41.4705 40.6655C42.006 40.588 42.2597 40.5175 42.2808 40.4259C42.302 40.3554 42.3936 40.2779 42.4852 40.2568C42.5838 40.2356 42.6613 40.1581 42.6613 40.0806C42.6613 39.982 42.7036 39.9679 42.8304 40.0313C43.0066 40.1229 44.4863 39.9045 44.4511 39.7988C44.4088 39.6649 44.8668 39.5381 44.9514 39.6579C45.0077 39.7354 45.1768 39.7495 45.3882 39.6931C45.7053 39.6085 45.7194 39.6015 45.4798 39.5663C45.3178 39.5451 45.663 39.4535 46.4029 39.3126C47.0511 39.1928 47.6219 39.1294 47.6641 39.1787L47.8403 39.1646C47.8896 39.1082 48.3265 39.0237 48.8127 38.9673C49.4821 38.8898 49.7076 38.8335 49.7357 38.7278C49.7639 38.6291 49.9894 38.5586 50.6024 38.4741C51.1873 38.3966 51.4621 38.3191 51.5325 38.2134C51.61 38.1006 51.7228 38.0866 52.0398 38.15C52.2653 38.1922 52.7304 38.1852 53.0686 38.1288C53.4139 38.0725 53.8225 38.0443 53.9846 38.0725C54.1467 38.1006 54.4144 38.0865 54.5835 38.0513C54.7526 38.0161 55.1684 38.0161 55.4995 38.0513C55.8378 38.0936 56.2042 38.1006 56.3169 38.0795C56.4296 38.0584 56.5635 38.0795 56.6128 38.1218C56.6622 38.1711 56.6128 38.2275 56.5001 38.2557C56.3874 38.2838 56.338 38.3332 56.3803 38.3754C56.4226 38.4177 56.6269 38.4036 56.8313 38.3473C57.0356 38.2909 57.2118 38.2697 57.2188 38.305C57.2259 38.3402 57.557 38.4952 57.9446 38.6432C58.4449 38.8405 58.7056 38.8898 58.8394 38.8194C58.9522 38.7559 59.1847 38.77 59.4243 38.8475C59.6427 38.918 59.8752 38.9673 59.9457 38.9532C60.0162 38.9391 60.1994 38.9885 60.3614 39.073C60.7137 39.2421 60.7842 39.2421 60.7278 39.0519C60.7067 38.9744 60.4389 38.7771 60.143 38.608C59.7132 38.3684 59.6004 38.2557 59.6004 38.0795C59.6004 37.9104 59.6568 37.8611 59.8259 37.8822C59.9457 37.8963 60.1219 37.8822 60.2135 37.8611C60.3051 37.8329 60.3896 37.8611 60.4037 37.9104C60.4178 37.9668 60.5587 37.9527 60.7349 37.8681C60.904 37.7906 61.207 37.7483 61.4043 37.7695C61.7918 37.8117 61.9398 37.9668 61.6579 38.0302C61.5522 38.0513 61.6086 38.1006 61.82 38.157C61.9961 38.2063 62.2357 38.305 62.3555 38.3684C62.5669 38.4882 63.0883 38.5164 63.807 38.4459C64.1875 38.4107 64.1875 38.4036 63.8563 38.3895C63.4124 38.3684 62.9544 38.157 62.8487 37.9245C62.8065 37.8258 62.7008 37.7201 62.6233 37.699C62.5457 37.6708 62.3696 37.6004 62.2428 37.5299C62.0173 37.4172 62.0384 37.4031 62.5387 37.3467C63.9057 37.1846 63.9902 37.1705 63.2433 37.1917C62.8065 37.2058 61.8764 37.2833 61.1717 37.3608C60.2628 37.4594 59.7625 37.4665 59.4525 37.3819C58.8888 37.2269 58.7267 37.2621 59.0931 37.4594L59.375 37.6145H59.072C58.9099 37.6145 58.614 37.6215 58.4308 37.6356C58.2405 37.6497 57.9516 37.5792 57.7896 37.4876C57.3527 37.241 56.4085 36.8957 56.2605 36.9239C56.1901 36.938 56.1196 36.9028 56.1055 36.8464L56.1901 36.783L56.3944 36.7196C56.4578 36.6491 56.4085 36.6139 56.2323 36.5998C56.0632 36.5904 56.0656 36.5622 56.2394 36.5152C56.3803 36.48 56.5847 36.5012 56.6833 36.5646C56.9017 36.7055 57.4795 36.6068 57.3316 36.4589C57.2681 36.4025 57.2893 36.3673 57.3809 36.3814C57.4584 36.3955 57.5288 36.4518 57.5359 36.5223C57.5359 36.5857 57.5852 36.628 57.6416 36.6209L57.712 36.5152C57.698 36.473 57.8248 36.4236 57.9939 36.4095C58.2123 36.3955 58.2687 36.4236 58.1982 36.5012C58.1207 36.5857 58.1419 36.6068 58.2828 36.5716C58.3885 36.5505 58.6351 36.5857 58.8324 36.6632C59.2552 36.8112 59.3679 36.8112 59.1636 36.6632C59.0861 36.5998 59.0367 36.5152 59.0649 36.473L58.9945 36.4166C58.931 36.4307 58.7126 36.3179 58.5012 36.1629C58.2898 36.0079 58.0291 35.874 57.9164 35.867C57.6557 35.8388 57.6134 35.6767 57.8459 35.6204C57.9446 35.5992 58.0996 35.6556 58.1912 35.7543C58.3744 35.9586 58.5505 35.9515 58.4871 35.7402C58.4519 35.6204 58.5012 35.5992 58.7126 35.6345C58.8606 35.6556 59.2411 35.6204 59.5652 35.5499C59.8823 35.4795 60.305 35.4301 60.5023 35.4372C60.6996 35.4442 61.0167 35.4583 61.214 35.4724C61.5804 35.4865 63.0672 36.0009 63.1024 36.1277C63.1235 36.1911 62.2216 36.2334 61.6016 36.2052C61.4465 36.1982 61.3338 36.2334 61.3479 36.2827C61.3902 36.4307 64.5398 36.3602 64.5821 36.2052C64.5962 36.1559 64.4412 36.1418 64.2509 36.1629C63.7577 36.2263 63.6379 36.0079 64.103 35.8881L64.4623 35.7965L64.1171 35.8106C63.9127 35.8177 63.7436 35.7613 63.6943 35.6697C63.6309 35.5358 63.6802 35.5147 64.0959 35.5076C65.0119 35.4935 65.6179 35.5711 66.1111 35.7683C66.7171 36.015 66.9214 36.0009 66.4493 35.7472C66.2591 35.6415 66.0689 35.5711 66.0266 35.5781C65.9843 35.5851 65.9279 35.5288 65.9068 35.4442C65.8716 35.3315 65.9279 35.2962 66.1393 35.2962C66.2943 35.2962 66.4705 35.3315 66.5269 35.3667C66.5903 35.4019 66.7735 35.4019 66.9355 35.3667C67.316 35.2822 68.5703 35.4372 69.2044 35.6486C69.4792 35.7402 69.754 35.7824 69.8104 35.7402C69.8738 35.6908 69.8527 35.6767 69.747 35.6908C69.6554 35.7049 69.5708 35.6838 69.5567 35.6345C69.5215 35.5217 70.6137 35.5217 71.0294 35.6345C71.4592 35.7542 71.5508 35.7331 71.5649 35.5076ZM64.723 7.37211C64.7723 7.36506 64.8287 7.42143 64.8499 7.49894C64.871 7.58349 64.8287 7.661 64.7583 7.68214C64.6737 7.70328 64.6244 7.64691 64.6314 7.55531C64.6314 7.46371 64.6807 7.3862 64.723 7.37211ZM64.0889 8.15424C64.1382 8.20356 64.0748 8.26698 63.9339 8.29516C63.8 8.32334 63.6802 8.30221 63.6661 8.25288C63.652 8.19651 63.7225 8.1331 63.8211 8.11196C63.9198 8.09082 64.0396 8.11196 64.0889 8.15424ZM63.7506 7.49189C63.8563 7.47075 63.9479 7.49189 63.9691 7.54826C63.9902 7.60463 63.9127 7.66805 63.807 7.68919C63.7013 7.71032 63.6097 7.68919 63.5886 7.63282C63.5745 7.57645 63.645 7.51303 63.7506 7.49189ZM15.3925 8.18242C15.2868 8.07673 15.3784 8.06263 15.921 8.11196C16.1958 8.1331 16.3367 8.18947 16.2803 8.24584C16.1817 8.35858 15.5193 8.30925 15.3925 8.18242ZM9.00863 9.95102C8.81838 9.81714 8.80429 9.78896 8.93112 9.76077C9.00863 9.73963 9.1425 9.78191 9.22706 9.84533C9.46663 10.0285 9.26229 10.1342 9.01567 9.95102H9.00863ZM14.2721 10.6697C14.1665 10.6909 14.0678 10.6697 14.0537 10.6134C14.0396 10.557 14.0889 10.5006 14.1594 10.4865C14.2369 10.4724 14.3356 10.4936 14.3778 10.5429C14.4272 10.5922 14.3778 10.6486 14.2721 10.6697ZM15.7096 9.49302C15.167 9.45074 15.0543 9.29572 15.5405 9.2464C15.773 9.22526 15.9914 9.22526 16.0267 9.2464C16.2028 9.35914 16.0055 9.50711 15.7096 9.48597V9.49302ZM7.68394 38.1922C7.63461 38.1993 7.57824 38.1429 7.55711 38.0654C7.53597 37.9809 7.57824 37.9033 7.64871 37.8822C7.73326 37.8611 7.78258 37.9174 7.77554 38.009C7.77554 38.1006 7.72621 38.1782 7.68394 38.1922ZM8.3181 37.4101C8.26877 37.3608 8.33219 37.2974 8.47311 37.2692C8.60699 37.241 8.72678 37.2621 8.74087 37.3115C8.75496 37.3608 8.6845 37.4313 8.58585 37.4524C8.48721 37.4735 8.36742 37.4524 8.3181 37.4101ZM8.65631 38.0725C8.55062 38.0936 8.45902 38.0725 8.43788 38.0161C8.42379 37.9597 8.49425 37.8963 8.59995 37.8752C8.70564 37.854 8.79724 37.8752 8.81838 37.9315C8.83247 37.9879 8.76201 38.0513 8.65631 38.0725ZM56.1126 34.6198C55.718 34.8242 55.6264 34.8453 55.5911 34.7185C55.57 34.655 55.4643 34.5634 55.3586 34.5071C55.1684 34.4225 55.1754 34.4084 55.3727 34.3591C55.4925 34.3309 55.7673 34.345 55.9857 34.3943L56.3803 34.4789L56.1196 34.6128L56.1126 34.6198ZM57.6063 33.3022C57.2399 33.6404 57.254 33.6333 57.0779 33.5629C56.9792 33.5276 57.0568 33.4079 57.3456 33.1965C57.8318 32.823 58.0362 32.9076 57.6063 33.3022ZM61.2352 31.2306C60.9885 31.301 60.9815 31.3151 61.1717 31.3645C61.4113 31.4208 58.9451 31.9211 58.6492 31.8718C58.5224 31.8506 58.4801 31.7731 58.473 31.5618C58.466 31.3222 58.5083 31.2729 58.7478 31.2517C58.9029 31.2376 59.1777 31.2658 59.3609 31.3222C59.7132 31.4279 60.6785 31.3222 60.3826 31.2165C60.1289 31.1249 60.3826 31.0826 61.0026 31.1249C61.4395 31.1531 61.4747 31.1672 61.2352 31.2376V31.2306ZM64.9978 26.7421C64.7723 26.7562 64.5046 26.7421 64.3989 26.714C64.1805 26.6576 63.3138 26.573 62.8981 26.566C62.7078 26.566 62.6303 26.5237 62.6726 26.4462C62.7501 26.3053 64.0325 26.3194 64.3073 26.4673C64.4059 26.5167 64.6526 26.5378 64.864 26.5096C65.0824 26.4814 65.2797 26.5096 65.322 26.5871C65.3854 26.6928 65.322 26.721 64.9908 26.7421H64.9978ZM64.0325 28.2712C64.0466 28.3205 63.7647 28.3205 63.4124 28.2782C63.0601 28.2359 62.6937 28.1937 62.6092 28.1866C62.4964 28.1796 62.4823 28.1514 62.5598 28.1021C62.6937 28.0105 63.9973 28.1584 64.0325 28.2712ZM65.9773 21.3095C66.1886 21.4082 66.1886 21.4223 65.8927 21.4857C65.6954 21.535 65.5827 21.5139 65.5827 21.4363C65.5827 21.2391 65.7306 21.1968 65.9773 21.3095ZM64.9415 24.3817C64.9274 24.2266 64.9485 24.0012 64.9908 23.8814C65.0683 23.67 65.0824 23.67 65.5052 23.7898C65.9561 23.9096 66.1111 24.0505 66.2098 24.4099C66.2661 24.6001 66.2168 24.6212 65.5122 24.741C65.0331 24.8256 64.6948 24.8326 64.5962 24.7622C64.4623 24.6706 64.4764 24.6565 64.7019 24.6565C64.9274 24.6565 64.9626 24.6212 64.9415 24.3746V24.3817ZM64.7583 23.8602C64.8428 24.1562 64.7583 24.2901 64.5821 24.1139L64.3989 24.0505V24.1562C64.4412 24.2055 64.42 24.2548 64.3566 24.2689C64.1875 24.3042 63.5181 24.0575 63.4829 23.9448C63.3631 23.522 63.659 23.3529 64.3003 23.4797C64.6032 23.5361 64.6807 23.5995 64.7512 23.8532L64.7583 23.8602ZM63.6309 21.4293C63.6943 21.4223 63.9057 21.387 64.0889 21.3518C64.5257 21.2743 64.5469 21.5068 64.1171 21.69C63.5956 21.9225 63.5745 21.9225 63.5393 21.6759C63.5181 21.5491 63.5604 21.4363 63.6238 21.4293H63.6309ZM60.904 28.0175C61.0872 27.9752 61.2422 27.9893 61.2633 28.0457C61.2774 28.1021 61.1436 28.1796 60.9604 28.2219C60.7771 28.2641 60.6221 28.25 60.601 28.1937C60.5869 28.1373 60.7208 28.0598 60.904 28.0175ZM60.5517 29.6663C61.059 29.5606 61.5522 29.4127 61.6579 29.3352C61.8341 29.2154 61.827 29.2013 61.517 29.2013C61.214 29.2013 61.1929 29.1872 61.3197 29.0322C61.5029 28.7926 61.3479 28.7362 61.0731 28.9335C60.9181 29.0463 60.7983 29.0744 60.7137 29.0181C60.4671 28.8631 60.6996 28.7574 61.7213 28.5601C62.7853 28.3487 63.659 28.3205 63.7577 28.4826C63.8493 28.6376 63.3067 29.1872 63.0813 29.166C62.9685 29.152 62.891 29.1872 62.9051 29.2295C62.9262 29.307 63.8493 29.4831 64.1664 29.462C64.4341 29.4479 65.1176 29.6311 65.1458 29.7297C65.1599 29.7861 64.9696 29.8425 64.6596 29.8777C64.3778 29.9059 63.8634 29.9623 63.5252 30.0045C63.1799 30.0468 62.8699 30.075 62.8346 30.0609C62.7994 30.0468 62.13 30.1525 61.3549 30.2934C58.8394 30.7444 58.7478 30.7514 58.6703 30.4837C58.614 30.2793 59.5018 29.8918 60.5587 29.6663H60.5517ZM58.2969 32.6821C58.4167 32.6962 58.8253 32.6469 59.1988 32.5764C60.1853 32.3932 61.5734 32.3298 62.3203 32.4355C62.4048 32.4496 62.1934 32.5764 61.8552 32.7244L61.2352 32.9921L61.8693 32.8653C62.6303 32.7103 63.5745 32.6962 63.4406 32.8371C63.3702 32.9146 63.3772 32.9499 63.4758 32.9851C63.6943 33.0626 63.8704 32.8583 63.7577 32.661C63.6309 32.4425 63.6097 32.4425 64.3919 32.4637C65.2515 32.4848 65.8645 32.6046 65.8575 32.7526C65.8575 32.823 66.0548 32.9146 66.3014 32.964C66.6607 33.0344 66.7312 33.0767 66.6396 33.1824C66.5057 33.3374 65.8716 33.4008 65.78 33.2669C65.7447 33.2176 65.5827 33.2035 65.4206 33.2388C65.2585 33.274 64.9978 33.2388 64.8428 33.1683C64.6385 33.0696 64.4623 33.0696 64.1734 33.1753C63.7084 33.3444 62.2709 33.4501 61.8764 33.3444C61.7213 33.3022 61.2845 33.3092 60.8969 33.3515C60.3614 33.4149 60.1994 33.4008 60.2064 33.2881C60.2205 33.1119 60.0937 33.1331 59.6568 33.3797C59.3538 33.5488 59.2974 33.5488 59.0085 33.3797C58.7619 33.2247 58.6562 33.2176 58.5505 33.3233C58.4026 33.4713 57.8318 33.5136 57.7966 33.3726C57.7473 33.2106 57.9305 33.1119 58.1066 33.2035C58.3462 33.3304 58.3885 33.2035 58.1841 32.971C57.9728 32.7385 58.008 32.6539 58.3039 32.6821H58.2969ZM58.7197 29.7227C58.7197 29.7227 58.7478 29.8425 58.7126 29.9341C58.6421 30.1032 58.3744 30.1737 58.0573 30.1173C57.9728 30.1032 57.7755 30.1032 57.6275 30.1173C57.4795 30.1314 57.3456 30.1032 57.3316 30.0468C57.3104 29.9482 58.5928 29.6452 58.7197 29.7297V29.7227ZM58.8183 18.6813C58.9099 18.6954 59.0649 18.6883 59.1636 18.6672C59.2622 18.646 59.3538 18.6672 59.375 18.7236C59.389 18.7799 59.2552 18.8574 59.072 18.8997C58.8324 18.9561 58.7337 18.9279 58.6985 18.8152C58.6703 18.7095 58.7126 18.6672 58.8183 18.6813ZM55.7532 31.8788C55.8941 31.7943 55.9434 31.7943 55.9223 31.8788C55.9012 31.9634 56.021 31.9704 56.2887 31.9141C56.6692 31.8295 56.6763 31.8154 56.4578 31.7097C56.2394 31.597 56.2394 31.597 56.5001 31.597C56.6481 31.597 56.7819 31.5477 56.796 31.4842C56.8101 31.4208 56.8947 31.3574 56.9863 31.3433C57.0849 31.3292 57.1061 31.3433 57.0427 31.3926C56.9863 31.4349 56.9581 31.5336 56.9792 31.604C57.0004 31.6815 56.8947 31.7943 56.7256 31.8647C56.1971 32.0902 55.8941 32.1889 55.7602 32.1818C55.6827 32.1818 55.577 32.1818 55.5207 32.203C55.3586 32.2382 55.5136 32.0268 55.7462 31.8859L55.7532 31.8788ZM55.4854 31.7802C55.4502 31.9211 55.0979 32.0057 54.8724 31.9211C54.7526 31.8718 54.809 31.8295 55.1049 31.7661C55.3516 31.7097 55.4995 31.7168 55.4784 31.7872L55.4854 31.7802ZM48.7634 35.867C48.6577 35.9163 48.6154 36.0079 48.6577 36.0995C48.714 36.2263 48.6647 36.2616 48.411 36.2898C48.2349 36.3039 47.7839 36.3532 47.4105 36.3955L46.734 36.473L47.5514 36.1841C48.0024 36.0291 48.5942 35.8529 48.862 35.7895C49.1368 35.7331 49.3482 35.6415 49.3341 35.5922C49.3059 35.4865 50.0458 35.2962 50.3135 35.3456C50.546 35.3808 50.384 35.5781 50.0528 35.6556C49.8696 35.6979 49.8555 35.7261 49.9894 35.7754C50.081 35.8106 50.2149 35.8036 50.2853 35.7683C50.6729 35.5499 51.1238 35.4231 51.2154 35.5076C51.3141 35.6063 51.9976 35.5429 52.7938 35.3597C53.1179 35.2822 53.2518 35.2962 53.28 35.4019C53.3152 35.5217 53.0968 35.5851 51.9201 35.8036C51.152 35.9445 50.4685 36.0431 50.4051 36.022C50.236 35.9586 50.0599 35.9656 49.4116 36.0502C48.7704 36.1347 48.6647 36.1136 48.8268 35.9234C48.9113 35.8177 48.9043 35.8106 48.7563 35.867H48.7634ZM51.2718 32.9499L51.5043 32.9005L51.3141 33.0908C51.1027 33.2951 50.7504 33.3233 50.9336 33.119C50.99 33.0556 51.1379 32.9851 51.2718 32.9569V32.9499ZM51.152 34.7748C51.3493 34.7326 51.4762 34.7466 51.455 34.8101C51.4409 34.8735 51.3 34.951 51.152 34.9862C50.997 35.0214 50.8631 35.0074 50.849 34.951C50.8349 34.8946 50.9688 34.8171 51.152 34.7748ZM52.3499 33.6615C52.519 33.6192 52.667 33.6333 52.681 33.6827C52.7163 33.8025 52.5542 33.8377 52.2583 33.7813C52.0821 33.7461 52.0962 33.7249 52.3499 33.6615ZM52.7022 34.8664C52.5895 34.796 52.5965 34.7607 52.7515 34.7255C52.8995 34.6903 52.9629 34.7466 53.0193 34.9298C53.0827 35.1483 53.0545 35.1835 52.7515 35.2469L52.4062 35.3174L52.6317 35.1412C52.8079 35.0003 52.822 34.9439 52.7092 34.8664H52.7022ZM53.6534 32.4073C53.5266 32.4355 53.435 32.5059 53.4561 32.5553C53.4702 32.6116 53.3293 32.6891 53.1391 32.7314C52.822 32.8019 52.8008 32.7948 52.8924 32.6187C52.9629 32.4848 53.1884 32.3791 53.6393 32.2664C53.9916 32.1748 54.2946 32.055 54.3228 31.9916C54.351 31.9211 54.3792 31.9211 54.4003 31.9986C54.4215 32.0691 54.5201 32.1043 54.6258 32.0832C54.7315 32.062 54.8231 32.0832 54.8372 32.1325C54.8865 32.3157 54.1255 32.5905 53.9776 32.4425C53.9282 32.3932 53.7873 32.3791 53.6605 32.4073H53.6534ZM57.8459 17.0959C57.9869 17.117 58.008 17.1593 57.9516 17.3002C57.8671 17.5046 57.7614 17.5468 57.6275 17.413C57.4936 17.2791 57.6416 17.0606 57.8459 17.0959ZM53.8437 35.0496C54.2946 35.0144 54.6188 35.113 54.5765 35.261C54.5483 35.3667 54.0762 35.3808 53.9705 35.2822C53.9282 35.2399 53.7662 35.2328 53.6111 35.2681C53.4279 35.3103 53.3434 35.2892 53.3645 35.2046C53.3857 35.1271 53.5548 35.0637 53.8366 35.0426L53.8437 35.0496ZM62.6162 7.49189C62.6514 7.61872 62.4682 7.74556 62.278 7.71737C62.1934 7.70328 61.5029 7.81602 60.749 7.96399C59.995 8.11196 59.3327 8.20356 59.2763 8.16833C59.2199 8.1331 58.7478 8.2247 58.2194 8.37267C57.5711 8.55587 57.2329 8.60519 57.1624 8.54178C57.1061 8.48541 56.8595 8.49245 56.6058 8.54178C56.3521 8.59815 56.021 8.62633 55.8589 8.59815C55.6968 8.56996 55.3304 8.59815 55.0415 8.64747C54.5765 8.73203 54.5131 8.71793 54.4919 8.54178C54.4778 8.42904 54.4778 8.32334 54.4919 8.30925C54.499 8.28811 54.957 8.21765 55.5136 8.15424C56.0632 8.08377 57.4302 7.85829 58.5505 7.63986C60.0584 7.35097 60.7701 7.25937 61.3056 7.28051C62.2357 7.32278 62.5739 7.37915 62.6092 7.49894L62.6162 7.49189ZM52.9981 7.60463C53.1531 7.39324 53.6393 7.31574 55.1825 7.23823C55.7462 7.21004 56.0844 7.15367 56.1196 7.07616C56.2042 6.92115 55.7884 6.80136 55.2741 6.8225L54.8795 6.83659L55.3445 6.71681C55.9505 6.56179 56.2817 6.58293 56.2676 6.77318C56.2676 6.85069 56.2958 6.9141 56.3451 6.90001C56.3944 6.88592 56.4155 6.80841 56.3874 6.72385C56.3521 6.60407 56.4085 6.56179 56.6128 6.56179C57.0638 6.5477 57.8882 6.44201 59.0438 6.24471C61.672 5.79375 61.8552 5.77262 61.8482 6.01219C61.8482 6.08265 61.4959 6.20243 60.911 6.33631C60.0937 6.51951 60.0725 6.52656 60.7419 6.40677C61.7002 6.23767 61.8129 6.24471 61.7072 6.49838C61.6509 6.6393 61.524 6.69567 61.1858 6.72385C60.9392 6.74499 60.1571 6.8225 59.4313 6.89296C58.5012 6.98456 58.0855 6.98456 58.0009 6.89296C57.8459 6.72385 57.6839 6.76613 57.8107 6.94229C57.8952 7.06207 57.8318 7.09026 57.3879 7.13958C56.6058 7.23118 53.3504 7.68214 53.0756 7.73851C52.8431 7.78783 52.8431 7.78079 52.984 7.59758L52.9981 7.60463ZM47.2343 37.5863C47.2202 37.6497 47.0441 37.7061 46.8468 37.7131C46.6495 37.7201 46.4099 37.7483 46.3042 37.7695C46.1774 37.7977 46.1422 37.7695 46.1915 37.6849C46.276 37.5229 47.2766 37.4313 47.2343 37.5863ZM45.7969 9.71849C46.9948 9.44369 47.643 9.338 47.6289 9.40846C47.5937 9.54234 44.2961 10.2751 44.0847 10.1976C44.0072 10.1695 44.7822 9.95807 45.8039 9.72554L45.7969 9.71849ZM40.3925 4.37747C41.4494 4.13085 41.7453 4.10971 41.7947 4.27882C41.8228 4.38451 39.8781 4.71568 39.554 4.65931C39.4271 4.63818 39.7724 4.52544 40.3925 4.37747ZM23.0165 9.92988C23.0447 10.0356 22.3048 10.2258 22.0371 10.1765C21.8045 10.1413 21.9666 9.94397 22.2978 9.86646C22.481 9.82419 22.4951 9.796 22.3612 9.74668C22.2696 9.71145 22.1357 9.71849 22.0653 9.75373C21.6777 9.97216 21.2268 10.099 21.1352 10.0144C21.0365 9.91579 20.353 9.9792 19.5568 10.1624C19.2327 10.2399 19.0988 10.2258 19.0706 10.1201C19.0354 10.0003 19.2538 9.93693 20.4305 9.71849C21.1986 9.57757 21.8821 9.47892 21.9455 9.50006C22.1146 9.56348 22.2907 9.55643 22.939 9.47188C23.5802 9.38732 23.6859 9.40846 23.5238 9.59871C23.4393 9.7044 23.4463 9.71145 23.5943 9.65508C23.7 9.60576 23.7423 9.51416 23.7 9.42255C23.6436 9.29572 23.6929 9.26049 23.9466 9.23231C24.1227 9.21821 24.5737 9.16889 24.9472 9.12661L25.6236 9.0491L24.8062 9.338C24.3553 9.49302 23.7634 9.66917 23.4956 9.73259C23.2208 9.78896 23.0094 9.88056 23.0235 9.92988H23.0165ZM21.0788 12.5793L20.8463 12.6286L21.0365 12.4383C21.2479 12.234 21.6002 12.2058 21.417 12.4101C21.3606 12.4736 21.2127 12.544 21.0788 12.5722V12.5793ZM21.1986 10.7543C21.0013 10.7966 20.8744 10.7825 20.8956 10.7191C20.9097 10.6556 21.0506 10.5781 21.1986 10.5429C21.3536 10.5077 21.4875 10.5218 21.5016 10.5781C21.5157 10.6345 21.3818 10.712 21.1986 10.7543ZM18.0348 13.5375C18.0066 13.608 17.9785 13.608 17.9573 13.5305C17.9362 13.46 17.8375 13.4248 17.7318 13.4459C17.6261 13.4671 17.5345 13.4459 17.5204 13.3966C17.4711 13.2134 18.2321 12.9386 18.3801 13.0866C18.4294 13.1359 18.5703 13.15 18.6972 13.1218C18.824 13.0936 18.9156 13.0232 18.8945 12.9738C18.8804 12.9175 19.0213 12.84 19.2115 12.7977C19.5286 12.7272 19.5498 12.7343 19.4582 12.9104C19.3877 13.0443 19.1622 13.15 18.7113 13.2627C18.3589 13.3543 18.056 13.4741 18.0278 13.5375H18.0348ZM14.4976 28.4332C14.3567 28.4121 14.3356 28.3698 14.3919 28.2289C14.4765 28.0246 14.5822 27.9823 14.7161 28.1162C14.8499 28.25 14.702 28.4685 14.4976 28.4332ZM17.76 10.2611C17.7882 10.1554 18.2603 10.1413 18.366 10.2399C18.4083 10.2822 18.5703 10.2892 18.7254 10.254C18.9086 10.2117 18.9931 10.2329 18.972 10.3174C18.9508 10.3949 18.7817 10.4583 18.4999 10.4795C18.0489 10.5147 17.7248 10.4161 17.7671 10.2681L17.76 10.2611ZM19.6484 10.6556C19.7611 10.7261 19.7541 10.7613 19.5991 10.7966C19.4511 10.8318 19.3877 10.7754 19.3313 10.5922C19.2679 10.3738 19.2961 10.3386 19.5991 10.2751L19.9443 10.2047L19.7189 10.3808C19.5427 10.5218 19.5286 10.5781 19.6414 10.6556H19.6484ZM19.6695 11.8394C19.6343 11.7196 19.7964 11.6844 20.0923 11.7408C20.2685 11.776 20.2544 11.7971 20.0007 11.8605C19.8316 11.9028 19.6836 11.8887 19.6695 11.8394ZM25.1092 7.9358C25.1233 7.87239 25.2995 7.81602 25.4968 7.80897C25.6941 7.80193 25.9336 7.77374 26.0393 7.7526C26.1662 7.72442 26.2014 7.7526 26.1521 7.83716C26.0675 7.99922 25.0669 8.09082 25.1092 7.9358ZM30.4009 5.8008H30.415L30.3939 5.80785C30.3093 5.80785 30.1895 5.81489 30.0416 5.82899L30.1473 5.79375C30.1473 5.79375 30.2882 5.75852 30.4009 5.79375V5.8008ZM21.8609 7.40734C22.2696 7.34392 22.7346 7.25937 22.8826 7.21709C25.0176 6.62521 25.2783 6.56884 25.1515 6.68862C24.9683 6.86478 25.0317 7.01979 25.2572 6.97047C25.3699 6.94229 25.4263 6.86478 25.3981 6.76613C25.3558 6.62521 25.4968 6.58293 26.6101 6.38564C26.9342 6.32927 27.3288 6.26585 27.7304 6.20243C27.2372 6.30813 27.0751 6.38564 26.9624 6.51247L26.8637 6.61111C26.8778 6.67453 26.8919 6.74499 26.906 6.80841C25.9054 7.0198 24.9824 7.1889 24.8556 7.16777C24.4821 7.1114 24.0382 7.21709 24.0382 7.36506C24.0382 7.44961 23.9748 7.47075 23.8198 7.42848C23.7 7.39324 23.1997 7.42848 22.6994 7.50598C22.1991 7.58349 21.6213 7.65395 21.4241 7.661C20.7828 7.69623 21.0717 7.52008 21.8468 7.40734H21.8609ZM16.2521 10.9164C16.6467 10.712 16.7383 10.6909 16.7736 10.8177C16.7947 10.8811 16.9004 10.9727 17.0061 11.0291C17.1963 11.1136 17.1893 11.1277 16.992 11.1771C16.8722 11.2052 16.5974 11.1912 16.379 11.1418L15.9844 11.0573L16.2451 10.9234L16.2521 10.9164ZM14.7583 12.234C15.1247 11.8958 15.1106 11.9028 15.2868 11.9733C15.3854 12.0085 15.3079 12.1283 15.019 12.3397C14.5329 12.7131 14.3285 12.6286 14.7583 12.234ZM11.1295 14.3056C11.3762 14.2351 11.3832 14.221 11.193 14.1717C10.9534 14.1153 13.4196 13.6151 13.7155 13.6644C13.8423 13.6855 13.8846 13.763 13.8917 13.9744C13.8987 14.214 13.8564 14.2633 13.6168 14.2844C13.4618 14.2985 13.187 14.2703 13.0038 14.214C12.6515 14.1083 11.6862 14.214 11.9821 14.3197C12.2358 14.4113 11.9821 14.4535 11.3621 14.4113C10.9252 14.3831 10.89 14.369 11.1295 14.2985V14.3056ZM7.36686 18.794C7.59234 18.7799 7.86009 18.794 7.96579 18.8222C8.18422 18.8786 9.0509 18.9631 9.46663 18.9702C9.65688 18.9702 9.73439 19.0125 9.69211 19.09C9.6146 19.2309 8.33219 19.2168 8.05739 19.0688C7.95874 19.0195 7.71212 18.9984 7.50074 19.0265C7.2823 19.0547 7.08501 19.0265 7.04273 18.949C6.97932 18.8433 7.04273 18.8152 7.3739 18.794H7.36686ZM8.33219 17.265C8.3181 17.2157 8.59995 17.2157 8.95226 17.2579C9.30457 17.3002 9.67097 17.3425 9.75552 17.3495C9.86826 17.3566 9.88236 17.3848 9.80485 17.4341C9.67097 17.5257 8.36742 17.3777 8.33219 17.265ZM6.38743 24.2266C6.17605 24.128 6.17605 24.1139 6.47199 24.0505C6.66928 24.0012 6.78202 24.0223 6.78202 24.0998C6.78202 24.2971 6.63405 24.3394 6.38743 24.2266ZM7.42323 21.1545C7.43732 21.3095 7.41618 21.535 7.3739 21.6548C7.2964 21.8662 7.2823 21.8662 6.85953 21.7464C6.40857 21.6266 6.25356 21.4857 6.14786 21.1263C6.09149 20.9361 6.14082 20.9149 6.84544 20.7951C7.32458 20.7106 7.6628 20.7035 7.76145 20.774C7.89532 20.8656 7.88123 20.8797 7.65575 20.8797C7.43027 20.8797 7.39504 20.9149 7.41618 21.1615L7.42323 21.1545ZM7.60643 21.6759C7.52187 21.38 7.60643 21.2461 7.78258 21.4223L7.96579 21.4857V21.38C7.92351 21.3307 7.94465 21.2813 8.00806 21.2672C8.17717 21.232 8.84656 21.4786 8.88179 21.5914C9.00158 22.0141 8.70564 22.1832 8.06443 22.0564C7.76145 22 7.68394 21.9366 7.61348 21.683L7.60643 21.6759ZM8.73382 24.1069C8.67041 24.1139 8.45902 24.1491 8.27582 24.1844C7.83895 24.2619 7.81782 24.0294 8.24763 23.8462C8.76905 23.6136 8.79019 23.6136 8.82542 23.8602C8.84656 23.9871 8.80429 24.0998 8.74087 24.1069H8.73382ZM11.4607 17.5187C11.2775 17.5609 11.1225 17.5468 11.1013 17.4905C11.0873 17.4341 11.2211 17.3566 11.4043 17.3143C11.5875 17.272 11.7426 17.2861 11.7637 17.3425C11.7778 17.3989 11.6439 17.4764 11.4607 17.5187ZM11.813 15.8698C11.3057 15.9755 10.8125 16.1235 10.7068 16.201C10.5306 16.3208 10.5377 16.3349 10.8477 16.3349C11.1507 16.3349 11.1718 16.349 11.045 16.504C10.8618 16.7436 11.0168 16.7999 11.2916 16.6026C11.4466 16.4899 11.5664 16.4617 11.651 16.5181C11.8976 16.6731 11.665 16.7788 10.6433 16.9761C9.57937 17.1875 8.70564 17.2157 8.60699 17.0536C8.51539 16.8986 9.05795 16.349 9.28343 16.3701C9.39617 16.3842 9.47367 16.349 9.45958 16.3067C9.43844 16.2292 8.51539 16.053 8.19831 16.0742C7.93055 16.0883 7.24707 15.9051 7.21889 15.8064C7.2048 15.7501 7.39504 15.6937 7.70508 15.6585C7.98692 15.6303 8.5013 15.5739 8.83952 15.5316C9.18478 15.4893 9.49481 15.4612 9.53005 15.4753C9.56528 15.4893 10.2347 15.3836 11.0097 15.2427C13.5252 14.7918 13.6168 14.7847 13.6944 15.0525C13.7507 15.2568 12.8629 15.6444 11.806 15.8698H11.813ZM14.0678 12.8541C13.948 12.84 13.5393 12.8893 13.1659 12.9598C12.1794 13.143 10.7913 13.2064 10.0444 13.1007C9.95986 13.0866 10.1713 12.9598 10.5095 12.8118L11.1295 12.544L10.4954 12.6709C9.73439 12.8259 8.79019 12.84 8.92407 12.699C8.99453 12.6215 8.98749 12.5863 8.88884 12.5511C8.67041 12.4736 8.49425 12.6779 8.60699 12.8752C8.73382 13.0936 8.75496 13.0936 7.97283 13.0725C7.11319 13.0514 6.50017 12.9316 6.50722 12.7836C6.50722 12.7131 6.30993 12.6215 6.06331 12.5722C5.70395 12.5017 5.63349 12.4595 5.72509 12.3538C5.85897 12.1988 6.49313 12.1353 6.58473 12.2692C6.61996 12.3185 6.78202 12.3326 6.94409 12.2974C7.10615 12.2622 7.36686 12.2974 7.52187 12.3679C7.72621 12.4665 7.90237 12.4665 8.19126 12.3608C8.65631 12.1917 10.0937 12.086 10.4883 12.1917C10.6433 12.234 11.0802 12.2269 11.4678 12.1847C12.0033 12.1213 12.1653 12.1353 12.1583 12.2481C12.1442 12.4242 12.271 12.4031 12.7079 12.1565C13.0109 11.9874 13.0672 11.9874 13.3561 12.1565C13.6028 12.3115 13.7084 12.3185 13.8141 12.2129C13.9621 12.0649 14.5329 12.0226 14.5681 12.1635C14.6174 12.3256 14.4342 12.4242 14.2581 12.3326C14.0185 12.2058 13.9762 12.3326 14.1805 12.5652C14.3919 12.7977 14.3567 12.8822 14.0608 12.8541H14.0678ZM13.645 15.8135C13.645 15.8135 13.6168 15.6937 13.6521 15.6021C13.7225 15.433 13.9903 15.3625 14.3074 15.4189C14.3919 15.433 14.5892 15.433 14.7372 15.4189C14.8852 15.4048 15.019 15.433 15.0331 15.4893C15.0543 15.588 13.7719 15.891 13.645 15.8064V15.8135ZM13.5464 26.8549C13.4548 26.8408 13.2998 26.8478 13.2011 26.869C13.1025 26.8901 13.0109 26.869 12.9897 26.8126C12.9756 26.7562 13.1095 26.6787 13.2927 26.6365C13.5323 26.5801 13.6309 26.6083 13.6662 26.721C13.6944 26.8267 13.6521 26.869 13.5464 26.8549ZM16.6115 13.6573C16.4706 13.7419 16.4212 13.7419 16.4424 13.6573C16.4635 13.5728 16.3437 13.5657 16.076 13.6221C15.6955 13.7067 15.6884 13.7207 15.9069 13.8264C16.1253 13.9392 16.1253 13.9392 15.8646 13.9392C15.7166 13.9392 15.5827 13.9885 15.5686 14.0519C15.5546 14.1153 15.47 14.1787 15.3784 14.1928C15.2798 14.2069 15.2586 14.1928 15.322 14.1435C15.3784 14.1012 15.4066 14.0026 15.3854 13.9321C15.3643 13.8546 15.47 13.7419 15.6391 13.6714C16.1676 13.4459 16.4706 13.3473 16.6044 13.3543C16.6819 13.3543 16.7876 13.3543 16.844 13.3332C17.0061 13.298 16.8511 13.5094 16.6185 13.6503L16.6115 13.6573ZM16.9638 8.25288C16.9074 8.16833 16.9568 8.14719 17.154 8.17537C17.302 8.19651 17.8939 8.18242 18.4787 8.14719C19.0636 8.10491 19.6766 8.08377 19.8457 8.09787C20.0148 8.11196 20.4587 8.08377 20.8251 8.03445C21.3747 7.96399 22.3823 7.90057 23.1292 7.88648L23.0024 7.9358L22.643 8.08377L22.9813 8.0274C23.1645 7.99922 23.3688 8.00627 23.4322 8.0415C23.4886 8.07673 24.1298 7.99922 24.9542 7.87943V7.90057C24.9612 8.06968 24.9401 8.09082 24.8485 8.00627C24.764 7.92171 24.7428 7.92876 24.764 8.00627C24.7851 8.06968 24.7358 8.119 24.6653 8.10491C24.5948 8.09082 24.4187 8.15424 24.2778 8.23879C24.0664 8.36562 24.1298 8.37267 24.6794 8.25288C24.7992 8.2247 24.926 8.2106 25.0388 8.19651L25.081 8.21765C25.1585 8.23174 25.2361 8.21765 25.2572 8.17537C25.377 8.16128 25.4686 8.16833 25.5109 8.17537C25.6447 8.2247 25.6306 8.25288 25.4474 8.30221C24.8415 8.47132 24.2355 8.53473 23.9466 8.47836C23.4181 8.36562 23.0658 8.39381 22.9531 8.55587C22.791 8.79544 21.3677 8.74612 21.2972 8.4995C21.2831 8.45018 21.4029 8.42199 21.5791 8.42904C21.7623 8.44313 21.875 8.41495 21.8609 8.35858C21.8468 8.30925 21.7693 8.28107 21.6848 8.30221C21.6002 8.32335 21.5509 8.28107 21.572 8.21061C21.5932 8.12605 21.5438 8.12605 21.4241 8.19651C21.3254 8.25993 21.2338 8.26698 21.2197 8.21765C21.1845 8.10491 20.7617 8.28811 20.7194 8.42904C20.6842 8.56292 20.2403 8.65452 20.2121 8.54178C20.198 8.49245 20.2755 8.4079 20.3812 8.35858C20.5292 8.28811 20.501 8.28107 20.2755 8.32334C20.1064 8.35153 19.888 8.36562 19.7893 8.34448C19.6484 8.32334 19.6273 8.34448 19.7118 8.46427C19.8316 8.64042 19.6132 8.73203 19.3313 8.61929C19.1974 8.56996 19.2115 8.54178 19.3947 8.49245C19.6061 8.43608 19.6061 8.42904 19.4159 8.38676C19.2961 8.36562 19.0142 8.37971 18.7747 8.42199C18.2603 8.52064 17.0484 8.39381 16.9427 8.23174L16.9638 8.25288ZM16.8792 13.756C16.9145 13.6151 17.2668 13.5305 17.4923 13.6151C17.6121 13.6644 17.5557 13.7067 17.2597 13.7701C17.0131 13.8264 16.8652 13.8194 16.8863 13.7489L16.8792 13.756ZM9.75552 38.0584C9.72029 37.9315 9.90349 37.8047 10.0937 37.8329C10.1783 37.847 10.8688 37.7342 11.6228 37.5863C12.3767 37.4383 13.0391 37.3467 13.0954 37.3819C13.1518 37.4172 13.6239 37.3256 14.1524 37.1776C14.8006 36.9944 15.1388 36.9451 15.2093 37.0085C15.2657 37.0648 15.5123 37.0578 15.7659 37.0085C16.0196 36.9592 16.3508 36.9239 16.5128 36.9521C16.6749 36.9803 17.0413 36.9521 17.3302 36.9028C17.7953 36.8182 17.8587 36.8323 17.8798 37.0085C17.8939 37.1212 17.8939 37.2269 17.8798 37.241C17.8728 37.2621 17.4148 37.3326 16.8581 37.396C16.3085 37.4665 14.9415 37.692 13.8212 37.9104C12.3133 38.1993 11.6016 38.2909 11.0661 38.2697C10.136 38.2275 9.7978 38.1711 9.76257 38.0513L9.75552 38.0584ZM19.3736 37.9456C19.2186 38.157 18.7324 38.2345 17.1893 38.312C16.6256 38.3402 16.2874 38.3966 16.2521 38.4741C16.1676 38.6291 16.5833 38.7489 17.0977 38.7278L17.4923 38.7137L17.0272 38.8334C16.4212 38.9885 16.0901 38.9673 16.1042 38.7771C16.1042 38.6996 16.076 38.6362 16.0267 38.6502C15.9773 38.6643 15.9562 38.7418 15.9844 38.8264C16.0196 38.9462 15.9632 38.9885 15.7589 38.9885C15.3079 39.0026 14.4835 39.1082 13.328 39.3055C10.6997 39.7565 10.5165 39.7776 10.5236 39.5381C10.5236 39.4676 10.8759 39.3478 11.4607 39.2139C12.2781 39.0307 12.2992 39.0237 11.6298 39.1435C10.6715 39.3126 10.5588 39.3055 10.6645 39.0519C10.7209 38.911 10.8477 38.8546 11.1859 38.8264C11.4325 38.8053 12.2147 38.7278 12.9404 38.6573C13.8705 38.5657 14.2862 38.5657 14.3708 38.6573C14.5258 38.8264 14.6879 38.7841 14.561 38.608C14.4765 38.4882 14.5399 38.46 14.9838 38.4107C15.7659 38.3191 19.0213 37.8681 19.2961 37.8117C19.5286 37.7624 19.5286 37.7695 19.3877 37.9527L19.3736 37.9456ZM26.5748 35.8318C25.377 36.1066 24.7287 36.2123 24.7428 36.1418C24.778 36.0079 28.0757 35.2751 28.2871 35.3526C28.3646 35.3808 27.5895 35.5922 26.5678 35.8247L26.5748 35.8318ZM31.9793 41.1728C30.9223 41.4194 30.6264 41.4405 30.5771 41.2714C30.5489 41.1657 32.4936 40.8346 32.8178 40.8909C32.9446 40.9121 32.5993 41.0248 31.9793 41.1728ZM41.9779 39.7495H41.9638L41.9849 39.7424C42.0695 39.7424 42.1892 39.7354 42.3372 39.7213L42.2315 39.7565C42.2315 39.7565 42.0906 39.7917 41.9779 39.7565V39.7495ZM50.5179 38.1429C50.1092 38.2063 49.6441 38.2909 49.4962 38.3332C47.3612 38.925 47.1005 38.9814 47.2273 38.8616C47.4105 38.6855 47.3471 38.5305 47.1216 38.5798C47.0089 38.608 46.9525 38.6855 46.9807 38.7841C47.0229 38.925 46.882 38.9673 45.7687 39.1646C45.4446 39.221 45.05 39.2844 44.6484 39.3478C45.1416 39.2421 45.3037 39.1646 45.4164 39.0378L45.5151 38.9391C45.501 38.8757 45.4869 38.8053 45.4728 38.7418C46.4733 38.5305 47.3964 38.3614 47.5232 38.3825C47.8967 38.4389 48.3406 38.3332 48.3406 38.1852C48.3406 38.1006 48.404 38.0795 48.559 38.1218C48.6788 38.157 49.1791 38.1218 49.6794 38.0443C50.1796 37.9668 50.7574 37.8963 50.9547 37.8893C51.5959 37.854 51.307 38.0302 50.532 38.1429H50.5179ZM55.2318 37.3819C55.0838 37.3608 54.4919 37.3749 53.9071 37.4101C53.3223 37.4524 52.7092 37.4735 52.5401 37.4594C52.371 37.4453 51.9271 37.4735 51.5607 37.5229C50.9477 37.6004 49.7639 37.6708 49.0029 37.6708C48.7422 37.6708 48.3476 37.7201 47.636 37.8399C47.4739 37.8681 47.4316 37.8258 47.4246 37.6567C47.4246 37.4876 47.4457 37.4665 47.5303 37.551C47.6148 37.6356 47.636 37.6285 47.6148 37.551C47.5937 37.4876 47.643 37.4383 47.7135 37.4524C47.7839 37.4665 47.9601 37.4031 48.101 37.3185C48.3124 37.1917 48.249 37.1846 47.6994 37.3044C47.333 37.3819 46.9666 37.4172 46.8679 37.3819C46.734 37.3326 46.7481 37.3044 46.9313 37.2551C47.5373 37.086 48.1433 37.0226 48.4322 37.0789C48.9607 37.1917 49.313 37.1635 49.4257 37.0014C49.5878 36.7619 51.0111 36.8112 51.0816 37.0578C51.0956 37.1071 50.9759 37.1353 50.7997 37.1283C50.6165 37.1142 50.5038 37.1424 50.5179 37.1987C50.532 37.2481 50.6095 37.2762 50.694 37.2551C50.7786 37.234 50.8279 37.2762 50.8068 37.3467C50.7856 37.4313 50.8349 37.4313 50.9547 37.3608C51.0534 37.2974 51.145 37.2903 51.1591 37.3396C51.1943 37.4524 51.6171 37.2692 51.6593 37.1283C51.6946 36.9944 52.1385 36.9028 52.1667 37.0155C52.1808 37.0648 52.1033 37.1494 51.9976 37.1987C51.8496 37.2692 51.8778 37.2762 52.1033 37.234C52.2724 37.2058 52.4908 37.1917 52.5895 37.2128C52.7304 37.234 52.7515 37.2128 52.667 37.093C52.5472 36.9169 52.7656 36.8253 53.0475 36.938C53.1813 36.9873 53.1672 37.0155 52.984 37.0648C52.7727 37.1212 52.7727 37.1283 52.9629 37.1705C53.0827 37.1917 53.3645 37.1705 53.6041 37.1353C54.1185 37.0367 55.3304 37.1635 55.4361 37.3256C55.4925 37.4101 55.4432 37.4313 55.2459 37.4031L55.2318 37.3819ZM57.0286 37.4031C57.1343 37.5088 57.0427 37.5229 56.5001 37.4735C56.2253 37.4524 56.0844 37.396 56.1407 37.3396C56.2394 37.2269 56.9017 37.2762 57.0286 37.4031ZM56.8806 36.3391C56.6481 36.3602 56.4296 36.3602 56.3944 36.3391C56.2182 36.2263 56.4155 36.0784 56.7115 36.0995C57.254 36.1418 57.3668 36.2968 56.8806 36.3461V36.3391ZM58.2617 35.106C58.1841 35.1201 58.0855 35.099 58.0432 35.0496C57.9939 35.0003 58.0432 34.9439 58.1489 34.9228C58.2546 34.9017 58.3533 34.9228 58.3673 34.9792C58.3814 35.0355 58.3321 35.0919 58.2617 35.106ZM63.4899 35.8318C63.4124 35.8529 63.2786 35.8106 63.194 35.7472C62.9544 35.564 63.1588 35.4583 63.4054 35.6415C63.5956 35.7754 63.6097 35.8036 63.4829 35.8318H63.4899Z" fill="#EA6129"/>
<path d="M24.4046 9.35916C24.5455 9.33098 24.5385 9.32393 24.4046 9.27461C24.1932 9.20415 24.0664 9.22528 24.165 9.31688C24.2073 9.35916 24.313 9.37325 24.4046 9.35916Z" fill="#EA6129"/>
</svg>
