<svg width="73" height="46" viewBox="0 0 73 46" fill="none" xmlns="http://www.w3.org/2000/svg">
<g id="Elementos" clip-path="url(#clip0_1_285)">
<g id="Group">
<path id="Vector" d="M71.5884 35.4666C71.6095 35.1847 71.3135 35.0649 70.2213 34.924C69.6575 34.8535 69.0515 34.769 68.8613 34.7478C68.671 34.7197 68.516 34.6351 68.5089 34.5576C68.5019 34.4801 68.4244 34.4025 68.3468 34.3955C68.2411 34.3814 68.2341 34.4237 68.3116 34.5364C68.4032 34.6703 68.3821 34.6915 68.1918 34.6844C68.065 34.6844 67.2264 34.6915 66.3244 34.7197C63.4916 34.8042 62.6037 34.7972 62.2514 34.6703C61.8497 34.5294 61.7088 34.5435 61.9061 34.6915C62.0188 34.7831 61.8849 34.8113 61.145 34.8676C59.8695 34.9663 59.3551 34.9099 59.1649 34.6562C59.0098 34.4519 58.9817 34.4519 58.2065 34.6915C57.6075 34.8817 57.382 34.9099 57.2975 34.8324C57.2341 34.769 57.1072 34.7337 57.0156 34.7478C56.8817 34.769 56.8747 34.7972 56.9945 34.8888C57.1143 34.9804 57.1002 35.0156 56.9029 35.0579C56.769 35.0861 56.621 35.072 56.5787 35.0227C56.5294 34.9733 56.3602 34.9663 56.1911 35.0015C55.719 35.1072 56.029 34.8676 56.7478 34.5858C57.0931 34.4519 57.4807 34.318 57.6146 34.2968C57.7485 34.2757 57.9599 34.1982 58.0867 34.1207C58.2699 34.022 58.3334 34.022 58.3686 34.1418C58.425 34.3462 58.5729 34.2968 58.8125 34.0079C58.9676 33.8177 59.1367 33.7472 59.6581 33.6697C60.1091 33.5992 60.3135 33.6133 60.3417 33.7049C60.3981 33.9093 60.6306 33.9445 60.6658 33.7613C60.7081 33.564 61.3353 33.4512 62.1316 33.5006C62.4134 33.5146 62.949 33.5146 63.3295 33.5006C63.7101 33.4794 64.1047 33.5146 64.2104 33.5781C64.3866 33.6767 64.8869 33.7049 65.7466 33.6626C66.0285 33.6485 66.2751 33.7542 66.7965 34.0995C67.4801 34.5576 67.6844 34.5999 67.163 34.177C67.0079 34.0573 66.9023 33.9304 66.9163 33.9022C66.9304 33.874 67.3603 33.9022 67.8606 33.9586C68.368 34.022 68.8683 34.0502 68.974 34.022C69.0797 34.0009 69.3052 34.022 69.4814 34.0643C69.8055 34.1559 70.4116 34.0854 70.1438 33.9797C70.0663 33.9515 70.2495 33.8952 70.5525 33.8529C71.0458 33.7895 71.088 33.7613 70.9471 33.6556C70.8555 33.5851 70.5666 33.5217 70.3058 33.5076C70.0451 33.4935 69.728 33.4653 69.6153 33.4371C69.3757 33.3808 68.5512 33.3737 68.1073 33.416C67.5506 33.4724 66.6063 33.416 66.7331 33.3244C67.0996 33.0777 67.3251 33.0355 67.769 33.1271C68.0368 33.1834 68.2552 33.1905 68.2552 33.1341C68.2552 33.0848 68.3962 33.0214 68.5653 33.0002C68.7344 32.9791 68.7837 32.9509 68.671 32.9439C68.5582 32.9368 68.213 32.8734 67.9029 32.8029C67.5928 32.7325 67.163 32.6902 66.9516 32.6972C66.3315 32.7325 66.4583 32.5986 67.1418 32.4858C67.4871 32.4294 67.7549 32.3519 67.7408 32.3026C67.7267 32.2533 67.5506 32.2392 67.3532 32.2815C67.1489 32.3167 66.4231 32.3026 65.7395 32.2533C65.0489 32.2039 64.4077 32.1758 64.309 32.1969C64.2104 32.218 64.1117 32.1758 64.0906 32.0982C64.0342 31.8939 63.7805 31.8798 62.8715 32.0419C61.5749 32.2674 60.6236 32.2321 60.694 31.9644C60.7434 31.7882 63.8933 31.605 64.7037 31.7318C65.2181 31.8093 65.5634 31.8023 65.9932 31.6895C66.3315 31.605 66.9445 31.5556 67.4378 31.5697C67.9099 31.5838 68.5512 31.5979 68.8683 31.5909C69.1854 31.5909 69.7139 31.6613 70.0522 31.76C70.3904 31.8587 70.7075 31.908 70.7639 31.8727C70.8203 31.8375 70.7428 31.7741 70.5877 31.7318C70.1438 31.605 69.3334 31.2033 69.3757 31.1258C69.3968 31.0905 69.6012 31.0835 69.8337 31.1117C70.4186 31.1892 70.5313 31.1399 70.1015 30.9919C69.9042 30.9214 69.728 30.8228 69.7139 30.7664C69.6435 30.5127 67.9099 30.2872 66.7543 30.3788C65.9157 30.4493 65.2533 30.4634 63.7312 30.4634C63.4916 30.4634 62.6812 30.4986 61.9272 30.5409C61.7229 30.555 61.5185 30.5198 61.4692 30.4775C61.4128 30.4211 61.5256 30.3788 61.8145 30.3647C62.0541 30.3506 62.5896 30.2872 63.0124 30.2167C63.9778 30.0617 64.2104 30.0335 64.9996 29.9983C65.352 29.9842 66.0919 29.8926 66.6415 29.801C67.1912 29.7094 67.8959 29.6037 68.1989 29.5614C68.5019 29.5262 68.7485 29.4698 68.7415 29.4416C68.7344 29.4134 68.5512 29.357 68.3398 29.3148C67.9381 29.2372 67.5506 29.2795 67.6563 29.3852C67.6915 29.4205 67.311 29.5262 66.8036 29.6178C65.7959 29.808 65.4717 29.7305 65.4295 29.3077C65.4083 29.1174 65.3661 29.0822 65.1758 29.1245C65.0489 29.1527 64.7248 29.1245 64.457 29.0681C64.0906 28.9836 63.9919 28.9272 64.0694 28.8426C64.1258 28.7792 64.2456 28.7087 64.3231 28.6876C64.4006 28.6665 64.5345 28.5185 64.6191 28.3564C64.7037 28.1943 64.8234 28.0463 64.901 28.0252C64.9714 28.0111 64.9926 27.9547 64.9432 27.9124C64.8234 27.7927 64.901 27.7856 65.3449 27.8772C65.9016 27.9829 66.0989 27.9054 65.6902 27.7433L65.352 27.6094L65.8241 27.5037C66.0848 27.4474 66.4653 27.4403 66.6697 27.4967C66.9798 27.5812 67.0784 27.6658 67.2194 27.9829L67.3885 28.3705L67.2969 27.997C67.2405 27.7715 67.2475 27.6094 67.318 27.5953C67.5083 27.5531 68.1002 27.7927 68.6076 28.1239C68.8683 28.293 69.2347 28.4832 69.418 28.5467L69.7492 28.6594L69.3475 28.4057C68.9106 28.1309 68.8683 27.9265 69.2488 27.9195C69.4884 27.9195 69.5378 27.7927 69.3263 27.7151C69.1713 27.6588 69.1361 27.4896 69.277 27.4615C69.5518 27.4051 70.5595 27.7222 71.1021 28.0463C71.5109 28.293 71.7364 28.3634 71.8561 28.3C71.9759 28.2296 72.0887 28.2718 72.2296 28.4339C72.3424 28.5608 72.441 28.6383 72.4551 28.6101C72.5044 28.5114 72.0323 28.0534 71.6377 27.8208C71.081 27.4967 70.6089 27.3135 70.2777 27.3064C69.9676 27.2994 69.8549 27.1303 70.1085 27.0598C70.3552 26.9964 69.6646 26.9048 68.4173 26.8343C65.9439 26.7004 65.6197 26.6722 65.5986 26.5877C65.5775 26.5031 65.7113 26.4256 65.8875 26.4256C65.9368 26.4256 66.0496 26.334 66.1482 26.2212C66.2469 26.1085 66.4372 25.9957 66.5781 25.9605C66.8177 25.9041 66.8177 25.8971 66.6204 25.8055C66.3244 25.6716 66.4865 25.5518 66.9516 25.5588C67.17 25.5588 67.466 25.5377 67.6069 25.5095C68.0156 25.4179 69.0163 25.7139 69.7492 26.1296L70.4257 26.5172L69.9394 26.1367C69.6716 25.9253 69.277 25.6857 69.0586 25.5941C68.8401 25.5024 68.6499 25.3826 68.6358 25.3192C68.5935 25.1783 68.2623 25.1572 67.7972 25.2558C67.6069 25.2981 67.3814 25.284 67.2898 25.2276C67.1982 25.1712 67.0432 25.1149 66.9445 25.0937C66.5006 25.0233 66.8952 24.6427 67.3955 24.6568C67.5999 24.6639 67.6281 24.6357 67.5435 24.5159C67.4871 24.4313 67.4871 24.3609 67.5435 24.3468C67.8818 24.2693 67.2687 23.4659 66.6204 23.1418C66.4724 23.0643 66.3596 22.9867 66.3737 22.9656C66.4231 22.874 67.7338 22.9304 68.2975 23.0502C68.6358 23.1206 68.9035 23.1629 68.8965 23.1347C68.8754 23.0643 67.5999 22.7824 66.712 22.6485C66.2539 22.5851 65.8523 22.4794 65.817 22.43C65.6973 22.2468 66.3315 22.0707 67.3251 22.0143C67.8677 21.979 68.368 21.9368 68.4455 21.9227C68.6921 21.8593 68.0509 21.7042 67.7831 21.7606C67.6422 21.7888 67.4589 21.8029 67.3673 21.7888C67.1912 21.7606 67.0643 21.4999 67.2123 21.4646C67.3532 21.4364 68.3257 21.4928 68.8331 21.5633C69.4673 21.6549 69.8408 21.5633 69.7773 21.3167C69.7351 21.1757 69.6294 21.1334 69.3193 21.1546C69.0374 21.1687 68.8824 21.1193 68.8119 20.9995C68.7274 20.8586 68.6569 20.8445 68.4173 20.9432C68.1495 21.0559 67.6844 21.063 67.1207 20.9573C67.0079 20.9361 66.6133 20.8727 66.2539 20.8163C65.5704 20.7106 65.3308 20.5415 65.8593 20.5345C66.106 20.5345 66.1482 20.5063 66.0707 20.3935C65.9439 20.2174 66.5922 19.6747 67.1066 19.5127C67.311 19.4492 67.7761 19.2801 68.1495 19.1321C68.7626 18.8855 70.3834 18.5614 70.8203 18.5895C70.9189 18.5895 70.9894 18.5614 70.9753 18.512C70.9401 18.3852 70.2495 18.4486 68.6499 18.7305C67.5435 18.9278 67.3039 18.9419 67.4026 18.815C67.5153 18.6741 67.5012 18.66 67.2898 18.6459C67.163 18.6459 66.8882 18.6741 66.6768 18.7164C66.3174 18.7939 66.0355 18.7164 65.9791 18.5261C65.965 18.4768 66.4653 18.3359 67.0855 18.209C67.7056 18.0822 68.2411 17.9412 68.2623 17.899C68.2834 17.8567 68.1918 17.8426 68.0509 17.8778C67.9099 17.913 67.6563 17.899 67.4942 17.8496C66.9727 17.7087 65.359 17.8496 63.9074 18.1738C63.1393 18.3429 62.2302 18.4838 61.8708 18.4838C61.5115 18.4838 61.3071 18.4627 61.4198 18.4345C61.6313 18.3781 62.0047 17.913 61.9624 17.7651C61.9272 17.6523 60.7081 18.054 60.7011 18.1738C60.694 18.3006 60.4333 18.35 60.3981 18.2231C60.384 18.1667 60.2571 18.1526 60.1162 18.1949L59.8625 18.2654L60.1232 18.2936C60.3699 18.3218 60.3628 18.3218 60.081 18.3993C59.9118 18.4416 59.7639 18.4275 59.7498 18.3711C59.7357 18.3077 59.6441 18.3077 59.5524 18.3711C59.4608 18.4275 59.3692 18.4345 59.3551 18.3852C59.341 18.3359 59.2283 18.3359 59.1085 18.3922C58.9887 18.4486 58.7632 18.4838 58.6082 18.4838L58.3263 18.4697L58.6011 18.209C58.7491 18.0681 59.0098 17.913 59.179 17.8778C59.3904 17.8285 59.4679 17.758 59.4397 17.6523C59.4045 17.5325 59.482 17.4832 59.8061 17.4409C60.1232 17.3916 60.2501 17.4268 60.3699 17.5819C60.6658 17.9694 60.8772 17.7369 60.7222 17.1802C60.6236 16.8067 60.7434 16.4614 60.997 16.405C61.0957 16.3839 61.3 16.2289 61.4551 16.0527C61.7229 15.7638 61.7933 15.7356 62.653 15.6158C63.1534 15.5453 63.8439 15.4608 64.1892 15.4255C64.6402 15.3762 64.7812 15.3339 64.7107 15.2635C64.5839 15.1366 64.8094 15.0873 65.1899 15.1507C65.352 15.1789 65.5493 15.193 65.6338 15.1859C65.7113 15.1859 66.0566 15.193 66.3949 15.2212C66.7331 15.2494 67.0925 15.2775 67.1841 15.2846C67.2969 15.2916 67.3462 15.2423 67.318 15.1507C67.2898 15.045 67.0784 15.0098 66.6063 15.0309C65.7395 15.0732 65.3872 14.9393 66.1341 14.8618C66.4301 14.8336 67.163 14.7209 67.762 14.6081C68.3609 14.5024 69.0868 14.4178 69.3757 14.4178C69.8126 14.4178 69.9394 14.3826 70.1861 14.1712C70.3693 14.0162 70.6582 13.8893 70.9753 13.833C71.3911 13.7625 71.5038 13.6991 71.6307 13.4665C71.8561 13.0508 71.6307 12.8957 70.933 12.9732C70.6159 13.0085 69.9253 13.0085 69.3898 12.9732C68.8542 12.938 68.22 12.9098 67.9734 12.9098C67.5928 12.9098 65.1476 13.1353 64.9221 13.1776C64.8798 13.1847 64.8587 13.1353 64.8798 13.0719C64.901 12.9873 64.8094 12.9873 64.5627 13.093C64.3725 13.1706 63.5198 13.3185 62.6671 13.4172C61.8145 13.5159 60.9054 13.6286 60.6377 13.6638C59.94 13.7484 59.6934 13.7413 59.7286 13.6145C59.7427 13.5511 59.8484 13.4806 59.9682 13.4595C60.2501 13.3961 60.3487 13.1776 60.2571 12.8464C60.1514 12.4729 60.3276 12.4447 61.6031 12.6561C62.1598 12.7477 62.1668 12.7477 61.892 12.6068C61.7299 12.5293 61.5678 12.4659 61.5255 12.4729L61.4198 12.3743C61.3987 12.2968 61.7299 12.2051 62.5544 12.0713C63.1956 11.9656 64.161 11.7964 64.6896 11.6978C65.6761 11.5146 66.0778 11.5216 65.7748 11.726C65.6761 11.7894 65.8664 11.8035 66.2539 11.7542C66.6063 11.7119 67.0784 11.7189 67.3039 11.7682C67.5294 11.8176 67.7972 11.8458 67.9029 11.8317C68.0086 11.8176 68.1848 11.7894 68.2975 11.7753C68.4103 11.7612 68.7203 11.8317 68.9951 11.9444C69.277 12.0572 69.5166 12.0994 69.5518 12.0431C69.6364 11.8951 69.1008 10.979 68.9458 11.0072C68.6851 11.0636 68.7485 10.7183 69.0445 10.4928C69.2136 10.3659 69.4602 10.1193 69.5871 9.94313C69.8337 9.61897 70.0945 9.5626 70.172 9.82333C70.1931 9.90085 70.2636 9.98541 70.327 10.0065C70.5595 10.0911 70.3622 9.83038 69.9817 9.55555C69.4673 9.18207 69.2206 9.1257 68.0156 9.10456C66.6133 9.07637 65.2956 8.92839 64.5416 8.70994C63.8933 8.51967 63.6678 8.35055 64.0765 8.35055C65.1828 8.3576 66.1482 8.40693 66.3174 8.44921C66.4442 8.48444 66.5429 8.4633 66.5781 8.39283C66.6768 8.20962 66.2962 7.815 65.9932 7.77271L65.7254 7.73748L65.9439 7.5754C66.0637 7.4838 66.1764 7.364 66.1905 7.30763C66.2469 7.09622 66.0144 6.90596 65.7677 6.96233C65.2322 7.07508 63.6325 6.86368 63.2309 6.61704C63.0124 6.48315 62.6812 6.3845 62.4698 6.39154C62.2655 6.39859 62.0611 6.36336 62.0118 6.31403C61.9554 6.25765 62.047 6.22242 62.2796 6.21537C62.7024 6.20128 62.7094 6.06034 62.2866 5.89122C62.1245 5.8278 62.0047 5.75733 62.0188 5.72915C62.0611 5.65868 63.8439 5.79961 64.0131 5.89122C64.0906 5.9335 64.2667 5.91941 64.3936 5.85599C64.5909 5.76438 66.1482 5.85599 66.8952 6.00397C67.0079 6.02511 67.0714 5.99692 67.0502 5.92646C67.0291 5.86303 66.9375 5.80666 66.8388 5.79257C66.7402 5.77847 66.4653 5.72915 66.2328 5.67982C66.0003 5.63049 65.5915 5.59526 65.3308 5.6023C64.7812 5.6164 64.6755 5.50365 64.9855 5.23587C65.1194 5.12312 65.1969 4.92581 65.1899 4.72145C65.1758 4.33388 65.3731 4.24227 66.113 4.27046C66.3808 4.28455 66.6063 4.24932 66.6204 4.19999C66.6345 4.15066 66.5217 3.96745 66.3808 3.79128C66.1976 3.56578 66.0285 3.46712 65.81 3.46008C65.6409 3.46008 65.4365 3.36847 65.359 3.26981C65.2533 3.13593 65.1194 3.10774 64.8446 3.15707C64.2879 3.25572 63.4282 3.16411 62.8856 2.94566C61.9061 2.55104 58.3263 2.36783 57.1072 2.65674C56.931 2.69902 56.6985 2.61446 56.3532 2.39601C55.874 2.08595 55.8317 2.07891 55.423 2.22689C55.1905 2.31145 54.6902 2.41011 54.3167 2.43829C53.9432 2.46648 52.8369 2.62856 51.8714 2.79063C50.899 2.95271 49.3839 3.15707 48.5031 3.24163C47.6222 3.32619 46.3186 3.50236 45.6139 3.6292C43.225 4.05201 42.5626 4.13657 42.5274 4.03087C42.4922 3.90403 46.1001 3.24163 48.2212 2.9809C48.7779 2.91043 49.9054 2.7554 50.7228 2.6356C51.5402 2.51581 52.3365 2.40306 52.4986 2.38192C52.6607 2.36783 53.7811 2.13528 55.0002 1.87455C56.2193 1.61382 57.8189 1.3249 58.5659 1.24034C59.3129 1.15578 60.3417 0.986654 60.8561 0.873905C62.3853 0.528612 62.498 0.486331 62.4416 0.303115C62.3712 0.0705706 61.4621 -0.119693 60.9548 -0.0139909C58.5941 0.507472 56.7337 0.810484 56.7337 0.676595C56.7337 0.613174 57.1636 0.479285 57.8401 0.345396C59.1508 0.0776174 58.8407 0.0212431 57.1354 0.218553C56.5294 0.289021 55.9586 0.324255 55.8599 0.303115C55.7613 0.274928 54.9579 0.394723 54.0771 0.556799C52.3013 0.895045 50.0393 1.24034 48.7568 1.36718C48.2987 1.41651 47.0092 1.62791 45.8958 1.84636C44.7542 2.06481 43.8029 2.20575 43.7183 2.16347C43.6337 2.12119 43.5703 2.01549 43.5774 1.93092C43.5844 1.80408 43.5351 1.79703 43.3025 1.91683C43.1475 1.99434 42.8938 2.093 42.7388 2.13528C42.5838 2.17756 42.4287 2.24803 42.3865 2.29031C42.1892 2.50876 41.4704 2.71312 37.806 3.57283L33.8598 4.49596L33.8457 4.5171C33.7189 4.48186 33.5991 4.44663 33.4652 4.41844C32.6267 4.68622 32.0488 4.82011 32.077 4.73555C32.0911 4.67213 32.0277 4.64394 31.9361 4.66508C31.8445 4.68622 31.4146 4.74964 30.9848 4.81306C30.4492 4.89058 30.1955 4.96104 30.1744 5.05265C30.1532 5.12312 30.0616 5.20064 29.97 5.22178C29.8714 5.24292 29.7938 5.32043 29.7938 5.39795C29.7938 5.4966 29.7516 5.51069 29.6247 5.44727C29.4485 5.35567 27.9687 5.57412 28.004 5.67982C28.0462 5.81371 27.5882 5.94055 27.5036 5.82075C27.4473 5.74324 27.2781 5.72915 27.0667 5.78552C26.7496 5.87008 26.7355 5.87713 26.9751 5.91236C27.1372 5.9335 26.7919 6.02511 26.052 6.16605C25.4037 6.28584 24.8329 6.34926 24.7906 6.29993L24.6145 6.31403C24.5651 6.3704 24.1282 6.45496 23.642 6.51134C22.9725 6.58885 22.7471 6.64523 22.7189 6.75093C22.6907 6.84958 22.4652 6.92005 21.8521 7.00461C21.2672 7.08213 20.9924 7.15964 20.9219 7.26535C20.8444 7.37809 20.7317 7.39219 20.4146 7.32877C20.1891 7.28649 19.724 7.29353 19.3857 7.34991C19.0404 7.40628 18.6317 7.43447 18.4696 7.40628C18.3076 7.37809 18.0398 7.39219 17.8707 7.42742C17.7015 7.46266 17.2858 7.46266 16.9546 7.42742C16.6163 7.38514 16.2499 7.37809 16.1372 7.39923C16.0244 7.42037 15.8905 7.39923 15.8412 7.35695C15.7919 7.30763 15.8412 7.25125 15.9539 7.22306C16.0667 7.19488 16.116 7.14555 16.0737 7.10327C16.0315 7.06099 15.8271 7.07508 15.6227 7.13146C15.4184 7.18783 15.2422 7.20897 15.2352 7.17374C15.2281 7.1385 14.8969 6.98347 14.5093 6.83549C14.009 6.63818 13.7483 6.58885 13.6144 6.65932C13.5017 6.72274 13.2691 6.70865 13.0295 6.63113C12.8111 6.56067 12.5785 6.51134 12.5081 6.52543C12.4376 6.53953 12.2544 6.4902 12.0923 6.40564C11.74 6.23651 11.6695 6.23651 11.7259 6.42678C11.747 6.50429 12.0148 6.7016 12.3107 6.87073C12.7406 7.11032 12.8534 7.22306 12.8534 7.39923C12.8534 7.56836 12.797 7.61768 12.6279 7.59654C12.5081 7.58245 12.3319 7.59655 12.2403 7.61769C12.1487 7.64587 12.0641 7.61768 12.05 7.56836C12.0359 7.51198 11.895 7.52608 11.7188 7.61064C11.5497 7.68815 11.2467 7.73043 11.0494 7.70929C10.6618 7.66701 10.5138 7.51198 10.7957 7.44856C10.9014 7.42742 10.845 7.37809 10.6336 7.32172C10.4574 7.27239 10.2179 7.17374 10.0981 7.11032C9.88665 6.99052 9.36519 6.96233 8.64642 7.0328C8.26589 7.06804 8.26589 7.07508 8.59709 7.08918C9.04104 7.11032 9.49908 7.32172 9.60478 7.55426C9.64706 7.65292 9.75276 7.75862 9.83028 7.77976C9.90779 7.80795 10.084 7.87842 10.2108 7.94888C10.4363 8.06163 10.4152 8.07573 9.91484 8.1321C8.54776 8.29418 8.4632 8.30827 9.21016 8.28713C9.64706 8.27304 10.5772 8.19552 11.2819 8.11801C12.191 8.01935 12.6913 8.01231 13.0013 8.09687C13.5651 8.2519 13.7272 8.21666 13.3607 8.01935L13.0788 7.86432H13.3819C13.5439 7.86432 13.8399 7.85728 14.0231 7.84318C14.2134 7.82909 14.5023 7.89956 14.6644 7.99117C15.1013 8.2378 16.0455 8.5831 16.1935 8.55491C16.264 8.54082 16.3345 8.57605 16.3486 8.63242L16.264 8.69584L16.0596 8.75927C15.9962 8.82973 16.0455 8.86497 16.2217 8.87906C16.3908 8.88846 16.3885 8.91664 16.2147 8.96362C16.0737 8.99886 15.8694 8.97772 15.7707 8.9143C15.5523 8.77336 14.9744 8.87201 15.1224 9.02C15.1858 9.07637 15.1647 9.1116 15.0731 9.09751C14.9956 9.08342 14.9251 9.02704 14.9181 8.95658C14.9181 8.89316 14.8687 8.85087 14.8124 8.85792L14.7419 8.96362C14.756 9.0059 14.6291 9.05523 14.46 9.06932C14.2416 9.08342 14.1852 9.05523 14.2557 8.97772C14.3332 8.89315 14.312 8.87201 14.1711 8.90725C14.0654 8.92839 13.8188 8.89316 13.6215 8.81564C13.1986 8.66766 13.0859 8.66766 13.2903 8.81564C13.3678 8.87906 13.4171 8.96362 13.3889 9.0059L13.4594 9.06228C13.5228 9.04818 13.7412 9.16093 13.9527 9.31596C14.1641 9.47099 14.4248 9.60488 14.5375 9.61193C14.7983 9.64011 14.8405 9.80219 14.608 9.85857C14.5093 9.87971 14.3543 9.82333 14.2627 9.72468C14.0795 9.52032 13.9033 9.52737 13.9667 9.73877C14.002 9.85857 13.9527 9.87971 13.7412 9.84447C13.5933 9.82333 13.2127 9.85857 12.8886 9.92903C12.5715 9.9995 12.1487 10.0488 11.9514 10.0418C11.7541 10.0347 11.4369 10.0206 11.2396 10.0065C10.8732 9.99245 9.38633 9.47804 9.3511 9.3512C9.32996 9.28778 10.2319 9.24549 10.8521 9.27368C11.0071 9.28073 11.1198 9.24549 11.1057 9.19617C11.0635 9.04818 7.91355 9.11865 7.87127 9.27368C7.85718 9.32301 8.01221 9.3371 8.20247 9.31596C8.69575 9.25254 8.81554 9.47099 8.35045 9.59079L7.99107 9.68239L8.33636 9.6683C8.54072 9.66125 8.70984 9.71763 8.75917 9.80924C8.82259 9.94313 8.77326 9.96427 8.3575 9.97131C7.44142 9.98541 6.83539 9.90789 6.34212 9.71058C5.73609 9.46394 5.53174 9.47804 6.00387 9.73172C6.19413 9.83743 6.3844 9.90789 6.42668 9.90085C6.46896 9.8938 6.52533 9.95017 6.54647 10.0347C6.58171 10.1475 6.52533 10.1827 6.31393 10.1827C6.1589 10.1827 5.98273 10.1475 5.92636 10.1123C5.86294 10.077 5.67972 10.077 5.51764 10.1123C5.13712 10.1968 3.88279 10.0418 3.24857 9.83038C2.97375 9.73877 2.69893 9.69649 2.64255 9.73877C2.57913 9.7881 2.60027 9.80219 2.70597 9.7881C2.79758 9.774 2.88214 9.79514 2.89624 9.84447C2.93147 9.95722 1.83922 9.95722 1.42346 9.84447C0.993601 9.72468 0.901993 9.74582 0.887899 9.97131C0.866759 10.2532 1.16272 10.373 2.25498 10.5139C2.81872 10.5844 3.42474 10.6689 3.61501 10.6901C3.80527 10.7183 3.9603 10.8028 3.96735 10.8804C3.97439 10.9579 4.05191 11.0354 4.12942 11.0424C4.23513 11.0565 4.24217 11.0142 4.16466 10.9015C4.07305 10.7676 4.09419 10.7465 4.28445 10.7535C4.4113 10.7535 5.24986 10.7465 6.15185 10.7183C8.98466 10.6337 9.87256 10.6408 10.2249 10.7676C10.6266 10.9085 10.7675 10.8944 10.5702 10.7465C10.4574 10.6549 10.5913 10.6267 11.3312 10.5703C12.6067 10.4716 13.1211 10.528 13.3114 10.7817C13.4664 10.9861 13.4946 10.9861 14.2698 10.7465C14.8687 10.5562 15.0942 10.528 15.1788 10.6055C15.2422 10.6689 15.3691 10.7042 15.4607 10.6901C15.5946 10.6689 15.6016 10.6408 15.4818 10.5492C15.362 10.4575 15.3761 10.4223 15.5734 10.38C15.7073 10.3518 15.8553 10.3659 15.8976 10.4153C15.9469 10.4646 16.116 10.4716 16.2851 10.4364C16.7573 10.3307 16.4472 10.5703 15.7284 10.8522C15.3832 10.9861 14.9956 11.1199 14.8617 11.1411C14.7278 11.1622 14.5164 11.2397 14.3896 11.3173C14.2063 11.4159 14.1429 11.4159 14.1077 11.2961C14.0513 11.0918 13.9033 11.1411 13.6637 11.43C13.5087 11.6203 13.3396 11.6907 12.8181 11.7682C12.3671 11.8387 12.1628 11.8246 12.1346 11.733C12.0782 11.5287 11.8457 11.4934 11.8104 11.6766C11.7681 11.8739 11.141 11.9867 10.3447 11.9374C10.0628 11.9233 9.52727 11.9233 9.14674 11.9374C8.76621 11.9585 8.37159 11.9233 8.26589 11.8599C8.08972 11.7612 7.5894 11.733 6.72969 11.7753C6.44782 11.7894 6.20118 11.6837 5.67972 11.3384C4.99618 10.8804 4.79182 10.8381 5.31328 11.2609C5.46831 11.3807 5.57402 11.5075 5.55992 11.5357C5.54583 11.5639 5.11597 11.5357 4.61565 11.4793C4.10828 11.4159 3.60796 11.3877 3.50226 11.4159C3.39656 11.437 3.17106 11.4159 2.99489 11.3736C2.67074 11.282 2.06471 11.3525 2.33249 11.4582C2.41001 11.4864 2.22679 11.5427 1.92378 11.585C1.4305 11.6485 1.38822 11.6766 1.52916 11.7823C1.62077 11.8528 1.90968 11.9162 2.17042 11.9303C2.43115 11.9444 2.74825 11.9726 2.861 12.0008C3.10059 12.0572 3.92507 12.0642 4.36901 12.0219C4.92571 11.9656 5.86998 12.0219 5.74314 12.1135C5.37671 12.3602 5.15121 12.4025 4.70726 12.3108C4.43948 12.2545 4.22103 12.2474 4.22103 12.3038C4.22103 12.3602 4.0801 12.4166 3.91097 12.4377C3.74185 12.4588 3.69252 12.487 3.80527 12.4941C3.91802 12.5011 4.26331 12.5645 4.57337 12.635C4.88343 12.7055 5.31328 12.7478 5.52469 12.7407C6.14481 12.7055 6.01796 12.8394 5.33443 12.9521C4.98913 13.0085 4.72135 13.086 4.73545 13.1353C4.74954 13.1847 4.92571 13.1987 5.12302 13.1565C5.32738 13.1212 6.0532 13.1353 6.73674 13.1847C7.42732 13.234 8.06858 13.2622 8.16724 13.241C8.26589 13.2199 8.36455 13.2622 8.38569 13.3397C8.44206 13.544 8.69575 13.5581 9.60478 13.3961C10.9014 13.1706 11.8527 13.2058 11.7822 13.4736C11.7329 13.6497 8.583 13.833 7.77262 13.7061C7.2582 13.6286 6.91291 13.6356 6.48305 13.7484C6.14481 13.833 5.53174 13.8823 5.03846 13.8682C4.56633 13.8541 3.92507 13.84 3.60796 13.847C3.29086 13.847 2.76235 13.7766 2.4241 13.6779C2.08585 13.5793 1.76875 13.5299 1.71237 13.5652C1.656 13.6004 1.73351 13.6638 1.88854 13.7061C2.33249 13.833 3.14287 14.2346 3.10059 14.3121C3.07945 14.3474 2.87509 14.3544 2.64255 14.3262C2.05767 14.2487 1.94492 14.298 2.37477 14.446C2.57208 14.5165 2.74825 14.6151 2.76235 14.6715C2.83281 14.9252 4.56633 15.1507 5.722 15.0591C6.56057 14.9886 7.22297 14.9745 8.74507 14.9745C8.98466 14.9745 9.79505 14.9393 10.5491 14.897C10.7534 14.8829 10.9578 14.9182 11.0071 14.9604C11.0635 15.0168 10.9507 15.0591 10.6618 15.0732C10.4222 15.0873 9.88665 15.1507 9.46385 15.2212C8.49844 15.3762 8.26589 15.4044 7.47665 15.4396C7.12431 15.4537 6.3844 15.5453 5.83475 15.6369C5.2851 15.7285 4.58042 15.8342 4.27741 15.8765C3.97439 15.9118 3.72776 15.9681 3.7348 15.9963C3.74185 16.0245 3.92507 16.0809 4.13647 16.1232C4.53814 16.2007 4.92571 16.1584 4.82001 16.0527C4.78478 16.0175 5.1653 15.9118 5.67267 15.8202C6.68036 15.6299 7.00452 15.7074 7.0468 16.1302C7.06794 16.3205 7.11022 16.3557 7.30048 16.3134C7.42732 16.2852 7.75148 16.3134 8.01925 16.3698C8.38569 16.4544 8.48434 16.5107 8.40683 16.5953C8.35045 16.6587 8.23066 16.7292 8.15314 16.7503C8.06858 16.7715 7.94174 16.9195 7.85718 17.0815C7.77262 17.2436 7.65282 17.3916 7.57531 17.4127C7.50484 17.4268 7.4837 17.4832 7.53302 17.5255C7.65282 17.6453 7.57531 17.6523 7.13136 17.5607C6.57466 17.455 6.37735 17.5325 6.78607 17.6946L7.12431 17.8285L6.65218 17.9342C6.39144 17.9906 6.01092 17.9976 5.80656 17.9412C5.4965 17.8567 5.39785 17.7721 5.25691 17.455L5.08779 17.0674L5.1794 17.4409C5.23577 17.6664 5.22872 17.8285 5.15826 17.8426C4.96799 17.8849 4.37606 17.6453 3.86869 17.3141C3.60796 17.1449 3.24153 16.9547 3.05831 16.8913L2.72711 16.7785L3.12878 17.0322C3.56568 17.307 3.60796 17.5114 3.22743 17.5184C2.98784 17.5184 2.93852 17.6453 3.14992 17.7228C3.30495 17.7792 3.34018 17.9483 3.19925 17.9765C2.92442 18.0328 1.91673 17.7157 1.37413 17.3916C0.965414 17.1449 0.739917 17.0745 0.620121 17.1379C0.500326 17.2084 0.387577 17.1661 0.246641 17.004C0.133892 16.8772 0.0352374 16.7997 0.0211438 16.8278C-0.0281837 16.9265 0.443951 17.3845 0.838572 17.6171C1.39527 17.9412 1.8674 18.1245 2.1986 18.1315C2.50866 18.1385 2.62141 18.3077 2.36773 18.3781C2.12109 18.4416 2.81167 18.5332 4.05896 18.6036C6.53238 18.7375 6.85653 18.7657 6.87767 18.8503C6.89881 18.9348 6.76493 19.0123 6.58876 19.0123C6.53943 19.0123 6.42668 19.104 6.32802 19.2167C6.22937 19.3295 6.0391 19.4422 5.89817 19.4774C5.65858 19.5338 5.65858 19.5409 5.85589 19.6325C6.15185 19.7664 5.98978 19.8862 5.52469 19.8791C5.30624 19.8791 5.01027 19.9002 4.86934 19.9284C4.46062 20.02 3.45998 19.7241 2.72711 19.3083L2.05062 18.9207L2.53685 19.3013C2.80463 19.5127 3.19925 19.7523 3.4177 19.8439C3.63615 19.9355 3.82641 20.0553 3.84051 20.1187C3.88279 20.2596 4.21399 20.2808 4.67907 20.1821C4.86934 20.1398 5.09483 20.1539 5.18644 20.2103C5.27805 20.2667 5.43308 20.3231 5.53174 20.3442C5.97568 20.4147 5.58106 20.7952 5.08074 20.7811C4.87638 20.774 4.8482 20.8022 4.93276 20.922C4.98913 21.0066 4.98913 21.0771 4.93276 21.0912C4.59451 21.1687 5.20758 21.972 5.85589 22.2962C6.00387 22.3737 6.11662 22.4512 6.10253 22.4723C6.0532 22.5639 4.74249 22.5076 4.17875 22.3878C3.84051 22.3173 3.57273 22.275 3.57977 22.3032C3.60091 22.3737 4.87638 22.6555 5.76428 22.7894C6.22232 22.8528 6.62399 22.9586 6.65922 23.0079C6.77902 23.1911 6.14481 23.3673 5.15121 23.4236C4.60861 23.4589 4.10828 23.5012 4.03077 23.5152C3.78413 23.5787 4.42539 23.7337 4.69317 23.6773C4.8341 23.6491 5.01732 23.635 5.10893 23.6491C5.2851 23.6773 5.41194 23.9381 5.26396 23.9733C5.12302 24.0015 4.15056 23.9451 3.6432 23.8746C3.00898 23.783 2.6355 23.8746 2.69892 24.1213C2.74121 24.2622 2.84691 24.3045 3.15697 24.2833C3.43884 24.2693 3.59387 24.3186 3.66434 24.4384C3.7489 24.5793 3.81937 24.5934 4.05896 24.4948C4.32673 24.382 4.79182 24.375 5.35557 24.4807C5.46831 24.5018 5.86294 24.5652 6.22232 24.6216C6.90586 24.7273 7.14545 24.8964 6.61694 24.9035C6.3703 24.9035 6.32802 24.9317 6.40554 25.0444C6.53238 25.2206 5.88408 25.7632 5.36966 25.9253C5.1653 25.9887 4.70021 26.1578 4.32673 26.3058C3.71366 26.5524 2.0929 26.8766 1.656 26.8484C1.55734 26.8484 1.48688 26.8766 1.50097 26.9259C1.5362 27.0527 2.22679 26.9893 3.82641 26.7074C4.93276 26.5101 5.17235 26.496 5.07369 26.6229C4.96095 26.7638 4.97504 26.7779 5.18644 26.792C5.31328 26.792 5.58811 26.7638 5.79951 26.7215C6.1589 26.644 6.44077 26.7215 6.49715 26.9118C6.51124 26.9611 6.01092 27.1021 5.3908 27.2289C4.77068 27.3558 4.23513 27.4967 4.21399 27.539C4.19284 27.5812 4.28445 27.5953 4.42539 27.5601C4.56633 27.5249 4.82001 27.539 4.98209 27.5883C5.50355 27.7292 7.11726 27.5883 8.5689 27.2641C9.337 27.095 10.246 26.9541 10.6054 26.9541C10.9648 26.9541 11.1692 26.9752 11.0564 27.0034C10.845 27.0598 10.4715 27.5249 10.5138 27.6729C10.5491 27.7856 11.7681 27.3839 11.7752 27.2641C11.7822 27.1373 12.043 27.088 12.0782 27.2148C12.0923 27.2712 12.2191 27.2853 12.3601 27.243L12.6138 27.1725L12.353 27.1443C12.1064 27.1162 12.1134 27.1162 12.3953 27.0386C12.5644 26.9964 12.7124 27.0105 12.7265 27.0668C12.7406 27.1303 12.8322 27.1303 12.9238 27.0668C13.0154 27.0105 13.107 27.0034 13.1211 27.0527C13.1352 27.1021 13.248 27.1021 13.3678 27.0457C13.4876 26.9893 13.7131 26.9541 13.8681 26.9541L14.15 26.9682L13.8751 27.2289C13.7272 27.3698 13.4664 27.5249 13.2973 27.5601C13.0859 27.6094 13.0084 27.6799 13.0366 27.7856C13.0718 27.9054 12.9943 27.9547 12.6701 27.997C12.353 28.0463 12.2262 28.0111 12.1064 27.8561C11.8104 27.4685 11.599 27.701 11.7541 28.2577C11.8527 28.6312 11.7329 28.9765 11.4792 29.0329C11.3806 29.054 11.1762 29.2091 11.0212 29.3852C10.7534 29.6741 10.6829 29.7023 9.82323 29.8221C9.32291 29.8926 8.63233 29.9772 8.28703 30.0124C7.83604 30.0617 7.6951 30.104 7.76557 30.1745C7.89241 30.3013 7.66691 30.3506 7.28639 30.2872C7.12431 30.259 6.927 30.2449 6.84244 30.252C6.76492 30.252 6.41963 30.2449 6.08139 30.2167C5.74314 30.1886 5.38375 30.1604 5.29214 30.1533C5.1794 30.1463 5.13007 30.1956 5.15826 30.2872C5.18644 30.3929 5.39785 30.4282 5.86998 30.407C6.73674 30.3647 7.08908 30.4986 6.34212 30.5761C6.04615 30.6043 5.31328 30.7171 4.71431 30.8298C4.11533 30.9355 3.38951 31.0201 3.10059 31.0201C2.66369 31.0201 2.53685 31.0553 2.29021 31.2667C2.10699 31.4217 1.81808 31.5486 1.50097 31.605C1.08521 31.6754 0.972461 31.7389 0.845619 31.9714C0.620121 32.3872 0.845619 32.5422 1.54325 32.4647C1.86036 32.4294 2.55094 32.4294 3.0865 32.4647C3.62205 32.4999 4.25627 32.5281 4.5029 32.5281C4.88343 32.5281 7.32867 32.3026 7.55417 32.2603C7.59645 32.2533 7.61759 32.3026 7.59645 32.366C7.57531 32.4506 7.66691 32.4506 7.91355 32.3449C8.10382 32.2674 8.95648 32.1194 9.80914 32.0207C10.6618 31.9221 11.5708 31.8093 11.8386 31.7741C12.5362 31.6895 12.7829 31.6966 12.7477 31.8234C12.7336 31.8868 12.6279 31.9573 12.5081 31.9784C12.2262 32.0419 12.1275 32.2603 12.2191 32.5915C12.3248 32.965 12.1487 32.9932 10.8732 32.7818C10.3165 32.6902 10.3095 32.6902 10.5843 32.8311C10.7464 32.9086 10.9084 32.972 10.9507 32.965L11.0564 33.0637C11.0776 33.1412 10.7464 33.2328 9.92189 33.3667C9.28063 33.4724 8.31522 33.6415 7.78671 33.7401C6.80016 33.9234 6.39849 33.9163 6.7015 33.712C6.80016 33.6485 6.6099 33.6344 6.22232 33.6838C5.86998 33.7261 5.39785 33.719 5.17235 33.6697C4.94685 33.6203 4.67907 33.5922 4.57337 33.6063C4.46767 33.6203 4.2915 33.6485 4.17875 33.6626C4.066 33.6767 3.75594 33.6063 3.48112 33.4935C3.19925 33.3808 2.95966 33.3385 2.92442 33.3949C2.83986 33.5428 3.37542 34.4589 3.53045 34.4307C3.79118 34.3744 3.72776 34.7197 3.43179 34.9451C3.26267 35.072 3.01603 35.3186 2.88919 35.4948C2.64255 35.8189 2.38182 35.8753 2.3043 35.6146C2.28316 35.5371 2.2127 35.4525 2.14928 35.4314C1.91673 35.3468 2.11404 35.6075 2.49457 35.8824C3.00898 36.2558 3.25562 36.3122 4.46062 36.3334C5.86293 36.3616 7.18069 36.5095 7.93469 36.728C8.583 36.9182 8.80849 37.0874 8.39978 37.0874C7.29343 37.0803 6.32802 37.031 6.1589 36.9887C6.03206 36.9535 5.9334 36.9746 5.89817 37.0451C5.79951 37.2283 6.18004 37.6229 6.48305 37.6652L6.75083 37.7004L6.53238 37.8625C6.41259 37.9541 6.29984 38.0739 6.28574 38.1303C6.22937 38.3417 6.46191 38.532 6.70855 38.4756C7.24411 38.3628 8.84373 38.5742 9.2454 38.8209C9.46385 38.9548 9.79504 39.0534 10.0064 39.0464C10.2108 39.0393 10.4152 39.0746 10.4645 39.1239C10.5209 39.1803 10.4293 39.2155 10.1967 39.2225C9.7739 39.2366 9.76686 39.3776 10.1897 39.5467C10.3517 39.6101 10.4715 39.6806 10.4574 39.7088C10.4152 39.7792 8.63233 39.6383 8.4632 39.5467C8.38569 39.5044 8.20952 39.5185 8.08267 39.5819C7.88536 39.6735 6.32802 39.5819 5.58106 39.434C5.46831 39.4128 5.40489 39.441 5.42603 39.5115C5.44717 39.5749 5.53878 39.6313 5.63744 39.6454C5.73609 39.6595 6.01092 39.7088 6.24346 39.7581C6.47601 39.8074 6.88472 39.8427 7.14545 39.8356C7.6951 39.8215 7.8008 39.9343 7.49074 40.2021C7.35686 40.3148 7.27934 40.5121 7.28639 40.7165C7.30048 41.104 7.10317 41.1957 6.36326 41.1675C6.09548 41.1534 5.86998 41.1886 5.85589 41.2379C5.84179 41.2873 5.95454 41.4705 6.09548 41.6466C6.2787 41.8721 6.44782 41.9708 6.66627 41.9778C6.83539 41.9778 7.03975 42.0695 7.11726 42.1681C7.22297 42.302 7.35685 42.3302 7.63168 42.2809C8.18838 42.1822 9.04809 42.2738 9.59069 42.4923C10.5702 42.8869 14.15 43.0701 15.3691 42.7812C15.5452 42.7389 15.7778 42.8235 16.1231 43.0419C16.6022 43.352 16.6445 43.359 17.0532 43.211C17.2858 43.1265 17.7861 43.0278 18.1596 42.9996C18.5331 42.9714 19.6394 42.8094 20.6048 42.6473C21.5773 42.4852 23.0923 42.2809 23.9732 42.1963C24.854 42.1117 26.1577 41.9356 26.8624 41.8087C29.2512 41.3859 29.9136 41.3014 29.9489 41.4071C29.9841 41.5339 26.3761 42.1963 24.2551 42.457C23.6984 42.5275 22.5709 42.6825 21.7535 42.8023C20.936 42.9221 20.1397 43.0349 19.9777 43.056C19.8156 43.0701 18.6951 43.3026 17.476 43.5634C16.257 43.8241 14.6573 44.113 13.9104 44.1976C13.1634 44.2821 12.1346 44.4513 11.6202 44.564C10.091 44.9093 9.97826 44.9516 10.0346 45.1348C10.1051 45.3674 11.0141 45.5576 11.5215 45.4519C13.8822 44.9305 15.7425 44.6274 15.7425 44.7613C15.7425 44.8247 15.3127 44.9586 14.6362 45.0925C13.3255 45.3603 13.6355 45.4167 15.3409 45.2194C15.9469 45.1489 16.5177 45.1137 16.6163 45.1348C16.715 45.163 17.5183 45.0432 18.3992 44.8811C20.175 44.5429 22.437 44.1976 23.7195 44.0707C24.1775 44.0214 25.4671 43.81 26.5805 43.5916C27.7221 43.3731 28.6734 43.2322 28.758 43.2745C28.8425 43.3167 28.9059 43.4224 28.8989 43.507C28.8919 43.6338 28.9412 43.6409 29.1737 43.5211C29.3288 43.4436 29.5824 43.3449 29.7375 43.3026C29.8925 43.2604 30.0475 43.1899 30.0898 43.1476C30.2871 42.9292 31.0059 42.7248 34.6702 41.8651L38.6164 40.942L38.6305 40.9208C38.7574 40.9561 38.8772 40.9913 39.011 41.0195C39.8496 40.7517 40.4275 40.6178 40.3993 40.7024C40.3852 40.7658 40.4486 40.794 40.5402 40.7728C40.6318 40.7517 41.0617 40.6883 41.4915 40.6249C42.0271 40.5473 42.2808 40.4769 42.3019 40.3853C42.323 40.3148 42.4146 40.2373 42.5063 40.2161C42.6049 40.195 42.6824 40.1175 42.6824 40.04C42.6824 39.9413 42.7247 39.9272 42.8516 39.9907C43.0277 40.0823 44.5075 39.8638 44.4723 39.7581C44.43 39.6242 44.8881 39.4974 44.9726 39.6172C45.029 39.6947 45.1981 39.7088 45.4095 39.6524C45.7266 39.5678 45.7407 39.5608 45.5011 39.5256C45.3391 39.5044 45.6844 39.4128 46.4243 39.2719C47.0726 39.1521 47.6434 39.0887 47.6856 39.138L47.8618 39.1239C47.9111 39.0675 48.348 38.983 48.8343 38.9266C49.5037 38.8491 49.7292 38.7927 49.7574 38.687C49.7856 38.5883 50.0111 38.5179 50.6242 38.4333C51.209 38.3558 51.4839 38.2783 51.5543 38.1726C51.6319 38.0598 51.7446 38.0457 52.0617 38.1092C52.2872 38.1514 52.7523 38.1444 53.0905 38.088C53.4358 38.0316 53.8445 38.0035 54.0066 38.0316C54.1687 38.0598 54.4365 38.0457 54.6056 38.0105C54.7747 37.9753 55.1905 37.9753 55.5217 38.0105C55.8599 38.0528 56.2264 38.0598 56.3391 38.0387C56.4519 38.0175 56.5858 38.0387 56.6351 38.081C56.6844 38.1303 56.6351 38.1867 56.5223 38.2149C56.4096 38.243 56.3602 38.2924 56.4025 38.3347C56.4448 38.3769 56.6492 38.3628 56.8535 38.3065C57.0579 38.2501 57.2341 38.229 57.2411 38.2642C57.2481 38.2994 57.5793 38.4544 57.9669 38.6024C58.4672 38.7997 58.728 38.8491 58.8619 38.7786C58.9746 38.7152 59.2072 38.7293 59.4467 38.8068C59.6652 38.8773 59.8977 38.9266 59.9682 38.9125C60.0387 38.8984 60.2219 38.9477 60.384 39.0323C60.7363 39.2014 60.8068 39.2014 60.7504 39.0111C60.7293 38.9336 60.4615 38.7363 60.1655 38.5672C59.7357 38.3276 59.6229 38.2149 59.6229 38.0387C59.6229 37.8696 59.6793 37.8202 59.8484 37.8414C59.9682 37.8555 60.1444 37.8414 60.236 37.8202C60.3276 37.792 60.4122 37.8202 60.4263 37.8696C60.4403 37.9259 60.5813 37.9118 60.7575 37.8273C60.9266 37.7498 61.2296 37.7075 61.4269 37.7286C61.8145 37.7709 61.9624 37.9259 61.6806 37.9894C61.5749 38.0105 61.6313 38.0598 61.8427 38.1162C62.0188 38.1655 62.2584 38.2642 62.3782 38.3276C62.5896 38.4474 63.1111 38.4756 63.8298 38.4051C64.2104 38.3699 64.2104 38.3628 63.8792 38.3487C63.4352 38.3276 62.9772 38.1162 62.8715 37.8837C62.8292 37.785 62.7235 37.6793 62.646 37.6582C62.5685 37.63 62.3923 37.5595 62.2655 37.489C62.04 37.3763 62.0611 37.3622 62.5614 37.3058C63.9285 37.1437 64.0131 37.1297 63.2661 37.1508C62.8292 37.1649 61.899 37.2424 61.1943 37.3199C60.2853 37.4186 59.785 37.4256 59.4749 37.3411C58.9112 37.186 58.7491 37.2213 59.1155 37.4186L59.3974 37.5736H59.0944C58.9323 37.5736 58.6364 37.5806 58.4531 37.5947C58.2629 37.6088 57.974 37.5384 57.8119 37.4468C57.375 37.2001 56.4307 36.8548 56.2827 36.883C56.2123 36.8971 56.1418 36.8619 56.1277 36.8055L56.2123 36.7421L56.4166 36.6787C56.48 36.6082 56.4307 36.573 56.2545 36.5589C56.0854 36.5495 56.0878 36.5213 56.2616 36.4743C56.4025 36.4391 56.6069 36.4602 56.7055 36.5236C56.924 36.6646 57.5018 36.5659 57.3538 36.4179C57.2904 36.3616 57.3116 36.3263 57.4032 36.3404C57.4807 36.3545 57.5512 36.4109 57.5582 36.4813C57.5582 36.5448 57.6075 36.587 57.6639 36.58L57.7344 36.4743C57.7203 36.432 57.8471 36.3827 58.0162 36.3686C58.2347 36.3545 58.2911 36.3827 58.2206 36.4602C58.1431 36.5448 58.1642 36.5659 58.3052 36.5307C58.4109 36.5095 58.6575 36.5448 58.8548 36.6223C59.2776 36.7703 59.3904 36.7703 59.186 36.6223C59.1085 36.5589 59.0592 36.4743 59.0874 36.432L59.0169 36.3756C58.9535 36.3897 58.735 36.277 58.5236 36.122C58.3122 35.9669 58.0515 35.833 57.9387 35.826C57.678 35.7978 57.6357 35.6357 57.8683 35.5794C57.9669 35.5582 58.1219 35.6146 58.2136 35.7132C58.3968 35.9176 58.5729 35.9106 58.5095 35.6992C58.4743 35.5794 58.5236 35.5582 58.735 35.5934C58.883 35.6146 59.2635 35.5794 59.5877 35.5089C59.9048 35.4384 60.3276 35.3891 60.5249 35.3961C60.7222 35.4032 61.0393 35.4173 61.2366 35.4314C61.6031 35.4455 63.0899 35.9599 63.1252 36.0867C63.1463 36.1501 62.2443 36.1924 61.6242 36.1642C61.4692 36.1572 61.3564 36.1924 61.3705 36.2418C61.4128 36.3897 64.5627 36.3193 64.605 36.1642C64.6191 36.1149 64.4641 36.1008 64.2738 36.122C63.7805 36.1854 63.6607 35.9669 64.1258 35.8471L64.4852 35.7555L64.1399 35.7696C63.9356 35.7767 63.7664 35.7203 63.7171 35.6287C63.6537 35.4948 63.703 35.4737 64.1188 35.4666C65.0349 35.4525 65.6409 35.53 66.1341 35.7273C66.7402 35.974 66.9445 35.9599 66.4724 35.7062C66.2821 35.6005 66.0919 35.53 66.0496 35.5371C66.0073 35.5441 65.9509 35.4878 65.9298 35.4032C65.8946 35.2904 65.9509 35.2552 66.1623 35.2552C66.3174 35.2552 66.4935 35.2904 66.5499 35.3257C66.6133 35.3609 66.7965 35.3609 66.9586 35.3257C67.3391 35.2411 68.5935 35.3961 69.2277 35.6075C69.5025 35.6992 69.7773 35.7414 69.8337 35.6992C69.8971 35.6498 69.876 35.6357 69.7703 35.6498C69.6787 35.6639 69.5941 35.6428 69.58 35.5934C69.5448 35.4807 70.6371 35.4807 71.0528 35.5934C71.4827 35.7132 71.5743 35.6921 71.5884 35.4666ZM64.7459 7.32877C64.7953 7.32172 64.8516 7.37809 64.8728 7.45561C64.8939 7.54017 64.8516 7.61769 64.7812 7.63883C64.6966 7.65997 64.6473 7.60359 64.6543 7.51198C64.6543 7.42037 64.7037 7.34286 64.7459 7.32877ZM64.1117 8.11096C64.161 8.16029 64.0976 8.22371 63.9567 8.2519C63.8228 8.28008 63.703 8.25894 63.6889 8.20962C63.6748 8.15324 63.7453 8.08982 63.8439 8.06868C63.9426 8.04754 64.0624 8.06868 64.1117 8.11096ZM63.7735 7.44856C63.8792 7.42742 63.9708 7.44856 63.9919 7.50494C64.0131 7.56131 63.9356 7.62473 63.8298 7.64587C63.7241 7.66701 63.6325 7.64587 63.6114 7.5895C63.5973 7.53312 63.6678 7.4697 63.7735 7.44856ZM15.4113 8.13915C15.3056 8.03345 15.3972 8.01935 15.9398 8.06868C16.2147 8.08982 16.3556 8.14619 16.2992 8.20257C16.2006 8.31532 15.5382 8.26599 15.4113 8.13915ZM9.02695 9.90789C8.83668 9.774 8.82259 9.74582 8.94943 9.71763C9.02695 9.69649 9.16083 9.73877 9.2454 9.80219C9.48499 9.98541 9.28063 10.0911 9.03399 9.90789H9.02695ZM14.2909 10.6267C14.1852 10.6478 14.0865 10.6267 14.0724 10.5703C14.0584 10.5139 14.1077 10.4575 14.1782 10.4434C14.2557 10.4294 14.3543 10.4505 14.3966 10.4998C14.4459 10.5492 14.3966 10.6055 14.2909 10.6267ZM15.7284 9.44985C15.1858 9.40757 15.0731 9.25254 15.5593 9.20321C15.7919 9.18207 16.0103 9.18207 16.0455 9.20321C16.2217 9.31596 16.0244 9.46394 15.7284 9.4428V9.44985ZM7.70215 38.1514C7.65282 38.1585 7.59645 38.1021 7.57531 38.0246C7.55417 37.94 7.59645 37.8625 7.66691 37.8414C7.75148 37.8202 7.8008 37.8766 7.79376 37.9682C7.79376 38.0598 7.74443 38.1373 7.70215 38.1514ZM8.33636 37.3692C8.28703 37.3199 8.35045 37.2565 8.49139 37.2283C8.62528 37.2001 8.74507 37.2213 8.75917 37.2706C8.77326 37.3199 8.70279 37.3904 8.60414 37.4115C8.50548 37.4327 8.38569 37.4115 8.33636 37.3692ZM8.67461 38.0316C8.5689 38.0528 8.47729 38.0316 8.45615 37.9753C8.44206 37.9189 8.51253 37.8555 8.61823 37.8343C8.72393 37.8132 8.81554 37.8343 8.83668 37.8907C8.85077 37.9471 8.78031 38.0105 8.67461 38.0316ZM56.1348 34.5787C55.7401 34.7831 55.6485 34.8042 55.6133 34.6774C55.5921 34.6139 55.4864 34.5223 55.3807 34.466C55.1905 34.3814 55.1975 34.3673 55.3948 34.318C55.5146 34.2898 55.7895 34.3039 56.0079 34.3532L56.4025 34.4378L56.1418 34.5717L56.1348 34.5787ZM57.6287 33.261C57.2622 33.5992 57.2763 33.5922 57.1002 33.5217C57.0015 33.4865 57.079 33.3667 57.3679 33.1553C57.8542 32.7818 58.0585 32.8663 57.6287 33.261ZM61.2578 31.1892C61.0111 31.2597 61.0041 31.2738 61.1943 31.3231C61.4339 31.3795 58.9676 31.8798 58.6716 31.8305C58.5448 31.8093 58.5025 31.7318 58.4954 31.5204C58.4884 31.2808 58.5307 31.2315 58.7703 31.2103C58.9253 31.1963 59.2001 31.2244 59.3833 31.2808C59.7357 31.3865 60.7011 31.2808 60.4051 31.1751C60.1514 31.0835 60.4051 31.0412 61.0252 31.0835C61.4621 31.1117 61.4974 31.1258 61.2578 31.1963V31.1892ZM65.0208 26.7004C64.7953 26.7145 64.5275 26.7004 64.4218 26.6722C64.2033 26.6158 63.3366 26.5313 62.9208 26.5242C62.7305 26.5242 62.653 26.4819 62.6953 26.4044C62.7728 26.2635 64.0554 26.2776 64.3302 26.4256C64.4288 26.4749 64.6755 26.496 64.8869 26.4679C65.1053 26.4397 65.3026 26.4679 65.3449 26.5454C65.4083 26.6511 65.3449 26.6793 65.0137 26.7004H65.0208ZM64.0554 28.2296C64.0694 28.2789 63.7876 28.2789 63.4352 28.2366C63.0829 28.1943 62.7165 28.152 62.6319 28.145C62.5191 28.1379 62.5051 28.1098 62.5826 28.0604C62.7165 27.9688 64.0201 28.1168 64.0554 28.2296ZM66.0003 21.2673C66.2117 21.366 66.2117 21.3801 65.9157 21.4435C65.7184 21.4928 65.6056 21.4717 65.6056 21.3942C65.6056 21.1969 65.7536 21.1546 66.0003 21.2673ZM64.9644 24.3397C64.9503 24.1847 64.9714 23.9592 65.0137 23.8394C65.0912 23.628 65.1053 23.628 65.5281 23.7478C65.9791 23.8676 66.1341 24.0085 66.2328 24.3679C66.2892 24.5582 66.2399 24.5793 65.5352 24.6991C65.056 24.7837 64.7177 24.7907 64.6191 24.7203C64.4852 24.6286 64.4993 24.6145 64.7248 24.6145C64.9503 24.6145 64.9855 24.5793 64.9644 24.3327V24.3397ZM64.7812 23.8183C64.8657 24.1142 64.7812 24.2481 64.605 24.0719L64.4218 24.0085V24.1142C64.4641 24.1636 64.4429 24.2129 64.3795 24.227C64.2104 24.2622 63.5409 24.0156 63.5057 23.9028C63.3859 23.48 63.6819 23.3109 64.3231 23.4377C64.6261 23.4941 64.7037 23.5575 64.7741 23.8112L64.7812 23.8183ZM63.6537 21.3871C63.7171 21.3801 63.9285 21.3448 64.1117 21.3096C64.5486 21.2321 64.5698 21.4646 64.1399 21.6478C63.6184 21.8804 63.5973 21.8804 63.5621 21.6338C63.5409 21.5069 63.5832 21.3942 63.6466 21.3871H63.6537ZM60.9266 27.9759C61.1098 27.9336 61.2648 27.9477 61.286 28.0041C61.3001 28.0604 61.1662 28.1379 60.9829 28.1802C60.7997 28.2225 60.6447 28.2084 60.6236 28.152C60.6095 28.0957 60.7434 28.0182 60.9266 27.9759ZM60.5742 29.6248C61.0816 29.5191 61.5749 29.3711 61.6806 29.2936C61.8567 29.1738 61.8497 29.1597 61.5396 29.1597C61.2366 29.1597 61.2155 29.1456 61.3423 28.9906C61.5256 28.751 61.3705 28.6946 61.0957 28.892C60.9407 29.0047 60.8209 29.0329 60.7363 28.9765C60.4897 28.8215 60.7222 28.7158 61.744 28.5185C62.8081 28.3071 63.6819 28.2789 63.7805 28.441C63.8721 28.596 63.3295 29.1456 63.104 29.1245C62.9913 29.1104 62.9138 29.1456 62.9279 29.1879C62.949 29.2654 63.8721 29.4416 64.1892 29.4205C64.457 29.4064 65.1406 29.5896 65.1687 29.6882C65.1828 29.7446 64.9926 29.801 64.6825 29.8362C64.4006 29.8644 63.8862 29.9208 63.548 29.9631C63.2027 30.0053 62.8926 30.0335 62.8574 30.0194C62.8222 30.0053 62.1527 30.111 61.3776 30.252C58.8619 30.703 58.7703 30.71 58.6927 30.4422C58.6364 30.2379 59.5243 29.8503 60.5813 29.6248H60.5742ZM58.3193 32.6408C58.4391 32.6549 58.8478 32.6056 59.2212 32.5351C60.2078 32.3519 61.596 32.2885 62.343 32.3942C62.4275 32.4083 62.2161 32.5351 61.8779 32.6831L61.2578 32.9509L61.892 32.8241C62.653 32.669 63.5973 32.6549 63.4634 32.7959C63.3929 32.8734 63.4 32.9086 63.4986 32.9439C63.7171 33.0214 63.8933 32.817 63.7805 32.6197C63.6537 32.4013 63.6325 32.4013 64.4147 32.4224C65.2744 32.4435 65.8875 32.5633 65.8805 32.7113C65.8805 32.7818 66.0778 32.8734 66.3244 32.9227C66.6838 32.9932 66.7543 33.0355 66.6627 33.1412C66.5288 33.2962 65.8946 33.3596 65.8029 33.2257C65.7677 33.1764 65.6056 33.1623 65.4436 33.1975C65.2815 33.2328 65.0208 33.1975 64.8657 33.1271C64.6614 33.0284 64.4852 33.0284 64.1963 33.1341C63.7312 33.3032 62.2936 33.4089 61.899 33.3032C61.744 33.261 61.3071 33.268 60.9195 33.3103C60.384 33.3737 60.2219 33.3596 60.2289 33.2469C60.243 33.0707 60.1162 33.0918 59.6793 33.3385C59.3763 33.5076 59.3199 33.5076 59.031 33.3385C58.7843 33.1834 58.6786 33.1764 58.5729 33.2821C58.425 33.4301 57.8542 33.4724 57.8189 33.3314C57.7696 33.1694 57.9528 33.0707 58.129 33.1623C58.3686 33.2892 58.4109 33.1623 58.2065 32.9298C57.9951 32.6972 58.0303 32.6127 58.3263 32.6408H58.3193ZM58.7421 29.6812C58.7421 29.6812 58.7703 29.801 58.735 29.8926C58.6646 30.0617 58.3968 30.1322 58.0797 30.0758C57.9951 30.0617 57.7978 30.0617 57.6498 30.0758C57.5018 30.0899 57.3679 30.0617 57.3538 30.0053C57.3327 29.9067 58.6152 29.6037 58.7421 29.6882V29.6812ZM58.8407 18.6389C58.9323 18.653 59.0874 18.6459 59.186 18.6248C59.2847 18.6036 59.3763 18.6248 59.3974 18.6812C59.4115 18.7375 59.2776 18.815 59.0944 18.8573C58.8548 18.9137 58.7562 18.8855 58.7209 18.7728C58.6927 18.6671 58.735 18.6248 58.8407 18.6389ZM55.7754 31.8375C55.9163 31.753 55.9656 31.753 55.9445 31.8375C55.9233 31.9221 56.0431 31.9291 56.3109 31.8727C56.6915 31.7882 56.6985 31.7741 56.48 31.6684C56.2616 31.5556 56.2616 31.5556 56.5223 31.5556C56.6703 31.5556 56.8042 31.5063 56.8183 31.4429C56.8324 31.3795 56.9169 31.316 57.0086 31.302C57.1072 31.2879 57.1284 31.302 57.0649 31.3513C57.0086 31.3936 56.9804 31.4922 57.0015 31.5627C57.0226 31.6402 56.9169 31.7529 56.7478 31.8234C56.2193 32.0489 55.9163 32.1476 55.7824 32.1405C55.7049 32.1405 55.5992 32.1405 55.5428 32.1617C55.3807 32.1969 55.5358 31.9855 55.7683 31.8446L55.7754 31.8375ZM55.5076 31.7389C55.4724 31.8798 55.12 31.9644 54.8945 31.8798C54.7747 31.8305 54.8311 31.7882 55.1271 31.7248C55.3737 31.6684 55.5217 31.6754 55.5005 31.7459L55.5076 31.7389ZM48.785 35.826C48.6792 35.8753 48.637 35.9669 48.6792 36.0585C48.7356 36.1854 48.6863 36.2206 48.4326 36.2488C48.2564 36.2629 47.8054 36.3122 47.432 36.3545L46.7555 36.432L47.5729 36.1431C48.0239 35.9881 48.6158 35.8119 48.8836 35.7485C49.1584 35.6921 49.3698 35.6005 49.3557 35.5512C49.3276 35.4455 50.0675 35.2552 50.3352 35.3045C50.5678 35.3398 50.4057 35.5371 50.0745 35.6146C49.8913 35.6569 49.8772 35.6851 50.0111 35.7344C50.1027 35.7696 50.2366 35.7626 50.3071 35.7273C50.6946 35.5089 51.1456 35.382 51.2372 35.4666C51.3359 35.5653 52.0194 35.5018 52.8157 35.3186C53.1399 35.2411 53.2738 35.2552 53.3019 35.3609C53.3372 35.4807 53.1187 35.5441 51.9419 35.7626C51.1738 35.9035 50.4903 36.0022 50.4268 35.981C50.2577 35.9176 50.0816 35.9246 49.4333 36.0092C48.792 36.0938 48.6863 36.0726 48.8484 35.8824C48.9329 35.7767 48.9259 35.7696 48.7779 35.826H48.785ZM51.2936 32.9086L51.5262 32.8593L51.3359 33.0496C51.1245 33.2539 50.7721 33.2821 50.9554 33.0777C51.0117 33.0143 51.1597 32.9439 51.2936 32.9157V32.9086ZM51.1738 34.7337C51.3711 34.6915 51.498 34.7056 51.4768 34.769C51.4627 34.8324 51.3218 34.9099 51.1738 34.9451C51.0188 34.9804 50.8849 34.9663 50.8708 34.9099C50.8567 34.8535 50.9906 34.776 51.1738 34.7337ZM52.3718 33.6203C52.5409 33.5781 52.6889 33.5922 52.703 33.6415C52.7382 33.7613 52.5761 33.7965 52.2802 33.7401C52.104 33.7049 52.1181 33.6838 52.3718 33.6203ZM52.7241 34.8253C52.6114 34.7549 52.6184 34.7197 52.7734 34.6844C52.9214 34.6492 52.9848 34.7056 53.0412 34.8888C53.1046 35.1072 53.0764 35.1425 52.7734 35.2059L52.4281 35.2763L52.6536 35.1002C52.8298 34.9592 52.8439 34.9029 52.7312 34.8253H52.7241ZM53.6754 32.366C53.5486 32.3942 53.457 32.4647 53.4781 32.514C53.4922 32.5704 53.3513 32.6479 53.161 32.6902C52.8439 32.7606 52.8228 32.7536 52.9144 32.5774C52.9848 32.4435 53.2103 32.3378 53.6613 32.2251C54.0137 32.1335 54.3167 32.0137 54.3449 31.9503C54.3731 31.8798 54.4012 31.8798 54.4224 31.9573C54.4435 32.0278 54.5422 32.063 54.6479 32.0419C54.7536 32.0207 54.8452 32.0419 54.8593 32.0912C54.9086 32.2744 54.1476 32.5492 53.9996 32.4013C53.9502 32.3519 53.8093 32.3378 53.6825 32.366H53.6754ZM57.8683 17.0533C58.0092 17.0745 58.0303 17.1168 57.974 17.2577C57.8894 17.4621 57.7837 17.5043 57.6498 17.3704C57.5159 17.2366 57.6639 17.0181 57.8683 17.0533ZM53.8657 35.0086C54.3167 34.9733 54.6408 35.072 54.5986 35.22C54.5704 35.3257 54.0982 35.3398 53.9925 35.2411C53.9502 35.1988 53.7882 35.1918 53.6331 35.227C53.4499 35.2693 53.3654 35.2482 53.3865 35.1636C53.4076 35.0861 53.5768 35.0227 53.8586 35.0015L53.8657 35.0086ZM62.6389 7.44856C62.6742 7.5754 62.491 7.70225 62.3007 7.67406C62.2161 7.65997 61.5255 7.77271 60.7715 7.9207C60.0175 8.06868 59.3551 8.16029 59.2988 8.12505C59.2424 8.08982 58.7703 8.18143 58.2417 8.32941C57.5934 8.51263 57.2552 8.56196 57.1847 8.49853C57.1283 8.44216 56.8817 8.44921 56.628 8.49853C56.3743 8.55491 56.0431 8.5831 55.8811 8.55491C55.719 8.52672 55.3526 8.55491 55.0636 8.60424C54.5986 8.6888 54.5351 8.6747 54.514 8.49853C54.4999 8.38579 54.4999 8.28008 54.514 8.26599C54.521 8.24485 54.9791 8.17438 55.5358 8.11096C56.0854 8.04049 57.4525 7.815 58.5729 7.59654C60.081 7.30763 60.7927 7.21602 61.3282 7.23716C62.2584 7.27944 62.5967 7.33581 62.6319 7.45561L62.6389 7.44856ZM53.0201 7.56131C53.1751 7.34991 53.6613 7.27239 55.2046 7.19488C55.7683 7.16669 56.1066 7.11032 56.1418 7.0328C56.2264 6.87777 55.8106 6.75798 55.2962 6.77912L54.9016 6.79321L55.3667 6.67342C55.9727 6.51839 56.3039 6.53953 56.2898 6.72979C56.2898 6.8073 56.318 6.87072 56.3673 6.85663C56.4166 6.84254 56.4378 6.76502 56.4096 6.68046C56.3743 6.56067 56.4307 6.51839 56.6351 6.51839C57.0861 6.50429 57.9105 6.39859 59.0662 6.20128C61.6947 5.75029 61.8779 5.72915 61.8708 5.96874C61.8708 6.0392 61.5185 6.159 60.9336 6.29289C60.1162 6.47611 60.0951 6.48315 60.7645 6.36336C61.7229 6.19423 61.8356 6.20128 61.7299 6.45496C61.6735 6.5959 61.5467 6.65227 61.2084 6.68046C60.9618 6.7016 60.1796 6.77912 59.4538 6.84959C58.5236 6.94119 58.1079 6.94119 58.0233 6.84959C57.8683 6.68046 57.7062 6.72274 57.833 6.89891C57.9176 7.01871 57.8542 7.0469 57.4102 7.09622C56.628 7.18783 53.3724 7.63883 53.0976 7.6952C52.865 7.74453 52.865 7.73748 53.006 7.55426L53.0201 7.56131ZM47.2558 37.5454C47.2417 37.6088 47.0655 37.6652 46.8682 37.6723C46.6709 37.6793 46.4313 37.7075 46.3256 37.7286C46.1988 37.7568 46.1635 37.7286 46.2129 37.6441C46.2974 37.482 47.2981 37.3904 47.2558 37.5454ZM45.8182 9.67535C47.0162 9.40052 47.6645 9.29482 47.6504 9.36529C47.6152 9.49918 44.3173 10.232 44.1059 10.1545C44.0284 10.1263 44.8035 9.91494 45.8253 9.68239L45.8182 9.67535ZM40.4134 4.33388C41.4704 4.08724 41.7663 4.0661 41.8157 4.23523C41.8439 4.34093 39.8989 4.67213 39.5748 4.61575C39.4479 4.59461 39.7932 4.48186 40.4134 4.33388ZM23.036 9.88675C23.0642 9.99245 22.3242 10.1827 22.0565 10.1334C21.8239 10.0982 21.986 9.90085 22.3172 9.82333C22.5004 9.78105 22.5145 9.75286 22.3806 9.70354C22.289 9.6683 22.1551 9.67535 22.0847 9.71058C21.6971 9.92903 21.2461 10.0559 21.1545 9.97131C21.0558 9.87266 20.3723 9.93608 19.576 10.1193C19.2518 10.1968 19.118 10.1827 19.0898 10.077C19.0545 9.95722 19.273 9.8938 20.4498 9.67535C21.2179 9.53441 21.9014 9.43576 21.9649 9.4569C22.134 9.52032 22.3102 9.51327 22.9585 9.42871C23.5997 9.34415 23.7054 9.36529 23.5433 9.55555C23.4588 9.66125 23.4658 9.6683 23.6138 9.61193C23.7195 9.5626 23.7618 9.47099 23.7195 9.37938C23.6631 9.25254 23.7125 9.21731 23.9661 9.18912C24.1423 9.17503 24.5933 9.1257 24.9668 9.08342L25.6433 9.0059L24.8259 9.29482C24.3749 9.44985 23.7829 9.62602 23.5151 9.68944C23.2403 9.74582 23.0289 9.83742 23.043 9.88675H23.036ZM21.0981 12.5363L20.8656 12.5857L21.0558 12.3954C21.2672 12.1911 21.6196 12.1629 21.4363 12.3672C21.38 12.4306 21.232 12.5011 21.0981 12.5293V12.5363ZM21.2179 10.7112C21.0206 10.7535 20.8937 10.7394 20.9149 10.676C20.929 10.6126 21.0699 10.5351 21.2179 10.4998C21.3729 10.4646 21.5068 10.4787 21.5209 10.5351C21.535 10.5914 21.4011 10.6689 21.2179 10.7112ZM18.0539 13.4947C18.0257 13.5652 17.9975 13.5652 17.9764 13.4877C17.9552 13.4172 17.8566 13.382 17.7509 13.4031C17.6452 13.4242 17.5536 13.4031 17.5395 13.3538C17.4901 13.1706 18.2512 12.8957 18.3992 13.0437C18.4485 13.093 18.5894 13.1071 18.7163 13.0789C18.8431 13.0508 18.9347 12.9803 18.9136 12.931C18.8995 12.8746 19.0404 12.7971 19.2307 12.7548C19.5478 12.6843 19.5689 12.6914 19.4773 12.8675C19.4069 13.0014 19.1814 13.1071 18.7304 13.2199C18.378 13.3115 18.075 13.4313 18.0468 13.4947H18.0539ZM14.5164 28.3916C14.3755 28.3705 14.3543 28.3282 14.4107 28.1873C14.4953 27.9829 14.601 27.9406 14.7348 28.0745C14.8687 28.2084 14.7208 28.4269 14.5164 28.3916ZM17.7791 10.218C17.8072 10.1122 18.2794 10.0982 18.3851 10.1968C18.4274 10.2391 18.5894 10.2461 18.7445 10.2109C18.9277 10.1686 19.0122 10.1898 18.9911 10.2743C18.97 10.3518 18.8008 10.4153 18.519 10.4364C18.068 10.4716 17.7438 10.373 17.7861 10.225L17.7791 10.218ZM19.6676 10.6126C19.7803 10.683 19.7733 10.7183 19.6183 10.7535C19.4703 10.7887 19.4069 10.7324 19.3505 10.5492C19.2871 10.3307 19.3153 10.2955 19.6183 10.232L19.9636 10.1616L19.7381 10.3377C19.5619 10.4787 19.5478 10.5351 19.6606 10.6126H19.6676ZM19.6887 11.7964C19.6535 11.6766 19.8156 11.6414 20.1115 11.6978C20.2877 11.733 20.2736 11.7542 20.0199 11.8176C19.8508 11.8599 19.7028 11.8458 19.6887 11.7964ZM25.1289 7.89251C25.143 7.82909 25.3191 7.77272 25.5164 7.76567C25.7137 7.75862 25.9533 7.73043 26.059 7.70929C26.1859 7.68111 26.2211 7.70929 26.1718 7.79386C26.0872 7.95593 25.0866 8.04754 25.1289 7.89251ZM30.421 5.75733H30.4351L30.414 5.76438C30.3294 5.76438 30.2096 5.77143 30.0616 5.78552L30.1673 5.75029C30.1673 5.75029 30.3083 5.71505 30.421 5.75029V5.75733ZM21.8803 7.364C22.289 7.30058 22.7541 7.21602 22.9021 7.17374C25.0373 6.58181 25.298 6.52543 25.1711 6.64523C24.9879 6.8214 25.0513 6.97643 25.2768 6.9271C25.3896 6.89891 25.446 6.8214 25.4178 6.72274C25.3755 6.58181 25.5164 6.53953 26.6298 6.34222C26.954 6.28584 27.3486 6.22242 27.7503 6.159C27.257 6.2647 27.0949 6.34222 26.9822 6.46906L26.8835 6.56771C26.8976 6.63113 26.9117 6.7016 26.9258 6.76502C25.9252 6.97643 25.002 7.14555 24.8752 7.12441C24.5017 7.06804 24.0578 7.17374 24.0578 7.32172C24.0578 7.40628 23.9943 7.42742 23.8393 7.38514C23.7195 7.34991 23.2192 7.38514 22.7189 7.46266C22.2185 7.54017 21.6407 7.61064 21.4434 7.61769C20.8021 7.65292 21.0911 7.47675 21.8662 7.364H21.8803ZM16.271 10.8733C16.6657 10.6689 16.7573 10.6478 16.7925 10.7746C16.8137 10.8381 16.9194 10.9297 17.0251 10.9861C17.2153 11.0706 17.2083 11.0847 17.011 11.134C16.8912 11.1622 16.6163 11.1481 16.3979 11.0988L16.0033 11.0142L16.264 10.8804L16.271 10.8733ZM14.7771 12.1911C15.1436 11.8528 15.1295 11.8599 15.3056 11.9303C15.4043 11.9656 15.3268 12.0854 15.0379 12.2968C14.5516 12.6702 14.3473 12.5857 14.7771 12.1911ZM11.148 14.2628C11.3947 14.1923 11.4017 14.1782 11.2115 14.1289C10.9719 14.0725 13.4382 13.5722 13.7342 13.6216C13.861 13.6427 13.9033 13.7202 13.9104 13.9316C13.9174 14.1712 13.8751 14.2205 13.6355 14.2417C13.4805 14.2558 13.2057 14.2276 13.0225 14.1712C12.6701 14.0655 11.7047 14.1712 12.0007 14.2769C12.2544 14.3685 12.0007 14.4108 11.3806 14.3685C10.9437 14.3403 10.9084 14.3262 11.148 14.2558V14.2628ZM7.38504 18.7516C7.61054 18.7375 7.87832 18.7516 7.98402 18.7798C8.20247 18.8362 9.06923 18.9207 9.48499 18.9278C9.67525 18.9278 9.75276 18.9701 9.71048 19.0476C9.63297 19.1885 8.35045 19.1744 8.07563 19.0264C7.97697 18.9771 7.73034 18.956 7.51893 18.9842C7.30048 19.0123 7.10317 18.9842 7.06089 18.9066C6.99747 18.8009 7.06089 18.7728 7.39209 18.7516H7.38504ZM8.35045 17.2225C8.33636 17.1731 8.61823 17.1731 8.97057 17.2154C9.32291 17.2577 9.68934 17.3 9.7739 17.307C9.88665 17.3141 9.90075 17.3423 9.82323 17.3916C9.68934 17.4832 8.38569 17.3352 8.35045 17.2225ZM6.40554 24.1847C6.19413 24.086 6.19413 24.0719 6.4901 24.0085C6.68741 23.9592 6.80016 23.9803 6.80016 24.0579C6.80016 24.2552 6.65218 24.2974 6.40554 24.1847ZM7.44142 21.1123C7.45551 21.2673 7.43437 21.4928 7.39209 21.6126C7.31457 21.824 7.30048 21.824 6.87767 21.7042C6.42668 21.5844 6.27165 21.4435 6.16595 21.0841C6.10957 20.8938 6.1589 20.8727 6.86358 20.7529C7.34276 20.6683 7.68101 20.6613 7.77966 20.7318C7.91355 20.8234 7.89946 20.8375 7.67396 20.8375C7.44846 20.8375 7.41323 20.8727 7.43437 21.1193L7.44142 21.1123ZM7.62463 21.6338C7.54007 21.3378 7.62463 21.2039 7.8008 21.3801L7.98402 21.4435V21.3378C7.94174 21.2885 7.96288 21.2391 8.0263 21.225C8.19542 21.1898 8.86487 21.4364 8.9001 21.5492C9.0199 21.972 8.72393 22.1411 8.08267 22.0143C7.77966 21.9579 7.70215 21.8945 7.63168 21.6408L7.62463 21.6338ZM8.75212 24.0649C8.6887 24.0719 8.4773 24.1072 8.29408 24.1424C7.85718 24.2199 7.83604 23.9874 8.26589 23.8042C8.78735 23.5716 8.80849 23.5716 8.84373 23.8183C8.86487 23.9451 8.82259 24.0579 8.75917 24.0649H8.75212ZM11.4792 17.4761C11.296 17.5184 11.141 17.5043 11.1198 17.448C11.1057 17.3916 11.2396 17.3141 11.4229 17.2718C11.6061 17.2295 11.7611 17.2436 11.7822 17.3C11.7963 17.3564 11.6624 17.4339 11.4792 17.4761ZM11.8316 15.8272C11.3242 15.9329 10.8309 16.0809 10.7252 16.1584C10.5491 16.2782 10.5561 16.2923 10.8662 16.2923C11.1692 16.2923 11.1903 16.3064 11.0635 16.4614C10.8803 16.701 11.0353 16.7574 11.3101 16.5601C11.4651 16.4473 11.5849 16.4191 11.6695 16.4755C11.9161 16.6305 11.6836 16.7362 10.6618 16.9335C9.59774 17.1449 8.72393 17.1731 8.62528 17.0111C8.53367 16.856 9.07627 16.3064 9.30177 16.3275C9.41452 16.3416 9.49203 16.3064 9.47794 16.2641C9.4568 16.1866 8.53367 16.0104 8.21656 16.0316C7.94879 16.0456 7.26525 15.8624 7.23706 15.7638C7.22297 15.7074 7.41323 15.651 7.72329 15.6158C8.00516 15.5876 8.51958 15.5312 8.85782 15.489C9.20311 15.4467 9.51317 15.4185 9.54841 15.4326C9.58364 15.4467 10.2531 15.341 11.0282 15.2C13.5439 14.749 13.6355 14.742 13.7131 15.0098C13.7694 15.2141 12.8815 15.6017 11.8245 15.8272H11.8316ZM14.0865 12.8112C13.9667 12.7971 13.558 12.8464 13.1846 12.9169C12.198 13.1001 10.8098 13.1635 10.0628 13.0578C9.97826 13.0437 10.1897 12.9169 10.5279 12.7689L11.148 12.5011L10.5138 12.628C9.75276 12.783 8.80849 12.7971 8.94238 12.6561C9.01285 12.5786 9.00581 12.5434 8.90715 12.5082C8.6887 12.4306 8.51253 12.635 8.62528 12.8323C8.75212 13.0508 8.77326 13.0508 7.99107 13.0296C7.13136 13.0085 6.51829 12.8887 6.52533 12.7407C6.52533 12.6702 6.32802 12.5786 6.08139 12.5293C5.722 12.4588 5.65153 12.4166 5.74314 12.3108C5.87703 12.1558 6.51124 12.0924 6.60285 12.2263C6.63808 12.2756 6.80016 12.2897 6.96223 12.2545C7.12431 12.2192 7.38504 12.2545 7.54007 12.3249C7.74443 12.4236 7.9206 12.4236 8.20952 12.3179C8.67461 12.1488 10.1122 12.0431 10.5068 12.1488C10.6618 12.1911 11.0987 12.184 11.4863 12.1417C12.0218 12.0783 12.1839 12.0924 12.1769 12.2051C12.1628 12.3813 12.2896 12.3602 12.7265 12.1135C13.0295 11.9444 13.0859 11.9444 13.3748 12.1135C13.6215 12.2686 13.7272 12.2756 13.8329 12.1699C13.9808 12.0219 14.5516 11.9797 14.5869 12.1206C14.6362 12.2827 14.453 12.3813 14.2768 12.2897C14.0372 12.1629 13.9949 12.2897 14.1993 12.5223C14.4107 12.7548 14.3755 12.8394 14.0795 12.8112H14.0865ZM13.6637 15.7708C13.6637 15.7708 13.6355 15.651 13.6708 15.5594C13.7412 15.3903 14.009 15.3198 14.3261 15.3762C14.4107 15.3903 14.608 15.3903 14.756 15.3762C14.904 15.3621 15.0379 15.3903 15.052 15.4467C15.0731 15.5453 13.7906 15.8483 13.6637 15.7638V15.7708ZM13.5651 26.8131C13.4735 26.7991 13.3184 26.8061 13.2198 26.8272C13.1211 26.8484 13.0295 26.8272 13.0084 26.7709C12.9943 26.7145 13.1282 26.637 13.3114 26.5947C13.551 26.5383 13.6496 26.5665 13.6849 26.6793C13.7131 26.785 13.6708 26.8272 13.5651 26.8131ZM16.6304 13.6145C16.4895 13.6991 16.4402 13.6991 16.4613 13.6145C16.4825 13.5299 16.3627 13.5229 16.0949 13.5793C15.7144 13.6638 15.7073 13.6779 15.9258 13.7836C16.1442 13.8964 16.1442 13.8964 15.8835 13.8964C15.7355 13.8964 15.6016 13.9457 15.5875 14.0091C15.5734 14.0725 15.4889 14.136 15.3972 14.1501C15.2986 14.1642 15.2774 14.1501 15.3409 14.1007C15.3972 14.0585 15.4254 13.9598 15.4043 13.8893C15.3832 13.8118 15.4889 13.6991 15.658 13.6286C16.1865 13.4031 16.4895 13.3044 16.6234 13.3115C16.7009 13.3115 16.8066 13.3115 16.863 13.2904C17.0251 13.2551 16.87 13.4665 16.6375 13.6075L16.6304 13.6145ZM16.9828 8.20962C16.9264 8.12505 16.9757 8.10391 17.173 8.1321C17.321 8.15324 17.913 8.13915 18.4978 8.10391C19.0827 8.06163 19.6958 8.04049 19.8649 8.05459C20.034 8.06868 20.478 8.04049 20.8444 7.99117C21.3941 7.9207 22.4018 7.85728 23.1487 7.84318L23.0219 7.89251L22.6625 8.04049L23.0007 7.98412C23.184 7.95593 23.3883 7.96298 23.4517 7.99821C23.5081 8.03345 24.1494 7.95593 24.9738 7.83614V7.85728C24.9809 8.0264 24.9597 8.04754 24.8681 7.96298C24.7836 7.87842 24.7624 7.88546 24.7836 7.96298C24.8047 8.0264 24.7554 8.07573 24.6849 8.06163C24.6144 8.04754 24.4383 8.11096 24.2973 8.19552C24.0859 8.32236 24.1494 8.32941 24.699 8.20962C24.8188 8.18143 24.9457 8.16733 25.0584 8.15324L25.1007 8.17438C25.1782 8.18848 25.2557 8.17438 25.2768 8.1321C25.3966 8.11801 25.4883 8.12505 25.5305 8.1321C25.6644 8.18143 25.6503 8.20962 25.4671 8.25894C24.8611 8.42807 24.2551 8.49149 23.9661 8.43511C23.4376 8.32236 23.0853 8.35055 22.9725 8.51263C22.8105 8.75222 21.387 8.70289 21.3166 8.45625C21.3025 8.40693 21.4223 8.37874 21.5984 8.38579C21.7816 8.39988 21.8944 8.37169 21.8803 8.31532C21.8662 8.26599 21.7887 8.2378 21.7041 8.25894C21.6196 8.28008 21.5702 8.2378 21.5914 8.16734C21.6125 8.08277 21.5632 8.08277 21.4434 8.15324C21.3447 8.21666 21.2531 8.22371 21.239 8.17438C21.2038 8.06163 20.781 8.24485 20.7387 8.38579C20.7035 8.51967 20.2595 8.61128 20.2313 8.49853C20.2173 8.44921 20.2948 8.36465 20.4005 8.31532C20.5485 8.24485 20.5203 8.2378 20.2948 8.28008C20.1256 8.30827 19.9072 8.32236 19.8085 8.30122C19.6676 8.28008 19.6465 8.30122 19.731 8.42102C19.8508 8.59719 19.6324 8.6888 19.3505 8.57605C19.2166 8.52672 19.2307 8.49853 19.4139 8.44921C19.6253 8.39283 19.6253 8.38579 19.4351 8.3435C19.3153 8.32236 19.0334 8.33646 18.7938 8.37874C18.2794 8.47739 17.0673 8.35055 16.9616 8.18848L16.9828 8.20962ZM16.8982 13.7132C16.9334 13.5722 17.2858 13.4877 17.5113 13.5722C17.6311 13.6216 17.5747 13.6638 17.2787 13.7273C17.0321 13.7836 16.8841 13.7766 16.9053 13.7061L16.8982 13.7132ZM9.7739 38.0175C9.73867 37.8907 9.92189 37.7639 10.1122 37.7921C10.1967 37.8061 10.8873 37.6934 11.6413 37.5454C12.3953 37.3974 13.0577 37.3058 13.1141 37.3411C13.1705 37.3763 13.6426 37.2847 14.1711 37.1367C14.8194 36.9535 15.1577 36.9042 15.2281 36.9676C15.2845 37.0239 15.5311 37.0169 15.7848 36.9676C16.0385 36.9182 16.3697 36.883 16.5318 36.9112C16.6939 36.9394 17.0603 36.9112 17.3492 36.8619C17.8143 36.7773 17.8777 36.7914 17.8989 36.9676C17.9129 37.0803 17.9129 37.186 17.8989 37.2001C17.8918 37.2213 17.4338 37.2917 16.8771 37.3551C16.3274 37.4256 14.9603 37.6511 13.8399 37.8696C12.3319 38.1585 11.6202 38.2501 11.0846 38.229C10.1544 38.1867 9.81619 38.1303 9.78095 38.0105L9.7739 38.0175ZM19.3928 37.9048C19.2377 38.1162 18.7515 38.1937 17.2083 38.2712C16.6445 38.2994 16.3063 38.3558 16.271 38.4333C16.1865 38.5883 16.6022 38.7081 17.1167 38.687L17.5113 38.6729L17.0462 38.7927C16.4402 38.9477 16.109 38.9266 16.1231 38.7363C16.1231 38.6588 16.0949 38.5954 16.0455 38.6095C15.9962 38.6236 15.9751 38.7011 16.0033 38.7856C16.0385 38.9054 15.9821 38.9477 15.7778 38.9477C15.3268 38.9618 14.5023 39.0675 13.3466 39.2648C10.7182 39.7158 10.535 39.737 10.542 39.4974C10.542 39.4269 10.8943 39.3071 11.4792 39.1732C12.2967 38.99 12.3178 38.983 11.6484 39.1028C10.69 39.2719 10.5772 39.2648 10.6829 39.0111C10.7393 38.8702 10.8662 38.8138 11.2044 38.7856C11.451 38.7645 12.2332 38.687 12.9591 38.6165C13.8892 38.5249 14.305 38.5249 14.3896 38.6165C14.5446 38.7856 14.7067 38.7434 14.5798 38.5672C14.4953 38.4474 14.5587 38.4192 15.0026 38.3699C15.7848 38.2783 19.0404 37.8273 19.3153 37.7709C19.5478 37.7216 19.5478 37.7286 19.4069 37.9118L19.3928 37.9048ZM26.5946 35.7908C25.3966 36.0656 24.7483 36.1713 24.7624 36.1008C24.7977 35.9669 28.0956 35.2341 28.307 35.3116C28.3845 35.3398 27.6093 35.5512 26.5876 35.7837L26.5946 35.7908ZM31.9995 41.1322C30.9425 41.3789 30.6465 41.4 30.5972 41.2309C30.569 41.1252 32.5139 40.794 32.8381 40.8504C32.9649 40.8715 32.6196 40.9842 31.9995 41.1322ZM41.9989 39.7088H41.9848L42.0059 39.7017C42.0905 39.7017 42.2103 39.6947 42.3583 39.6806L42.2526 39.7158C42.2526 39.7158 42.1116 39.7511 41.9989 39.7158V39.7088ZM50.5396 38.1021C50.1309 38.1655 49.6658 38.2501 49.5178 38.2924C47.3826 38.8843 47.1219 38.9407 47.2487 38.8209C47.432 38.6447 47.3685 38.4897 47.143 38.539C47.0303 38.5672 46.9739 38.6447 47.0021 38.7434C47.0444 38.8843 46.9035 38.9266 45.7901 39.1239C45.4659 39.1803 45.0713 39.2437 44.6696 39.3071C45.1629 39.2014 45.325 39.1239 45.4377 38.9971L45.5364 38.8984C45.5223 38.835 45.5082 38.7645 45.4941 38.7011C46.4947 38.4897 47.4179 38.3206 47.5447 38.3417C47.9182 38.3981 48.3621 38.2924 48.3621 38.1444C48.3621 38.0598 48.4256 38.0387 48.5806 38.081C48.7004 38.1162 49.2007 38.081 49.701 38.0035C50.2014 37.9259 50.7792 37.8555 50.9765 37.8484C51.6178 37.8132 51.3288 37.9894 50.5537 38.1021H50.5396ZM55.2539 37.3411C55.1059 37.3199 54.514 37.334 53.9291 37.3692C53.3442 37.4115 52.7311 37.4327 52.562 37.4186C52.3929 37.4045 51.949 37.4327 51.5825 37.482C50.9695 37.5595 49.7856 37.63 49.0245 37.63C48.7638 37.63 48.3692 37.6793 47.6575 37.7991C47.4954 37.8273 47.4531 37.785 47.4461 37.6159C47.4461 37.4468 47.4672 37.4256 47.5518 37.5102C47.6363 37.5947 47.6575 37.5877 47.6363 37.5102C47.6152 37.4468 47.6645 37.3974 47.735 37.4115C47.8054 37.4256 47.9816 37.3622 48.1226 37.2776C48.334 37.1508 48.2705 37.1437 47.7209 37.2635C47.3545 37.3411 46.988 37.3763 46.8894 37.3411C46.7555 37.2917 46.7696 37.2635 46.9528 37.2142C47.5588 37.0451 48.1648 36.9817 48.4538 37.038C48.9823 37.1508 49.3346 37.1226 49.4473 36.9605C49.6094 36.7209 51.0329 36.7703 51.1033 37.0169C51.1174 37.0662 50.9976 37.0944 50.8215 37.0874C50.6383 37.0733 50.5255 37.1015 50.5396 37.1578C50.5537 37.2072 50.6312 37.2354 50.7158 37.2142C50.8003 37.1931 50.8497 37.2354 50.8285 37.3058C50.8074 37.3904 50.8567 37.3904 50.9765 37.3199C51.0752 37.2565 51.1668 37.2494 51.1809 37.2988C51.2161 37.4115 51.6389 37.2283 51.6812 37.0874C51.7164 36.9535 52.1604 36.8619 52.1885 36.9746C52.2026 37.024 52.1251 37.1085 52.0194 37.1578C51.8714 37.2283 51.8996 37.2354 52.1251 37.1931C52.2943 37.1649 52.5127 37.1508 52.6114 37.1719C52.7523 37.1931 52.7734 37.1719 52.6889 37.0521C52.5691 36.876 52.7875 36.7844 53.0694 36.8971C53.2033 36.9464 53.1892 36.9746 53.006 37.024C52.7946 37.0803 52.7946 37.0874 52.9848 37.1297C53.1046 37.1508 53.3865 37.1297 53.6261 37.0944C54.1405 36.9958 55.3526 37.1226 55.4583 37.2847C55.5146 37.3692 55.4653 37.3904 55.268 37.3622L55.2539 37.3411ZM57.0508 37.3622C57.1565 37.4679 57.0649 37.482 56.5223 37.4327C56.2475 37.4115 56.1066 37.3551 56.1629 37.2988C56.2616 37.186 56.924 37.2354 57.0508 37.3622ZM56.9029 36.2981C56.6703 36.3193 56.4519 36.3193 56.4166 36.2981C56.2405 36.1854 56.4378 36.0374 56.7337 36.0585C57.2763 36.1008 57.3891 36.2559 56.9029 36.3052V36.2981ZM58.284 35.0649C58.2065 35.079 58.1079 35.0579 58.0656 35.0086C58.0162 34.9592 58.0656 34.9029 58.1713 34.8817C58.277 34.8606 58.3756 34.8817 58.3897 34.9381C58.4038 34.9945 58.3545 35.0508 58.284 35.0649ZM63.5127 35.7908C63.4352 35.8119 63.3013 35.7696 63.2168 35.7062C62.9772 35.523 63.1815 35.4173 63.4282 35.6005C63.6184 35.7344 63.6325 35.7626 63.5057 35.7908H63.5127Z" fill="#EA6129"/>
<path id="Vector_2" d="M24.4242 9.31596C24.5651 9.28777 24.5581 9.28073 24.4242 9.2314C24.2128 9.16093 24.0859 9.18207 24.1846 9.27368C24.2269 9.31596 24.3326 9.33005 24.4242 9.31596Z" fill="#EA6129"/>
</g>
<path id="Vector_3" d="M39.6453 15.4114C39.6805 15.355 39.7228 15.3057 39.7932 15.2493C39.8989 15.1718 40.0751 15.0873 40.3288 15.0379C40.5754 14.9816 40.8855 14.9534 41.2237 14.9534H44.4159V9.0834L43.5703 9.04816C43.5703 9.04816 42.7458 9.01293 41.8509 8.97769C41.3999 8.95655 40.9348 8.94246 40.5472 8.92837C40.1526 8.91427 39.8426 8.90723 39.6734 8.90723C39.5114 8.90723 39.004 8.90723 38.3557 9.03407C37.3832 9.22433 36.0232 9.68942 34.8957 10.8803C34.332 11.4723 33.8387 12.2404 33.5005 13.1987C33.1552 14.1571 32.9579 15.3057 32.9579 16.6657V18.5191H28.9059V24.8048H32.9579V35.7978H34.7195V23.0431H30.6676V20.2807H34.7195V16.6657C34.7195 15.0661 35.0226 13.9386 35.4524 13.1142C36.0937 11.8951 37.0238 11.3102 37.8836 10.986C38.7503 10.6689 39.5114 10.6619 39.6805 10.6619C39.7932 10.6619 40.1103 10.6689 40.4909 10.683C41.1462 10.7042 42.02 10.7394 42.6613 10.7676V13.1917H41.2308C40.4697 13.1917 39.7016 13.2833 39.011 13.6638C38.6658 13.8541 38.3486 14.143 38.1302 14.5235C37.9117 14.897 37.806 15.348 37.806 15.8131V20.2737H42.2949L41.9214 23.0854H37.8554V35.7907H39.6171V24.8471H43.4646L44.3102 18.512H39.5677V15.8131C39.5677 15.5946 39.61 15.4819 39.6523 15.4044L39.6453 15.4114Z" fill="white"/>
</g>
<defs>
<clipPath id="clip0_1_285">
<rect width="72.4481" height="45.48" fill="white"/>
</clipPath>
</defs>
</svg>
