<svg width="73" height="46" viewBox="0 0 73 46" fill="none" xmlns="http://www.w3.org/2000/svg">
<g id="Elementos" clip-path="url(#clip0_1_277)">
<g id="Group">
<path id="Vector" d="M72.0356 35.4666C72.0568 35.1847 71.7608 35.0649 70.6686 34.924C70.1048 34.8535 69.4988 34.769 69.3085 34.7478C69.1183 34.7196 68.9632 34.6351 68.9562 34.5576C68.9491 34.4801 68.8716 34.4025 68.7941 34.3955C68.6884 34.3814 68.6814 34.4237 68.7589 34.5364C68.8505 34.6703 68.8293 34.6915 68.6391 34.6844C68.5122 34.6844 67.6737 34.6915 66.7717 34.7196C63.9389 34.8042 63.051 34.7972 62.6986 34.6703C62.297 34.5294 62.156 34.5435 62.3533 34.6915C62.4661 34.7831 62.3322 34.8113 61.5923 34.8676C60.3168 34.9663 59.8024 34.9099 59.6121 34.6562C59.4571 34.4519 59.4289 34.4519 58.6538 34.6915C58.0548 34.8817 57.8293 34.9099 57.7447 34.8324C57.6813 34.769 57.5545 34.7337 57.4629 34.7478C57.329 34.769 57.3219 34.7972 57.4417 34.8888C57.5615 34.9804 57.5474 35.0156 57.3501 35.0579C57.2162 35.0861 57.0682 35.072 57.026 35.0227C56.9766 34.9733 56.8075 34.9663 56.6384 35.0015C56.1663 35.1072 56.4763 34.8676 57.1951 34.5858C57.5404 34.4519 57.928 34.318 58.0618 34.2968C58.1957 34.2757 58.4071 34.1982 58.534 34.1207C58.7172 34.022 58.7806 34.022 58.8159 34.1418C58.8722 34.3462 59.0202 34.2968 59.2598 34.0079C59.4148 33.8177 59.584 33.7472 60.1054 33.6697C60.5564 33.5992 60.7608 33.6133 60.789 33.7049C60.8453 33.9093 61.0779 33.9445 61.1131 33.7613C61.1554 33.564 61.7826 33.4512 62.5788 33.5006C62.8607 33.5146 63.3963 33.5146 63.7768 33.5006C64.1573 33.4794 64.5519 33.5146 64.6576 33.5781C64.8338 33.6767 65.3341 33.7049 66.1938 33.6626C66.4757 33.6485 66.7224 33.7542 67.2438 34.0995C67.9274 34.5576 68.1317 34.5998 67.6102 34.177C67.4552 34.0572 67.3495 33.9304 67.3636 33.9022C67.3777 33.874 67.8076 33.9022 68.3079 33.9586C68.8153 34.022 69.3156 34.0502 69.4213 34.022C69.527 34.0009 69.7525 34.022 69.9286 34.0643C70.2528 34.1559 70.8588 34.0854 70.591 33.9797C70.5135 33.9515 70.6967 33.8952 70.9998 33.8529C71.493 33.7895 71.5353 33.7613 71.3944 33.6556C71.3028 33.5851 71.0138 33.5217 70.7531 33.5076C70.4924 33.4935 70.1753 33.4653 70.0625 33.4371C69.8229 33.3808 68.9985 33.3737 68.5545 33.416C67.9978 33.4724 67.0536 33.416 67.1804 33.3244C67.5468 33.0777 67.7723 33.0355 68.2163 33.1271C68.484 33.1834 68.7025 33.1905 68.7025 33.1341C68.7025 33.0848 68.8434 33.0214 69.0126 33.0002C69.1817 32.9791 69.231 32.9509 69.1183 32.9439C69.0055 32.9368 68.6602 32.8734 68.3502 32.8029C68.0401 32.7324 67.6103 32.6902 67.3988 32.6972C66.7787 32.7325 66.9056 32.5986 67.5891 32.4858C67.9344 32.4294 68.2022 32.3519 68.1881 32.3026C68.174 32.2533 67.9978 32.2392 67.8005 32.2815C67.5962 32.3167 66.8703 32.3026 66.1868 32.2533C65.4962 32.2039 64.8549 32.1758 64.7563 32.1969C64.6576 32.218 64.559 32.1758 64.5378 32.0982C64.4815 31.8939 64.2278 31.8798 63.3188 32.0419C62.0221 32.2674 61.0708 32.2321 61.1413 31.9644C61.1906 31.7882 64.3405 31.605 65.1509 31.7318C65.6653 31.8093 66.0106 31.8023 66.4405 31.6895C66.7787 31.605 67.3918 31.5556 67.8851 31.5697C68.3572 31.5838 68.9985 31.5979 69.3156 31.5909C69.6327 31.5909 70.1612 31.6613 70.4994 31.76C70.8377 31.8586 71.1548 31.908 71.2112 31.8727C71.2675 31.8375 71.19 31.7741 71.035 31.7318C70.591 31.605 69.7807 31.2033 69.8229 31.1258C69.8441 31.0905 70.0484 31.0835 70.281 31.1117C70.8659 31.1892 70.9786 31.1399 70.5488 30.9919C70.3515 30.9214 70.1753 30.8228 70.1612 30.7664C70.0907 30.5127 68.3572 30.2872 67.2015 30.3788C66.363 30.4493 65.7006 30.4634 64.1785 30.4634C63.9389 30.4634 63.1285 30.4986 62.3745 30.5409C62.1701 30.555 61.9658 30.5198 61.9164 30.4775C61.8601 30.4211 61.9728 30.3788 62.2617 30.3647C62.5013 30.3506 63.0369 30.2872 63.4597 30.2167C64.4251 30.0617 64.6576 30.0335 65.4469 29.9983C65.7992 29.9842 66.5391 29.8926 67.0888 29.801C67.6384 29.7094 68.3431 29.6037 68.6461 29.5614C68.9491 29.5262 69.1958 29.4698 69.1887 29.4416C69.1817 29.4134 68.9985 29.357 68.7871 29.3148C68.3854 29.2372 67.9978 29.2795 68.1035 29.3852C68.1388 29.4205 67.7582 29.5262 67.2509 29.6178C66.2432 29.808 65.919 29.7305 65.8767 29.3077C65.8556 29.1174 65.8133 29.0822 65.6231 29.1245C65.4962 29.1527 65.1721 29.1245 64.9043 29.0681C64.5378 28.9836 64.4392 28.9272 64.5167 28.8426C64.5731 28.7792 64.6929 28.7087 64.7704 28.6876C64.8479 28.6665 64.9818 28.5185 65.0664 28.3564C65.1509 28.1943 65.2707 28.0463 65.3482 28.0252C65.4187 28.0111 65.4398 27.9547 65.3905 27.9124C65.2707 27.7927 65.3482 27.7856 65.7922 27.8772C66.3489 27.9829 66.5462 27.9054 66.1375 27.7433L65.7992 27.6094L66.2714 27.5037C66.5321 27.4474 66.9126 27.4403 67.117 27.4967C67.427 27.5812 67.5257 27.6658 67.6666 27.9829L67.8357 28.3705L67.7441 27.997C67.6878 27.7715 67.6948 27.6094 67.7653 27.5953C67.9555 27.5531 68.5475 27.7927 69.0548 28.1238C69.3156 28.293 69.682 28.4832 69.8652 28.5467L70.1964 28.6594L69.7948 28.4057C69.3579 28.1309 69.3156 27.9265 69.6961 27.9195C69.9357 27.9195 69.985 27.7927 69.7736 27.7151C69.6186 27.6588 69.5834 27.4896 69.7243 27.4615C69.9991 27.4051 71.0068 27.7222 71.5494 28.0463C71.9581 28.293 72.1836 28.3634 72.3034 28.3C72.4232 28.2296 72.536 28.2718 72.6769 28.4339C72.7896 28.5607 72.8883 28.6383 72.9024 28.6101C72.9517 28.5114 72.4796 28.0534 72.085 27.8208C71.5283 27.4967 71.0561 27.3135 70.7249 27.3064C70.4149 27.2994 70.3021 27.1303 70.5558 27.0598C70.8024 26.9964 70.1119 26.9048 68.8646 26.8343C66.3912 26.7004 66.067 26.6722 66.0459 26.5876C66.0247 26.5031 66.1586 26.4256 66.3348 26.4256C66.3841 26.4256 66.4969 26.334 66.5955 26.2212C66.6942 26.1085 66.8844 25.9957 67.0254 25.9605C67.265 25.9041 67.265 25.8971 67.0676 25.8055C66.7717 25.6716 66.9338 25.5518 67.3988 25.5588C67.6173 25.5588 67.9133 25.5377 68.0542 25.5095C68.4629 25.4179 69.4636 25.7138 70.1964 26.1296L70.8729 26.5172L70.3867 26.1367C70.1189 25.9252 69.7243 25.6857 69.5058 25.5941C69.2874 25.5024 69.0971 25.3826 69.083 25.3192C69.0407 25.1783 68.7095 25.1572 68.2445 25.2558C68.0542 25.2981 67.8287 25.284 67.7371 25.2276C67.6455 25.1712 67.4905 25.1149 67.3918 25.0937C66.9479 25.0233 67.3425 24.6427 67.8428 24.6568C68.0471 24.6639 68.0753 24.6357 67.9908 24.5159C67.9344 24.4313 67.9344 24.3609 67.9908 24.3468C68.329 24.2693 67.716 23.4659 67.0676 23.1418C66.9197 23.0643 66.8069 22.9867 66.821 22.9656C66.8703 22.874 68.181 22.9304 68.7448 23.0502C69.083 23.1206 69.3508 23.1629 69.3438 23.1347C69.3226 23.0643 68.0471 22.7824 67.1592 22.6485C66.7012 22.5851 66.2995 22.4794 66.2643 22.43C66.1445 22.2468 66.7787 22.0707 67.7723 22.0143C68.3149 21.979 68.8152 21.9368 68.8928 21.9227C69.1394 21.8593 68.4981 21.7042 68.2304 21.7606C68.0894 21.7888 67.9062 21.8029 67.8146 21.7888C67.6384 21.7606 67.5116 21.4999 67.6596 21.4646C67.8005 21.4364 68.773 21.4928 69.2803 21.5633C69.9146 21.6549 70.288 21.5633 70.2246 21.3166C70.1823 21.1757 70.0766 21.1334 69.7666 21.1546C69.4847 21.1687 69.3297 21.1193 69.2592 20.9995C69.1746 20.8586 69.1042 20.8445 68.8646 20.9432C68.5968 21.0559 68.1317 21.063 67.568 20.9573C67.4552 20.9361 67.0606 20.8727 66.7012 20.8163C66.0177 20.7106 65.7781 20.5415 66.3066 20.5345C66.5532 20.5345 66.5955 20.5063 66.518 20.3935C66.3912 20.2173 67.0395 19.6747 67.5539 19.5127C67.7582 19.4492 68.2233 19.2801 68.5968 19.1321C69.2099 18.8855 70.8306 18.5614 71.2675 18.5895C71.3662 18.5895 71.4367 18.5614 71.4226 18.512C71.3873 18.3852 70.6967 18.4486 69.0971 18.7305C67.9908 18.9278 67.7512 18.9419 67.8498 18.815C67.9626 18.6741 67.9485 18.66 67.7371 18.6459C67.6102 18.6459 67.3354 18.6741 67.124 18.7164C66.7646 18.7939 66.4828 18.7164 66.4264 18.5261C66.4123 18.4768 66.9126 18.3359 67.5327 18.209C68.1528 18.0822 68.6884 17.9412 68.7095 17.899C68.7307 17.8567 68.6391 17.8426 68.4981 17.8778C68.3572 17.913 68.1035 17.899 67.9414 17.8496C67.42 17.7087 65.8063 17.8496 64.3546 18.1738C63.5865 18.3429 62.6775 18.4838 62.3181 18.4838C61.9587 18.4838 61.7544 18.4627 61.8671 18.4345C62.0785 18.3781 62.452 17.913 62.4097 17.7651C62.3745 17.6523 61.1554 18.054 61.1483 18.1738C61.1413 18.3006 60.8806 18.3499 60.8453 18.2231C60.8312 18.1667 60.7044 18.1526 60.5635 18.1949L60.3098 18.2654L60.5705 18.2936C60.8171 18.3218 60.8101 18.3218 60.5282 18.3993C60.3591 18.4416 60.2111 18.4275 60.197 18.3711C60.1829 18.3077 60.0913 18.3077 59.9997 18.3711C59.9081 18.4275 59.8165 18.4345 59.8024 18.3852C59.7883 18.3359 59.6756 18.3359 59.5558 18.3922C59.436 18.4486 59.2105 18.4838 59.0554 18.4838L58.7736 18.4697L59.0484 18.209C59.1964 18.0681 59.4571 17.913 59.6262 17.8778C59.8376 17.8285 59.9151 17.758 59.887 17.6523C59.8517 17.5325 59.9292 17.4832 60.2534 17.4409C60.5705 17.3916 60.6973 17.4268 60.8171 17.5818C61.1131 17.9694 61.3245 17.7369 61.1695 17.1802C61.0708 16.8067 61.1906 16.4614 61.4443 16.405C61.543 16.3839 61.7473 16.2289 61.9023 16.0527C62.1701 15.7638 62.2406 15.7356 63.1003 15.6158C63.6006 15.5453 64.2912 15.4608 64.6365 15.4255C65.0875 15.3762 65.2284 15.3339 65.158 15.2635C65.0311 15.1366 65.2566 15.0873 65.6371 15.1507C65.7992 15.1789 65.9965 15.193 66.0811 15.1859C66.1586 15.1859 66.5039 15.193 66.8421 15.2212C67.1804 15.2494 67.5398 15.2775 67.6314 15.2846C67.7441 15.2916 67.7935 15.2423 67.7653 15.1507C67.7371 15.045 67.5257 15.0098 67.0536 15.0309C66.1868 15.0732 65.8345 14.9393 66.5814 14.8618C66.8774 14.8336 67.6103 14.7209 68.2092 14.6081C68.8082 14.5024 69.534 14.4178 69.8229 14.4178C70.2598 14.4178 70.3867 14.3826 70.6333 14.1712C70.8165 14.0162 71.1055 13.8893 71.4226 13.833C71.8383 13.7625 71.9511 13.6991 72.0779 13.4665C72.3034 13.0508 72.0779 12.8957 71.3803 12.9732C71.0632 13.0085 70.3726 13.0085 69.837 12.9732C69.3015 12.938 68.6673 12.9098 68.4206 12.9098C68.0401 12.9098 65.5949 13.1353 65.3694 13.1776C65.3271 13.1847 65.3059 13.1353 65.3271 13.0719C65.3482 12.9873 65.2566 12.9873 65.01 13.093C64.8197 13.1706 63.9671 13.3185 63.1144 13.4172C62.2617 13.5159 61.3527 13.6286 61.0849 13.6638C60.3873 13.7484 60.1406 13.7413 60.1759 13.6145C60.19 13.5511 60.2957 13.4806 60.4155 13.4595C60.6973 13.3961 60.796 13.1776 60.7044 12.8464C60.5987 12.4729 60.7749 12.4447 62.0503 12.6561C62.607 12.7477 62.6141 12.7477 62.3392 12.6068C62.1772 12.5293 62.0151 12.4659 61.9728 12.4729L61.8671 12.3743C61.846 12.2968 62.1772 12.2051 63.0016 12.0713C63.6429 11.9656 64.6083 11.7964 65.1368 11.6978C66.1234 11.5146 66.525 11.5216 66.222 11.726C66.1234 11.7894 66.3136 11.8035 66.7012 11.7542C67.0536 11.7119 67.5257 11.7189 67.7512 11.7682C67.9767 11.8176 68.2445 11.8458 68.3502 11.8317C68.4559 11.8176 68.632 11.7894 68.7448 11.7753C68.8575 11.7612 69.1676 11.8317 69.4424 11.9444C69.7243 12.0572 69.9639 12.0994 69.9991 12.0431C70.0837 11.8951 69.5481 10.979 69.3931 11.0072C69.1324 11.0636 69.1958 10.7183 69.4917 10.4928C69.6609 10.3659 69.9075 10.1193 70.0343 9.94313C70.281 9.61897 70.5417 9.5626 70.6192 9.82333C70.6404 9.90084 70.7108 9.98541 70.7743 10.0065C71.0068 10.0911 70.8095 9.83038 70.429 9.55555C69.9146 9.18207 69.6679 9.1257 68.4629 9.10456C67.0606 9.07637 65.7428 8.92839 64.9888 8.70994C64.3405 8.51967 64.115 8.35055 64.5238 8.35055C65.6301 8.3576 66.5955 8.40693 66.7646 8.44921C66.8915 8.48444 66.9901 8.4633 67.0254 8.39283C67.124 8.20961 66.7435 7.81499 66.4405 7.77271L66.1727 7.73748L66.3912 7.5754C66.5109 7.4838 66.6237 7.364 66.6378 7.30763C66.6942 7.09622 66.4616 6.90596 66.215 6.96233C65.6794 7.07508 64.0798 6.86368 63.6781 6.61704C63.4597 6.48315 63.1285 6.3845 62.9171 6.39154C62.7127 6.39859 62.5084 6.36336 62.459 6.31403C62.4027 6.25765 62.4943 6.22242 62.7268 6.21537C63.1496 6.20128 63.1567 6.06034 62.7339 5.89122C62.5718 5.8278 62.452 5.75733 62.4661 5.72914C62.5084 5.65868 64.2912 5.79961 64.4603 5.89122C64.5378 5.9335 64.714 5.91941 64.8409 5.85599C65.0382 5.76438 66.5955 5.85599 67.3425 6.00397C67.4552 6.02511 67.5186 5.99692 67.4975 5.92645C67.4764 5.86303 67.3848 5.80666 67.2861 5.79257C67.1874 5.77847 66.9126 5.72914 66.6801 5.67982C66.4475 5.63049 66.0388 5.59526 65.7781 5.6023C65.2284 5.6164 65.1227 5.50365 65.4328 5.23587C65.5667 5.12312 65.6442 4.92581 65.6371 4.72145C65.6231 4.33388 65.8204 4.24227 66.5603 4.27046C66.8281 4.28455 67.0536 4.24932 67.0676 4.19999C67.0817 4.15066 66.969 3.96745 66.828 3.79128C66.6448 3.56578 66.4757 3.46712 66.2573 3.46008C66.0881 3.46008 65.8838 3.36847 65.8063 3.26981C65.7006 3.13593 65.5667 3.10774 65.2918 3.15707C64.7352 3.25572 63.8754 3.16411 63.3328 2.94566C62.3533 2.55104 58.7736 2.36782 57.5545 2.65674C57.3783 2.69902 57.1458 2.61446 56.8005 2.39601C56.3213 2.08595 56.279 2.07891 55.8703 2.22689C55.6377 2.31145 55.1374 2.41011 54.7639 2.43829C54.3905 2.46648 53.2841 2.62856 52.3187 2.79063C51.3463 2.95271 49.8312 3.15707 48.9503 3.24163C48.0695 3.32619 46.7658 3.50236 46.0612 3.6292C43.6723 4.05201 43.0099 4.13657 42.9747 4.03087C42.9394 3.90403 46.5474 3.24163 48.6685 2.9809C49.2252 2.91043 50.3527 2.7554 51.1701 2.6356C51.9875 2.51581 52.7838 2.40306 52.9459 2.38192C53.1079 2.36782 54.2284 2.13528 55.4475 1.87455C56.6666 1.61382 58.2662 1.3249 59.0132 1.24034C59.7601 1.15578 60.789 0.986654 61.3034 0.873905C62.8325 0.528612 62.9453 0.486331 62.8889 0.303115C62.8184 0.0705706 61.9094 -0.119693 61.402 -0.0139909C59.0413 0.507472 57.181 0.810484 57.181 0.676595C57.181 0.613174 57.6109 0.479285 58.2873 0.345396C59.598 0.0776174 59.288 0.0212431 57.5827 0.218553C56.9766 0.289021 56.4058 0.324255 56.3072 0.303115C56.2085 0.274928 55.4052 0.394723 54.5244 0.556799C52.7486 0.895045 50.4865 1.24034 49.204 1.36718C48.746 1.41651 47.4564 1.62791 46.343 1.84636C45.2014 2.06481 44.2501 2.20575 44.1656 2.16347C44.081 2.12119 44.0176 2.01549 44.0246 1.93092C44.0317 1.80408 43.9824 1.79703 43.7498 1.91683C43.5948 1.99434 43.3411 2.093 43.1861 2.13528C43.031 2.17756 42.876 2.24803 42.8337 2.29031C42.6364 2.50876 41.9176 2.71312 38.2533 3.57283L34.3071 4.49596L34.293 4.5171C34.1662 4.48186 34.0464 4.44663 33.9125 4.41844C33.0739 4.68622 32.4961 4.82011 32.5243 4.73555C32.5384 4.67213 32.4749 4.64394 32.3833 4.66508C32.2917 4.68622 31.8619 4.74964 31.432 4.81306C30.8965 4.89058 30.6428 4.96104 30.6216 5.05265C30.6005 5.12312 30.5089 5.20063 30.4173 5.22178C30.3186 5.24292 30.2411 5.32043 30.2411 5.39795C30.2411 5.4966 30.1988 5.51069 30.072 5.44727C29.8958 5.35566 28.416 5.57412 28.4512 5.67982C28.4935 5.81371 28.0355 5.94055 27.9509 5.82075C27.8945 5.74324 27.7254 5.72914 27.514 5.78552C27.1969 5.87008 27.1828 5.87713 27.4224 5.91236C27.5845 5.9335 27.2392 6.02511 26.4993 6.16605C25.851 6.28584 25.2802 6.34926 25.2379 6.29993L25.0617 6.31403C25.0124 6.3704 24.5755 6.45496 24.0893 6.51134C23.4198 6.58885 23.1943 6.64523 23.1661 6.75093C23.1379 6.84958 22.9124 6.92005 22.2994 7.00461C21.7145 7.08213 21.4397 7.15964 21.3692 7.26535C21.2917 7.37809 21.1789 7.39219 20.8618 7.32877C20.6363 7.28649 20.1712 7.29353 19.833 7.34991C19.4877 7.40628 19.079 7.43447 18.9169 7.40628C18.7548 7.37809 18.4871 7.39219 18.3179 7.42742C18.1488 7.46266 17.7331 7.46266 17.4019 7.42742C17.0636 7.38514 16.6972 7.37809 16.5844 7.39923C16.4717 7.42037 16.3378 7.39923 16.2885 7.35695C16.2391 7.30763 16.2885 7.25125 16.4012 7.22306C16.514 7.19488 16.5633 7.14555 16.521 7.10327C16.4787 7.06099 16.2744 7.07508 16.07 7.13146C15.8657 7.18783 15.6895 7.20897 15.6824 7.17374C15.6754 7.1385 15.3442 6.98347 14.9566 6.83549C14.4563 6.63818 14.1956 6.58885 14.0617 6.65932C13.9489 6.72274 13.7164 6.70865 13.4768 6.63113C13.2583 6.56067 13.0258 6.51134 12.9553 6.52543C12.8849 6.53953 12.7016 6.4902 12.5396 6.40564C12.1872 6.23651 12.1168 6.23651 12.1731 6.42678C12.1943 6.50429 12.462 6.7016 12.758 6.87072C13.1879 7.11032 13.3006 7.22306 13.3006 7.39923C13.3006 7.56836 13.2442 7.61768 13.0751 7.59654C12.9553 7.58245 12.7792 7.59654 12.6875 7.61768C12.5959 7.64587 12.5114 7.61768 12.4973 7.56836C12.4832 7.51198 12.3423 7.52608 12.1661 7.61064C11.997 7.68815 11.694 7.73043 11.4966 7.70929C11.1091 7.66701 10.9611 7.51198 11.243 7.44856C11.3487 7.42742 11.2923 7.37809 11.0809 7.32172C10.9047 7.27239 10.6651 7.17374 10.5453 7.11032C10.3339 6.99052 9.81246 6.96233 9.09368 7.0328C8.71316 7.06803 8.71316 7.07508 9.04436 7.08918C9.4883 7.11032 9.94635 7.32172 10.052 7.55426C10.0943 7.65292 10.2 7.75862 10.2775 7.77976C10.3551 7.80795 10.5312 7.87842 10.6581 7.94888C10.8836 8.06163 10.8624 8.07573 10.3621 8.1321C8.99503 8.29418 8.91047 8.30827 9.65743 8.28713C10.0943 8.27304 11.0245 8.19552 11.7292 8.11801C12.6382 8.01935 13.1385 8.0123 13.4486 8.09687C14.0123 8.2519 14.1744 8.21666 13.808 8.01935L13.5261 7.86432H13.8291C13.9912 7.86432 14.2872 7.85728 14.4704 7.84318C14.6606 7.82909 14.9496 7.89956 15.1116 7.99116C15.5485 8.2378 16.4928 8.5831 16.6408 8.55491C16.7113 8.54081 16.7817 8.57605 16.7958 8.63242L16.7113 8.69584L16.5069 8.75926C16.4435 8.82973 16.4928 8.86497 16.669 8.87906C16.8381 8.88846 16.8358 8.91664 16.6619 8.96362C16.521 8.99886 16.3166 8.97772 16.218 8.91429C15.9995 8.77336 15.4217 8.87201 15.5697 9.02C15.6331 9.07637 15.612 9.1116 15.5204 9.09751C15.4428 9.08342 15.3724 9.02704 15.3653 8.95658C15.3653 8.89315 15.316 8.85087 15.2596 8.85792L15.1892 8.96362C15.2033 9.0059 15.0764 9.05523 14.9073 9.06932C14.6888 9.08342 14.6325 9.05523 14.7029 8.97772C14.7804 8.89315 14.7593 8.87201 14.6184 8.90725C14.5127 8.92839 14.266 8.89315 14.0687 8.81564C13.6459 8.66766 13.5332 8.66766 13.7375 8.81564C13.815 8.87906 13.8644 8.96362 13.8362 9.0059L13.9066 9.06228C13.9701 9.04818 14.1885 9.16093 14.3999 9.31596C14.6113 9.47099 14.8721 9.60488 14.9848 9.61193C15.2455 9.64011 15.2878 9.80219 15.0553 9.85856C14.9566 9.8797 14.8016 9.82333 14.71 9.72468C14.5268 9.52032 14.3506 9.52736 14.414 9.73877C14.4492 9.85856 14.3999 9.87971 14.1885 9.84447C14.0405 9.82333 13.66 9.85856 13.3359 9.92903C13.0187 9.9995 12.5959 10.0488 12.3986 10.0418C12.2013 10.0347 11.8842 10.0206 11.6869 10.0065C11.3205 9.99245 9.8336 9.47804 9.79836 9.3512C9.77722 9.28778 10.6792 9.24549 11.2993 9.27368C11.4544 9.28073 11.5671 9.24549 11.553 9.19617C11.5107 9.04818 8.36082 9.11865 8.31854 9.27368C8.30444 9.32301 8.45947 9.3371 8.64974 9.31596C9.14301 9.25254 9.26281 9.47099 8.79772 9.59079L8.43833 9.68239L8.78362 9.6683C8.98798 9.66125 9.15711 9.71763 9.20643 9.80924C9.26985 9.94313 9.22053 9.96427 8.80476 9.97131C7.88868 9.98541 7.28266 9.90789 6.78938 9.71058C6.18336 9.46394 5.979 9.47804 6.45114 9.73172C6.6414 9.83742 6.83166 9.90789 6.87394 9.90085C6.91622 9.8938 6.9726 9.95017 6.99374 10.0347C7.02897 10.1475 6.9726 10.1827 6.7612 10.1827C6.60617 10.1827 6.43 10.1475 6.37362 10.1122C6.3102 10.077 6.12698 10.077 5.96491 10.1122C5.58438 10.1968 4.33005 10.0418 3.69584 9.83038C3.42102 9.73877 3.14619 9.69649 3.08982 9.73877C3.0264 9.7881 3.04754 9.80219 3.15324 9.7881C3.24485 9.774 3.32941 9.79514 3.3435 9.84447C3.37873 9.95722 2.28648 9.95722 1.87072 9.84447C1.44087 9.72468 1.34926 9.74582 1.33516 9.97131C1.31402 10.2532 1.60999 10.373 2.70224 10.5139C3.26599 10.5844 3.87201 10.6689 4.06227 10.6901C4.25254 10.7183 4.40757 10.8028 4.41461 10.8803C4.42166 10.9579 4.49917 11.0354 4.57669 11.0424C4.68239 11.0565 4.68944 11.0142 4.61192 10.9015C4.52032 10.7676 4.54146 10.7465 4.73172 10.7535C4.85856 10.7535 5.69713 10.7465 6.59912 10.7183C9.43193 10.6337 10.3198 10.6408 10.6722 10.7676C11.0738 10.9085 11.2148 10.8944 11.0175 10.7465C10.9047 10.6549 11.0386 10.6267 11.7785 10.5703C13.054 10.4716 13.5684 10.528 13.7587 10.7817C13.9137 10.9861 13.9419 10.9861 14.717 10.7465C15.316 10.5562 15.5415 10.528 15.6261 10.6055C15.6895 10.6689 15.8163 10.7042 15.9079 10.6901C16.0418 10.6689 16.0489 10.6408 15.9291 10.5492C15.8093 10.4575 15.8234 10.4223 16.0207 10.38C16.1546 10.3518 16.3026 10.3659 16.3448 10.4153C16.3942 10.4646 16.5633 10.4716 16.7324 10.4364C17.2045 10.3307 16.8945 10.5703 16.1757 10.8522C15.8304 10.9861 15.4428 11.1199 15.309 11.1411C15.1751 11.1622 14.9637 11.2397 14.8368 11.3173C14.6536 11.4159 14.5902 11.4159 14.5549 11.2961C14.4986 11.0918 14.3506 11.1411 14.111 11.43C13.956 11.6203 13.7868 11.6907 13.2654 11.7682C12.8144 11.8387 12.61 11.8246 12.5818 11.733C12.5255 11.5287 12.2929 11.4934 12.2577 11.6766C12.2154 11.8739 11.5882 11.9867 10.792 11.9374C10.5101 11.9233 9.97453 11.9233 9.59401 11.9374C9.21348 11.9585 8.81886 11.9233 8.71316 11.8599C8.53699 11.7612 8.03666 11.733 7.17696 11.7753C6.89508 11.7894 6.64845 11.6837 6.12698 11.3384C5.44345 10.8803 5.23909 10.8381 5.76055 11.2609C5.91558 11.3807 6.02128 11.5075 6.00719 11.5357C5.99309 11.5639 5.56324 11.5357 5.06292 11.4793C4.55555 11.4159 4.05523 11.3877 3.94952 11.4159C3.84382 11.437 3.61833 11.4159 3.44216 11.3736C3.118 11.282 2.51198 11.3525 2.77976 11.4582C2.85727 11.4864 2.67406 11.5427 2.37104 11.585C1.87777 11.6484 1.83549 11.6766 1.97642 11.7823C2.06803 11.8528 2.35695 11.9162 2.61768 11.9303C2.87841 11.9444 3.19552 11.9726 3.30827 12.0008C3.54786 12.0572 4.37233 12.0642 4.81628 12.0219C5.37298 11.9656 6.31725 12.0219 6.1904 12.1135C5.82397 12.3602 5.59847 12.4025 5.15453 12.3108C4.88675 12.2545 4.6683 12.2474 4.6683 12.3038C4.6683 12.3602 4.52736 12.4165 4.35824 12.4377C4.18912 12.4588 4.13979 12.487 4.25254 12.4941C4.36529 12.5011 4.71058 12.5645 5.02064 12.635C5.3307 12.7055 5.76055 12.7477 5.97195 12.7407C6.59207 12.7055 6.46523 12.8394 5.78169 12.9521C5.4364 13.0085 5.16862 13.086 5.18271 13.1353C5.19681 13.1846 5.37298 13.1987 5.57029 13.1565C5.77464 13.1212 6.50046 13.1353 7.184 13.1846C7.87459 13.234 8.51585 13.2622 8.6145 13.241C8.71316 13.2199 8.81181 13.2622 8.83295 13.3397C8.88933 13.544 9.14301 13.5581 10.052 13.3961C11.3487 13.1706 12.3 13.2058 12.2295 13.4736C12.1802 13.6497 9.03026 13.833 8.21988 13.7061C7.70547 13.6286 7.36017 13.6356 6.93032 13.7484C6.59207 13.833 5.979 13.8823 5.48573 13.8682C5.01359 13.8541 4.37233 13.84 4.05523 13.847C3.73812 13.847 3.20961 13.7766 2.87137 13.6779C2.53312 13.5793 2.21601 13.5299 2.15964 13.5652C2.10327 13.6004 2.18078 13.6638 2.33581 13.7061C2.77976 13.833 3.59014 14.2346 3.54786 14.3121C3.52672 14.3474 3.32236 14.3544 3.08982 14.3262C2.50493 14.2487 2.39218 14.298 2.82204 14.446C3.01935 14.5165 3.19552 14.6151 3.20961 14.6715C3.28008 14.9252 5.01359 15.1507 6.16926 15.0591C7.00783 14.9886 7.67023 14.9745 9.19234 14.9745C9.43193 14.9745 10.2423 14.9393 10.9963 14.897C11.2007 14.8829 11.405 14.9182 11.4544 14.9604C11.5107 15.0168 11.398 15.0591 11.1091 15.0732C10.8695 15.0873 10.3339 15.1507 9.91111 15.2212C8.9457 15.3762 8.71316 15.4044 7.92392 15.4396C7.57158 15.4537 6.83166 15.5453 6.28201 15.6369C5.73236 15.7285 5.02768 15.8342 4.72467 15.8765C4.42166 15.9118 4.17502 15.9681 4.18207 15.9963C4.18912 16.0245 4.37233 16.0809 4.58374 16.1232C4.9854 16.2007 5.37298 16.1584 5.26728 16.0527C5.23204 16.0175 5.61257 15.9118 6.11994 15.8202C7.12763 15.6299 7.45178 15.7074 7.49406 16.1302C7.5152 16.3205 7.55748 16.3557 7.74775 16.3134C7.87459 16.2852 8.19874 16.3134 8.46652 16.3698C8.83295 16.4544 8.93161 16.5107 8.85409 16.5953C8.79772 16.6587 8.67792 16.7292 8.60041 16.7503C8.51585 16.7715 8.389 16.9194 8.30444 17.0815C8.21988 17.2436 8.10009 17.3916 8.02257 17.4127C7.9521 17.4268 7.93096 17.4832 7.98029 17.5255C8.10009 17.6453 8.02257 17.6523 7.57862 17.5607C7.02193 17.455 6.82462 17.5325 7.23333 17.6946L7.57158 17.8285L7.09944 17.9342C6.83871 17.9906 6.45818 17.9976 6.25383 17.9412C5.94377 17.8567 5.84511 17.7721 5.70418 17.455L5.53505 17.0674L5.62666 17.4409C5.68304 17.6664 5.67599 17.8285 5.60552 17.8426C5.41526 17.8849 4.82333 17.6453 4.31596 17.3141C4.05523 17.1449 3.68879 16.9547 3.50558 16.8913L3.17438 16.7785L3.57605 17.0322C4.01295 17.307 4.05523 17.5114 3.6747 17.5184C3.43511 17.5184 3.38578 17.6453 3.59719 17.7228C3.75221 17.7792 3.78745 17.9483 3.64651 17.9765C3.37169 18.0328 2.364 17.7157 1.82139 17.3916C1.41268 17.1449 1.18718 17.0745 1.06739 17.1379C0.947591 17.2084 0.834843 17.1661 0.693907 17.004C0.581158 16.8772 0.482503 16.7997 0.468409 16.8278C0.419082 16.9265 0.891217 17.3845 1.28584 17.6171C1.84253 17.9412 2.31467 18.1245 2.64587 18.1315C2.95593 18.1385 3.06868 18.3077 2.81499 18.3781C2.56835 18.4416 3.25894 18.5332 4.50622 18.6036C6.97965 18.7375 7.3038 18.7657 7.32494 18.8503C7.34608 18.9348 7.21219 19.0123 7.03602 19.0123C6.98669 19.0123 6.87394 19.104 6.77529 19.2167C6.67663 19.3295 6.48637 19.4422 6.34543 19.4774C6.10584 19.5338 6.10584 19.5409 6.30315 19.6325C6.59912 19.7664 6.43704 19.8861 5.97195 19.8791C5.7535 19.8791 5.45754 19.9002 5.3166 19.9284C4.90789 20.02 3.90724 19.7241 3.17438 19.3083L2.49789 18.9207L2.98411 19.3013C3.25189 19.5127 3.64651 19.7523 3.86496 19.8439C4.08341 19.9355 4.27368 20.0553 4.28777 20.1187C4.33005 20.2596 4.66125 20.2808 5.12634 20.1821C5.3166 20.1398 5.5421 20.1539 5.63371 20.2103C5.72532 20.2667 5.88035 20.3231 5.979 20.3442C6.42295 20.4147 6.02833 20.7952 5.52801 20.7811C5.32365 20.774 5.29546 20.8022 5.38002 20.922C5.4364 21.0066 5.4364 21.0771 5.38002 21.0912C5.04178 21.1687 5.65485 21.972 6.30315 22.2962C6.45114 22.3737 6.56389 22.4512 6.54979 22.4723C6.50046 22.5639 5.18976 22.5076 4.62602 22.3878C4.28777 22.3173 4.01999 22.275 4.02704 22.3032C4.04818 22.3737 5.32365 22.6555 6.21155 22.7894C6.66959 22.8528 7.07125 22.9586 7.10649 23.0079C7.22628 23.1911 6.59207 23.3673 5.59847 23.4236C5.05587 23.4589 4.55555 23.5012 4.47803 23.5152C4.2314 23.5787 4.87265 23.7337 5.14043 23.6773C5.28137 23.6491 5.46459 23.635 5.55619 23.6491C5.73236 23.6773 5.85921 23.9381 5.71122 23.9733C5.57029 24.0015 4.59783 23.9451 4.09046 23.8746C3.45625 23.783 3.08277 23.8746 3.14619 24.1213C3.18847 24.2622 3.29417 24.3045 3.60423 24.2833C3.8861 24.2693 4.04113 24.3186 4.1116 24.4384C4.19616 24.5793 4.26663 24.5934 4.50622 24.4947C4.774 24.382 5.23909 24.375 5.80283 24.4807C5.91558 24.5018 6.3102 24.5652 6.66959 24.6216C7.35313 24.7273 7.59272 24.8964 7.06421 24.9035C6.81757 24.9035 6.77529 24.9317 6.8528 25.0444C6.97965 25.2206 6.33134 25.7632 5.81693 25.9253C5.61257 25.9887 5.14748 26.1578 4.774 26.3058C4.16093 26.5524 2.54017 26.8766 2.10327 26.8484C2.00461 26.8484 1.93414 26.8766 1.94824 26.9259C1.98347 27.0527 2.67406 26.9893 4.27368 26.7074C5.38002 26.5101 5.61961 26.496 5.52096 26.6229C5.40821 26.7638 5.4223 26.7779 5.63371 26.792C5.76055 26.792 6.03538 26.7638 6.24678 26.7215C6.60617 26.644 6.88804 26.7215 6.94441 26.9118C6.95851 26.9611 6.45818 27.1021 5.83807 27.2289C5.21795 27.3557 4.68239 27.4967 4.66125 27.539C4.64011 27.5812 4.73172 27.5953 4.87265 27.5601C5.01359 27.5249 5.26728 27.539 5.42935 27.5883C5.95081 27.7292 7.56453 27.5883 9.01617 27.2641C9.78427 27.095 10.6933 26.9541 11.0527 26.9541C11.4121 26.9541 11.6164 26.9752 11.5037 27.0034C11.2923 27.0598 10.9188 27.5249 10.9611 27.6729C10.9963 27.7856 12.2154 27.3839 12.2225 27.2641C12.2295 27.1373 12.4902 27.088 12.5255 27.2148C12.5396 27.2712 12.6664 27.2853 12.8073 27.243L13.061 27.1725L12.8003 27.1443C12.5537 27.1162 12.5607 27.1162 12.8426 27.0386C13.0117 26.9964 13.1597 27.0105 13.1738 27.0668C13.1879 27.1303 13.2795 27.1303 13.3711 27.0668C13.4627 27.0105 13.5543 27.0034 13.5684 27.0527C13.5825 27.1021 13.6952 27.1021 13.815 27.0457C13.9348 26.9893 14.1603 26.9541 14.3154 26.9541L14.5972 26.9682L14.3224 27.2289C14.1744 27.3698 13.9137 27.5249 13.7446 27.5601C13.5332 27.6094 13.4556 27.6799 13.4838 27.7856C13.5191 27.9054 13.4416 27.9547 13.1174 27.997C12.8003 28.0463 12.6735 28.0111 12.5537 27.8561C12.2577 27.4685 12.0463 27.701 12.2013 28.2577C12.3 28.6312 12.1802 28.9765 11.9265 29.0329C11.8278 29.054 11.6235 29.2091 11.4685 29.3852C11.2007 29.6741 11.1302 29.7023 10.2705 29.8221C9.77018 29.8926 9.07959 29.9772 8.7343 30.0124C8.2833 30.0617 8.14237 30.104 8.21283 30.1745C8.33968 30.3013 8.11418 30.3506 7.73365 30.2872C7.57158 30.259 7.37427 30.2449 7.2897 30.252C7.21219 30.252 6.8669 30.2449 6.52865 30.2167C6.19041 30.1886 5.83102 30.1604 5.73941 30.1533C5.62666 30.1463 5.57733 30.1956 5.60552 30.2872C5.63371 30.3929 5.84511 30.4282 6.31725 30.407C7.184 30.3647 7.53634 30.4986 6.78938 30.5761C6.49342 30.6043 5.76055 30.7171 5.16157 30.8298C4.5626 30.9355 3.83678 31.0201 3.54786 31.0201C3.11096 31.0201 2.98411 31.0553 2.73748 31.2667C2.55426 31.4217 2.26534 31.5486 1.94824 31.605C1.53248 31.6754 1.41973 31.7389 1.29288 31.9714C1.06739 32.3872 1.29288 32.5422 1.99052 32.4647C2.30762 32.4294 2.99821 32.4294 3.53376 32.4647C4.06932 32.4999 4.70353 32.5281 4.95017 32.5281C5.3307 32.5281 7.77593 32.3026 8.00143 32.2603C8.04371 32.2533 8.06485 32.3026 8.04371 32.366C8.02257 32.4506 8.11418 32.4506 8.36082 32.3449C8.55108 32.2674 9.40374 32.1194 10.2564 32.0207C11.1091 31.9221 12.0181 31.8093 12.2859 31.7741C12.9835 31.6895 13.2302 31.6966 13.1949 31.8234C13.1808 31.8868 13.0751 31.9573 12.9553 31.9784C12.6735 32.0419 12.5748 32.2603 12.6664 32.5915C12.7721 32.965 12.5959 32.9932 11.3205 32.7818C10.7638 32.6902 10.7567 32.6902 11.0316 32.8311C11.1936 32.9086 11.3557 32.972 11.398 32.965L11.5037 33.0636C11.5248 33.1412 11.1936 33.2328 10.3692 33.3667C9.72789 33.4724 8.76248 33.6415 8.23398 33.7401C7.24742 33.9234 6.84576 33.9163 7.14877 33.712C7.24742 33.6485 7.05716 33.6344 6.66959 33.6838C6.31725 33.726 5.84511 33.719 5.61962 33.6697C5.39412 33.6203 5.12634 33.5922 5.02064 33.6063C4.91494 33.6203 4.73877 33.6485 4.62602 33.6626C4.51327 33.6767 4.20321 33.6063 3.92838 33.4935C3.64651 33.3808 3.40692 33.3385 3.37169 33.3948C3.28713 33.5428 3.82268 34.4589 3.97771 34.4307C4.23844 34.3744 4.17502 34.7196 3.87906 34.9451C3.70993 35.072 3.4633 35.3186 3.33645 35.4948C3.08982 35.8189 2.82908 35.8753 2.75157 35.6146C2.73043 35.5371 2.65996 35.4525 2.59654 35.4314C2.364 35.3468 2.56131 35.6075 2.94183 35.8824C3.45625 36.2558 3.70289 36.3122 4.90789 36.3334C6.3102 36.3615 7.62795 36.5095 8.38196 36.728C9.03026 36.9182 9.25576 37.0874 8.84705 37.0874C7.7407 37.0803 6.77529 37.031 6.60617 36.9887C6.47932 36.9535 6.38067 36.9746 6.34543 37.0451C6.24678 37.2283 6.62731 37.6229 6.93032 37.6652L7.1981 37.7004L6.97965 37.8625C6.85985 37.9541 6.7471 38.0739 6.73301 38.1303C6.67663 38.3417 6.90918 38.532 7.15582 38.4756C7.69137 38.3628 9.29099 38.5742 9.69266 38.8209C9.91111 38.9548 10.2423 39.0534 10.4537 39.0464C10.6581 39.0393 10.8624 39.0746 10.9118 39.1239C10.9681 39.1803 10.8765 39.2155 10.644 39.2225C10.2212 39.2366 10.2141 39.3776 10.6369 39.5467C10.799 39.6101 10.9188 39.6806 10.9047 39.7088C10.8624 39.7792 9.07959 39.6383 8.91047 39.5467C8.83295 39.5044 8.65678 39.5185 8.52994 39.5819C8.33263 39.6735 6.77529 39.5819 6.02833 39.4339C5.91558 39.4128 5.85216 39.441 5.8733 39.5115C5.89444 39.5749 5.98605 39.6313 6.0847 39.6454C6.18336 39.6594 6.45818 39.7088 6.69073 39.7581C6.92327 39.8074 7.33199 39.8427 7.59272 39.8356C8.14237 39.8215 8.24807 39.9343 7.93801 40.202C7.80412 40.3148 7.72661 40.5121 7.73365 40.7165C7.74775 41.104 7.55044 41.1956 6.81052 41.1675C6.54274 41.1534 6.31725 41.1886 6.30315 41.2379C6.28906 41.2873 6.40181 41.4705 6.54274 41.6466C6.72596 41.8721 6.89508 41.9708 7.11353 41.9778C7.28266 41.9778 7.48702 42.0695 7.56453 42.1681C7.67023 42.302 7.80412 42.3302 8.07895 42.2809C8.63564 42.1822 9.49535 42.2738 10.038 42.4923C11.0175 42.8869 14.5972 43.0701 15.8163 42.7812C15.9925 42.7389 16.225 42.8235 16.5703 43.0419C17.0495 43.352 17.0918 43.359 17.5005 43.211C17.7331 43.1265 18.2334 43.0278 18.6069 42.9996C18.9803 42.9714 20.0867 42.8094 21.0521 42.6473C22.0245 42.4852 23.5396 42.2809 24.4205 42.1963C25.3013 42.1117 26.605 41.9356 27.3096 41.8087C29.6985 41.3859 30.3609 41.3013 30.3961 41.4071C30.4314 41.5339 26.8234 42.1963 24.7023 42.457C24.1456 42.5275 23.0181 42.6825 22.2007 42.8023C21.3833 42.9221 20.587 43.0349 20.4249 43.056C20.2628 43.0701 19.1424 43.3026 17.9233 43.5634C16.7042 43.8241 15.1046 44.113 14.3576 44.1976C13.6107 44.2821 12.5818 44.4513 12.0674 44.564C10.5383 44.9093 10.4255 44.9516 10.4819 45.1348C10.5524 45.3674 11.4614 45.5576 11.9688 45.4519C14.3295 44.9304 16.1898 44.6274 16.1898 44.7613C16.1898 44.8247 15.7599 44.9586 15.0835 45.0925C13.7728 45.3603 14.0828 45.4167 15.7881 45.2194C16.3942 45.1489 16.965 45.1137 17.0636 45.1348C17.1623 45.163 17.9656 45.0432 18.8464 44.8811C20.6222 44.5429 22.8843 44.1976 24.1668 44.0707C24.6248 44.0214 25.9144 43.81 27.0278 43.5916C28.1694 43.3731 29.1207 43.2322 29.2052 43.2745C29.2898 43.3167 29.3532 43.4224 29.3462 43.507C29.3391 43.6338 29.3884 43.6409 29.621 43.5211C29.776 43.4436 30.0297 43.3449 30.1847 43.3026C30.3398 43.2604 30.4948 43.1899 30.5371 43.1476C30.7344 42.9292 31.4532 42.7248 35.1175 41.8651L39.0637 40.942L39.0778 40.9208C39.2046 40.9561 39.3244 40.9913 39.4583 41.0195C40.2969 40.7517 40.8747 40.6178 40.8465 40.7024C40.8324 40.7658 40.8959 40.794 40.9875 40.7728C41.0791 40.7517 41.5089 40.6883 41.9388 40.6249C42.4743 40.5473 42.728 40.4769 42.7492 40.3853C42.7703 40.3148 42.8619 40.2373 42.9535 40.2161C43.0522 40.195 43.1297 40.1175 43.1297 40.04C43.1297 39.9413 43.172 39.9272 43.2988 39.9906C43.475 40.0823 44.9548 39.8638 44.9196 39.7581C44.8773 39.6242 45.3353 39.4974 45.4199 39.6172C45.4763 39.6947 45.6454 39.7088 45.8568 39.6524C46.1739 39.5678 46.188 39.5608 45.9484 39.5256C45.7863 39.5044 46.1316 39.4128 46.8715 39.2719C47.5198 39.1521 48.0906 39.0887 48.1329 39.138L48.3091 39.1239C48.3584 39.0675 48.7953 38.983 49.2815 38.9266C49.951 38.8491 50.1765 38.7927 50.2047 38.687C50.2329 38.5883 50.4584 38.5179 51.0714 38.4333C51.6563 38.3558 51.9311 38.2783 52.0016 38.1726C52.0791 38.0598 52.1919 38.0457 52.509 38.1092C52.7345 38.1514 53.1996 38.1444 53.5378 38.088C53.8831 38.0316 54.2918 38.0035 54.4539 38.0316C54.616 38.0598 54.8837 38.0457 55.0529 38.0105C55.222 37.9753 55.6377 37.9753 55.9689 38.0105C56.3072 38.0528 56.6736 38.0598 56.7864 38.0387C56.8991 38.0175 57.033 38.0387 57.0823 38.081C57.1317 38.1303 57.0823 38.1867 56.9696 38.2149C56.8568 38.243 56.8075 38.2924 56.8498 38.3347C56.8921 38.3769 57.0964 38.3628 57.3008 38.3065C57.5051 38.2501 57.6813 38.2289 57.6884 38.2642C57.6954 38.2994 58.0266 38.4544 58.4142 38.6024C58.9145 38.7997 59.1752 38.8491 59.3091 38.7786C59.4219 38.7152 59.6544 38.7293 59.894 38.8068C60.1125 38.8773 60.345 38.9266 60.4155 38.9125C60.4859 38.8984 60.6692 38.9477 60.8312 39.0323C61.1836 39.2014 61.254 39.2014 61.1977 39.0111C61.1765 38.9336 60.9087 38.7363 60.6128 38.5672C60.1829 38.3276 60.0702 38.2149 60.0702 38.0387C60.0702 37.8696 60.1266 37.8202 60.2957 37.8414C60.4155 37.8555 60.5916 37.8414 60.6833 37.8202C60.7749 37.792 60.8594 37.8202 60.8735 37.8696C60.8876 37.9259 61.0285 37.9118 61.2047 37.8273C61.3738 37.7498 61.6768 37.7075 61.8742 37.7286C62.2617 37.7709 62.4097 37.9259 62.1278 37.9894C62.0221 38.0105 62.0785 38.0598 62.2899 38.1162C62.4661 38.1655 62.7057 38.2642 62.8255 38.3276C63.0369 38.4474 63.5583 38.4756 64.2771 38.4051C64.6576 38.3699 64.6576 38.3628 64.3264 38.3487C63.8825 38.3276 63.4245 38.1162 63.3188 37.8837C63.2765 37.785 63.1708 37.6793 63.0933 37.6582C63.0157 37.63 62.8396 37.5595 62.7127 37.489C62.4872 37.3763 62.5084 37.3622 63.0087 37.3058C64.3758 37.1437 64.4603 37.1297 63.7134 37.1508C63.2765 37.1649 62.3463 37.2424 61.6416 37.3199C60.7326 37.4186 60.2323 37.4256 59.9222 37.3411C59.3585 37.186 59.1964 37.2213 59.5628 37.4186L59.8447 37.5736H59.5417C59.3796 37.5736 59.0836 37.5806 58.9004 37.5947C58.7101 37.6088 58.4212 37.5384 58.2592 37.4468C57.8223 37.2001 56.878 36.8548 56.73 36.883C56.6595 36.8971 56.5891 36.8619 56.575 36.8055L56.6595 36.7421L56.8639 36.6787C56.9273 36.6082 56.878 36.573 56.7018 36.5589C56.5327 36.5495 56.535 36.5213 56.7089 36.4743C56.8498 36.4391 57.0542 36.4602 57.1528 36.5236C57.3713 36.6646 57.9491 36.5659 57.8011 36.4179C57.7377 36.3615 57.7588 36.3263 57.8504 36.3404C57.928 36.3545 57.9984 36.4109 58.0055 36.4813C58.0055 36.5448 58.0548 36.587 58.1112 36.58L58.1816 36.4743C58.1675 36.432 58.2944 36.3827 58.4635 36.3686C58.682 36.3545 58.7383 36.3827 58.6679 36.4602C58.5904 36.5448 58.6115 36.5659 58.7524 36.5307C58.8581 36.5095 59.1048 36.5448 59.3021 36.6223C59.7249 36.7703 59.8376 36.7703 59.6333 36.6223C59.5558 36.5589 59.5064 36.4743 59.5346 36.432L59.4642 36.3756C59.4007 36.3897 59.1823 36.277 58.9709 36.122C58.7595 35.9669 58.4987 35.833 58.386 35.826C58.1253 35.7978 58.083 35.6357 58.3155 35.5794C58.4142 35.5582 58.5692 35.6146 58.6608 35.7132C58.844 35.9176 59.0202 35.9106 58.9568 35.6992C58.9216 35.5794 58.9709 35.5582 59.1823 35.5934C59.3303 35.6146 59.7108 35.5794 60.0349 35.5089C60.3521 35.4384 60.7749 35.3891 60.9722 35.3961C61.1695 35.4032 61.4866 35.4173 61.6839 35.4314C62.0503 35.4455 63.5372 35.9599 63.5724 36.0867C63.5936 36.1501 62.6916 36.1924 62.0715 36.1642C61.9164 36.1572 61.8037 36.1924 61.8178 36.2418C61.8601 36.3897 65.01 36.3193 65.0523 36.1642C65.0664 36.1149 64.9113 36.1008 64.7211 36.122C64.2278 36.1854 64.108 35.9669 64.5731 35.8471L64.9325 35.7555L64.5872 35.7696C64.3828 35.7767 64.2137 35.7203 64.1644 35.6287C64.1009 35.4948 64.1503 35.4737 64.566 35.4666C65.4821 35.4525 66.0881 35.53 66.5814 35.7273C67.1874 35.974 67.3918 35.9599 66.9197 35.7062C66.7294 35.6005 66.5391 35.53 66.4969 35.5371C66.4546 35.5441 66.3982 35.4877 66.3771 35.4032C66.3418 35.2904 66.3982 35.2552 66.6096 35.2552C66.7646 35.2552 66.9408 35.2904 66.9972 35.3257C67.0606 35.3609 67.2438 35.3609 67.4059 35.3257C67.7864 35.2411 69.0407 35.3961 69.675 35.6075C69.9498 35.6992 70.2246 35.7414 70.281 35.6992C70.3444 35.6498 70.3233 35.6357 70.2176 35.6498C70.126 35.6639 70.0414 35.6428 70.0273 35.5934C69.9921 35.4807 71.0843 35.4807 71.5001 35.5934C71.9299 35.7132 72.0215 35.6921 72.0356 35.4666ZM65.1932 7.32877C65.2425 7.32172 65.2989 7.37809 65.32 7.45561C65.3412 7.54017 65.2989 7.61768 65.2284 7.63882C65.1439 7.65997 65.0945 7.60359 65.1016 7.51198C65.1016 7.42037 65.1509 7.34286 65.1932 7.32877ZM64.559 8.11096C64.6083 8.16029 64.5449 8.22371 64.404 8.2519C64.2701 8.28008 64.1503 8.25894 64.1362 8.20961C64.1221 8.15324 64.1926 8.08982 64.2912 8.06868C64.3899 8.04754 64.5097 8.06868 64.559 8.11096ZM64.2207 7.44856C64.3264 7.42742 64.418 7.44856 64.4392 7.50494C64.4603 7.56131 64.3828 7.62473 64.2771 7.64587C64.1714 7.66701 64.0798 7.64587 64.0587 7.5895C64.0446 7.53312 64.115 7.4697 64.2207 7.44856ZM15.8586 8.13915C15.7529 8.03345 15.8445 8.01935 16.3871 8.06868C16.6619 8.08982 16.8029 8.14619 16.7465 8.20257C16.6478 8.31532 15.9854 8.26599 15.8586 8.13915ZM9.47421 9.90789C9.28395 9.774 9.26985 9.74582 9.3967 9.71763C9.47421 9.69649 9.6081 9.73877 9.69266 9.80219C9.93225 9.98541 9.72789 10.0911 9.48126 9.90789H9.47421ZM14.7382 10.6267C14.6325 10.6478 14.5338 10.6267 14.5197 10.5703C14.5056 10.5139 14.5549 10.4575 14.6254 10.4434C14.7029 10.4294 14.8016 10.4505 14.8439 10.4998C14.8932 10.5491 14.8439 10.6055 14.7382 10.6267ZM16.1757 9.44985C15.6331 9.40757 15.5204 9.25254 16.0066 9.20321C16.2391 9.18207 16.4576 9.18207 16.4928 9.20321C16.669 9.31596 16.4717 9.46394 16.1757 9.4428V9.44985ZM8.14941 38.1514C8.10009 38.1585 8.04371 38.1021 8.02257 38.0246C8.00143 37.94 8.04371 37.8625 8.11418 37.8414C8.19874 37.8202 8.24807 37.8766 8.24102 37.9682C8.24102 38.0598 8.19169 38.1373 8.14941 38.1514ZM8.78362 37.3692C8.7343 37.3199 8.79772 37.2565 8.93865 37.2283C9.07254 37.2001 9.19234 37.2213 9.20643 37.2706C9.22053 37.3199 9.15006 37.3904 9.0514 37.4115C8.95275 37.4327 8.83295 37.4115 8.78362 37.3692ZM9.12187 38.0316C9.01617 38.0528 8.92456 38.0316 8.90342 37.9753C8.88933 37.9189 8.95979 37.8555 9.0655 37.8343C9.1712 37.8132 9.26281 37.8343 9.28395 37.8907C9.29804 37.9471 9.22757 38.0105 9.12187 38.0316ZM56.582 34.5787C56.1874 34.7831 56.0958 34.8042 56.0606 34.6774C56.0394 34.6139 55.9337 34.5223 55.828 34.466C55.6377 34.3814 55.6448 34.3673 55.8421 34.318C55.9619 34.2898 56.2367 34.3039 56.4552 34.3532L56.8498 34.4378L56.5891 34.5717L56.582 34.5787ZM58.0759 33.261C57.7095 33.5992 57.7236 33.5922 57.5474 33.5217C57.4488 33.4865 57.5263 33.3667 57.8152 33.1553C58.3014 32.7818 58.5058 32.8663 58.0759 33.261ZM61.705 31.1892C61.4584 31.2597 61.4513 31.2738 61.6416 31.3231C61.8812 31.3795 59.4148 31.8798 59.1189 31.8305C58.992 31.8093 58.9497 31.7318 58.9427 31.5204C58.9356 31.2808 58.9779 31.2315 59.2175 31.2103C59.3725 31.1963 59.6474 31.2244 59.8306 31.2808C60.1829 31.3865 61.1483 31.2808 60.8524 31.1751C60.5987 31.0835 60.8524 31.0412 61.4725 31.0835C61.9094 31.1117 61.9446 31.1258 61.705 31.1963V31.1892ZM65.468 26.7004C65.2425 26.7145 64.9747 26.7004 64.869 26.6722C64.6506 26.6158 63.7838 26.5313 63.3681 26.5242C63.1778 26.5242 63.1003 26.4819 63.1426 26.4044C63.2201 26.2635 64.5026 26.2776 64.7774 26.4256C64.8761 26.4749 65.1227 26.496 65.3341 26.4679C65.5526 26.4397 65.7499 26.4679 65.7922 26.5454C65.8556 26.6511 65.7922 26.6793 65.461 26.7004H65.468ZM64.5026 28.2296C64.5167 28.2789 64.2348 28.2789 63.8825 28.2366C63.5302 28.1943 63.1637 28.152 63.0792 28.145C62.9664 28.1379 62.9523 28.1098 63.0298 28.0604C63.1637 27.9688 64.4674 28.1168 64.5026 28.2296ZM66.4475 21.2673C66.6589 21.366 66.6589 21.3801 66.363 21.4435C66.1657 21.4928 66.0529 21.4717 66.0529 21.3942C66.0529 21.1969 66.2009 21.1546 66.4475 21.2673ZM65.4117 24.3397C65.3976 24.1847 65.4187 23.9592 65.461 23.8394C65.5385 23.628 65.5526 23.628 65.9754 23.7478C66.4264 23.8676 66.5814 24.0085 66.6801 24.3679C66.7364 24.5582 66.6871 24.5793 65.9824 24.6991C65.5033 24.7837 65.165 24.7907 65.0664 24.7202C64.9325 24.6286 64.9466 24.6145 65.1721 24.6145C65.3976 24.6145 65.4328 24.5793 65.4117 24.3327V24.3397ZM65.2284 23.8183C65.313 24.1142 65.2284 24.2481 65.0523 24.0719L64.869 24.0085V24.1142C64.9113 24.1636 64.8902 24.2129 64.8268 24.227C64.6576 24.2622 63.9882 24.0156 63.953 23.9028C63.8332 23.48 64.1291 23.3109 64.7704 23.4377C65.0734 23.4941 65.1509 23.5575 65.2214 23.8112L65.2284 23.8183ZM64.1009 21.3871C64.1644 21.3801 64.3758 21.3448 64.559 21.3096C64.9959 21.2321 65.017 21.4646 64.5872 21.6478C64.0657 21.8804 64.0446 21.8804 64.0093 21.6338C63.9882 21.5069 64.0305 21.3942 64.0939 21.3871H64.1009ZM61.3738 27.9759C61.5571 27.9336 61.7121 27.9477 61.7332 28.0041C61.7473 28.0604 61.6134 28.1379 61.4302 28.1802C61.247 28.2225 61.092 28.2084 61.0708 28.152C61.0567 28.0957 61.1906 28.0181 61.3738 27.9759ZM61.0215 29.6248C61.5289 29.5191 62.0221 29.3711 62.1278 29.2936C62.304 29.1738 62.297 29.1597 61.9869 29.1597C61.6839 29.1597 61.6628 29.1456 61.7896 28.9906C61.9728 28.751 61.8178 28.6946 61.543 28.8919C61.3879 29.0047 61.2681 29.0329 61.1836 28.9765C60.9369 28.8215 61.1695 28.7158 62.1913 28.5185C63.2553 28.3071 64.1291 28.2789 64.2278 28.441C64.3194 28.596 63.7768 29.1456 63.5513 29.1245C63.4385 29.1104 63.361 29.1456 63.3751 29.1879C63.3963 29.2654 64.3194 29.4416 64.6365 29.4205C64.9043 29.4064 65.5878 29.5896 65.616 29.6882C65.6301 29.7446 65.4398 29.801 65.1298 29.8362C64.8479 29.8644 64.3335 29.9208 63.9952 29.9631C63.65 30.0053 63.3399 30.0335 63.3047 30.0194C63.2694 30.0053 62.6 30.111 61.8248 30.252C59.3091 30.703 59.2175 30.71 59.14 30.4422C59.0836 30.2379 59.9715 29.8503 61.0285 29.6248H61.0215ZM58.7665 32.6408C58.8863 32.6549 59.295 32.6056 59.6685 32.5351C60.6551 32.3519 62.0433 32.2885 62.7902 32.3942C62.8748 32.4083 62.6634 32.5351 62.3252 32.6831L61.705 32.9509L62.3392 32.8241C63.1003 32.669 64.0446 32.6549 63.9107 32.7959C63.8402 32.8734 63.8473 32.9086 63.9459 32.9439C64.1644 33.0214 64.3405 32.817 64.2278 32.6197C64.1009 32.4013 64.0798 32.4012 64.862 32.4224C65.7217 32.4435 66.3348 32.5633 66.3277 32.7113C66.3277 32.7818 66.525 32.8734 66.7717 32.9227C67.1311 32.9932 67.2015 33.0355 67.1099 33.1412C66.976 33.2962 66.3418 33.3596 66.2502 33.2257C66.215 33.1764 66.0529 33.1623 65.8908 33.1975C65.7288 33.2328 65.468 33.1975 65.313 33.1271C65.1086 33.0284 64.9325 33.0284 64.6435 33.1341C64.1785 33.3032 62.7409 33.4089 62.3463 33.3032C62.1913 33.261 61.7544 33.268 61.3668 33.3103C60.8312 33.3737 60.6692 33.3596 60.6762 33.2469C60.6903 33.0707 60.5635 33.0918 60.1266 33.3385C59.8235 33.5076 59.7672 33.5076 59.4782 33.3385C59.2316 33.1834 59.1259 33.1764 59.0202 33.2821C58.8722 33.4301 58.3014 33.4724 58.2662 33.3314C58.2169 33.1693 58.4001 33.0707 58.5763 33.1623C58.8158 33.2892 58.8581 33.1623 58.6538 32.9298C58.4424 32.6972 58.4776 32.6127 58.7736 32.6408H58.7665ZM59.1893 29.6812C59.1893 29.6812 59.2175 29.801 59.1823 29.8926C59.1118 30.0617 58.844 30.1322 58.5269 30.0758C58.4424 30.0617 58.2451 30.0617 58.0971 30.0758C57.9491 30.0899 57.8152 30.0617 57.8011 30.0053C57.78 29.9067 59.0625 29.6037 59.1893 29.6882V29.6812ZM59.288 18.6389C59.3796 18.653 59.5346 18.6459 59.6333 18.6248C59.7319 18.6036 59.8235 18.6248 59.8447 18.6811C59.8588 18.7375 59.7249 18.815 59.5417 18.8573C59.3021 18.9137 59.2034 18.8855 59.1682 18.7728C59.14 18.6671 59.1823 18.6248 59.288 18.6389ZM56.2226 31.8375C56.3636 31.7529 56.4129 31.7529 56.3918 31.8375C56.3706 31.9221 56.4904 31.9291 56.7582 31.8727C57.1387 31.7882 57.1458 31.7741 56.9273 31.6684C56.7089 31.5556 56.7089 31.5556 56.9696 31.5556C57.1176 31.5556 57.2515 31.5063 57.2656 31.4429C57.2796 31.3795 57.3642 31.316 57.4558 31.302C57.5545 31.2879 57.5756 31.302 57.5122 31.3513C57.4558 31.3936 57.4276 31.4922 57.4488 31.5627C57.4699 31.6402 57.3642 31.7529 57.1951 31.8234C56.6666 32.0489 56.3636 32.1476 56.2297 32.1405C56.1522 32.1405 56.0465 32.1405 55.9901 32.1617C55.828 32.1969 55.983 31.9855 56.2156 31.8446L56.2226 31.8375ZM55.9548 31.7389C55.9196 31.8798 55.5673 31.9644 55.3418 31.8798C55.222 31.8305 55.2784 31.7882 55.5743 31.7248C55.821 31.6684 55.9689 31.6754 55.9478 31.7459L55.9548 31.7389ZM49.2322 35.826C49.1265 35.8753 49.0842 35.9669 49.1265 36.0585C49.1829 36.1854 49.1336 36.2206 48.8799 36.2488C48.7037 36.2629 48.2527 36.3122 47.8792 36.3545L47.2027 36.432L48.0202 36.1431C48.4712 35.9881 49.0631 35.8119 49.3309 35.7485C49.6057 35.6921 49.8171 35.6005 49.803 35.5512C49.7748 35.4455 50.5147 35.2552 50.7825 35.3045C51.0151 35.3398 50.853 35.5371 50.5218 35.6146C50.3386 35.6569 50.3245 35.6851 50.4584 35.7344C50.55 35.7696 50.6839 35.7626 50.7543 35.7273C51.1419 35.5089 51.5929 35.382 51.6845 35.4666C51.7831 35.5653 52.4667 35.5018 53.263 35.3186C53.5871 35.2411 53.721 35.2552 53.7492 35.3609C53.7844 35.4807 53.566 35.5441 52.3892 35.7626C51.6211 35.9035 50.9375 36.0022 50.8741 35.981C50.705 35.9176 50.5288 35.9246 49.8805 36.0092C49.2393 36.0938 49.1336 36.0726 49.2956 35.8824C49.3802 35.7767 49.3731 35.7696 49.2252 35.826H49.2322ZM51.7409 32.9086L51.9734 32.8593L51.7831 33.0496C51.5717 33.2539 51.2194 33.2821 51.4026 33.0777C51.459 33.0143 51.607 32.9439 51.7409 32.9157V32.9086ZM51.6211 34.7337C51.8184 34.6915 51.9452 34.7056 51.9241 34.769C51.91 34.8324 51.7691 34.9099 51.6211 34.9451C51.466 34.9804 51.3322 34.9663 51.3181 34.9099C51.304 34.8535 51.4379 34.776 51.6211 34.7337ZM52.819 33.6203C52.9882 33.5781 53.1361 33.5922 53.1502 33.6415C53.1855 33.7613 53.0234 33.7965 52.7274 33.7401C52.5513 33.7049 52.5653 33.6838 52.819 33.6203ZM53.1714 34.8253C53.0586 34.7549 53.0657 34.7196 53.2207 34.6844C53.3687 34.6492 53.4321 34.7056 53.4885 34.8888C53.5519 35.1072 53.5237 35.1425 53.2207 35.2059L52.8754 35.2763L53.1009 35.1002C53.2771 34.9592 53.2912 34.9029 53.1784 34.8253H53.1714ZM54.1227 32.366C53.9958 32.3942 53.9042 32.4647 53.9254 32.514C53.9395 32.5704 53.7985 32.6479 53.6083 32.6902C53.2912 32.7606 53.27 32.7536 53.3616 32.5774C53.4321 32.4435 53.6576 32.3378 54.1086 32.2251C54.4609 32.1335 54.7639 32.0137 54.7921 31.9503C54.8203 31.8798 54.8485 31.8798 54.8696 31.9573C54.8908 32.0278 54.9894 32.063 55.0951 32.0419C55.2008 32.0207 55.2925 32.0419 55.3065 32.0912C55.3559 32.2744 54.5948 32.5492 54.4468 32.4013C54.3975 32.3519 54.2566 32.3378 54.1297 32.366H54.1227ZM58.3155 17.0533C58.4565 17.0745 58.4776 17.1168 58.4212 17.2577C58.3367 17.4621 58.231 17.5043 58.0971 17.3704C57.9632 17.2366 58.1112 17.0181 58.3155 17.0533ZM54.313 35.0086C54.7639 34.9733 55.0881 35.072 55.0458 35.22C55.0176 35.3257 54.5455 35.3398 54.4398 35.2411C54.3975 35.1988 54.2354 35.1918 54.0804 35.227C53.8972 35.2693 53.8126 35.2482 53.8338 35.1636C53.8549 35.0861 54.024 35.0227 54.3059 35.0015L54.313 35.0086ZM63.0862 7.44856C63.1214 7.5754 62.9382 7.70225 62.748 7.67406C62.6634 7.65997 61.9728 7.77271 61.2188 7.9207C60.4648 8.06868 59.8024 8.16029 59.746 8.12505C59.6897 8.08982 59.2175 8.18143 58.689 8.32941C58.0407 8.51263 57.7025 8.56196 57.632 8.49853C57.5756 8.44216 57.329 8.44921 57.0753 8.49853C56.8216 8.55491 56.4904 8.5831 56.3283 8.55491C56.1663 8.52672 55.7998 8.55491 55.5109 8.60424C55.0458 8.6888 54.9824 8.6747 54.9613 8.49853C54.9472 8.38579 54.9472 8.28008 54.9613 8.26599C54.9683 8.24485 55.4263 8.17438 55.983 8.11096C56.5327 8.04049 57.8998 7.81499 59.0202 7.59654C60.5282 7.30763 61.2399 7.21602 61.7755 7.23716C62.7057 7.27944 63.0439 7.33581 63.0792 7.45561L63.0862 7.44856ZM53.4673 7.56131C53.6224 7.34991 54.1086 7.27239 55.6518 7.19488C56.2156 7.16669 56.5538 7.11032 56.5891 7.0328C56.6736 6.87777 56.2579 6.75798 55.7435 6.77912L55.3488 6.79321L55.8139 6.67341C56.4199 6.51839 56.7511 6.53953 56.737 6.72979C56.737 6.8073 56.7652 6.87072 56.8146 6.85663C56.8639 6.84254 56.885 6.76502 56.8568 6.68046C56.8216 6.56067 56.878 6.51838 57.0823 6.51838C57.5333 6.50429 58.3578 6.39859 59.5135 6.20128C62.1419 5.75028 62.3252 5.72914 62.3181 5.96874C62.3181 6.0392 61.9658 6.159 61.3809 6.29289C60.5635 6.4761 60.5423 6.48315 61.2118 6.36336C62.1701 6.19423 62.2829 6.20128 62.1772 6.45496C62.1208 6.5959 61.994 6.65227 61.6557 6.68046C61.4091 6.7016 60.6269 6.77912 59.9011 6.84958C58.9709 6.94119 58.5551 6.94119 58.4706 6.84958C58.3155 6.68046 58.1535 6.72274 58.2803 6.89891C58.3649 7.01871 58.3014 7.04689 57.8575 7.09622C57.0753 7.18783 53.8197 7.63882 53.5448 7.6952C53.3123 7.74453 53.3123 7.73748 53.4532 7.55426L53.4673 7.56131ZM47.7031 37.5454C47.689 37.6088 47.5128 37.6652 47.3155 37.6723C47.1182 37.6793 46.8786 37.7075 46.7729 37.7286C46.646 37.7568 46.6108 37.7286 46.6601 37.6441C46.7447 37.482 47.7453 37.3904 47.7031 37.5454ZM46.2655 9.67535C47.4635 9.40052 48.1118 9.29482 48.0977 9.36529C48.0624 9.49918 44.7645 10.232 44.5531 10.1545C44.4756 10.1263 45.2508 9.91494 46.2726 9.68239L46.2655 9.67535ZM40.8606 4.33388C41.9176 4.08724 42.2136 4.0661 42.2629 4.23522C42.2911 4.34093 40.3462 4.67213 40.0221 4.61575C39.8952 4.59461 40.2405 4.48186 40.8606 4.33388ZM23.4832 9.88675C23.5114 9.99245 22.7715 10.1827 22.5037 10.1334C22.2712 10.0982 22.4333 9.90084 22.7645 9.82333C22.9477 9.78105 22.9618 9.75286 22.8279 9.70354C22.7363 9.6683 22.6024 9.67535 22.5319 9.71058C22.1443 9.92903 21.6933 10.0559 21.6017 9.97131C21.5031 9.87266 20.8195 9.93608 20.0233 10.1193C19.6991 10.1968 19.5652 10.1827 19.537 10.077C19.5018 9.95722 19.7202 9.8938 20.8971 9.67535C21.6652 9.53441 22.3487 9.43576 22.4121 9.4569C22.5812 9.52032 22.7574 9.51327 23.4057 9.42871C24.047 9.34415 24.1527 9.36529 23.9906 9.55555C23.906 9.66125 23.9131 9.6683 24.0611 9.61193C24.1668 9.5626 24.2091 9.47099 24.1668 9.37938C24.1104 9.25254 24.1597 9.21731 24.4134 9.18912C24.5896 9.17503 25.0406 9.1257 25.4141 9.08342L26.0905 9.0059L25.2731 9.29482C24.8221 9.44985 24.2302 9.62602 23.9624 9.68944C23.6876 9.74582 23.4762 9.83742 23.4903 9.88675H23.4832ZM21.5454 12.5363L21.3128 12.5857L21.5031 12.3954C21.7145 12.1911 22.0668 12.1629 21.8836 12.3672C21.8272 12.4306 21.6793 12.5011 21.5454 12.5293V12.5363ZM21.6652 10.7112C21.4679 10.7535 21.341 10.7394 21.3621 10.676C21.3762 10.6126 21.5172 10.5351 21.6652 10.4998C21.8202 10.4646 21.9541 10.4787 21.9682 10.5351C21.9823 10.5914 21.8484 10.6689 21.6652 10.7112ZM18.5012 13.4947C18.473 13.5652 18.4448 13.5652 18.4236 13.4877C18.4025 13.4172 18.3038 13.382 18.1981 13.4031C18.0924 13.4242 18.0008 13.4031 17.9867 13.3538C17.9374 13.1706 18.6985 12.8957 18.8464 13.0437C18.8958 13.093 19.0367 13.1071 19.1635 13.0789C19.2904 13.0508 19.382 12.9803 19.3609 12.931C19.3468 12.8746 19.4877 12.7971 19.678 12.7548C19.9951 12.6843 20.0162 12.6914 19.9246 12.8675C19.8541 13.0014 19.6286 13.1071 19.1776 13.2199C18.8253 13.3115 18.5223 13.4313 18.4941 13.4947H18.5012ZM14.9637 28.3916C14.8227 28.3705 14.8016 28.3282 14.858 28.1873C14.9425 27.9829 15.0482 27.9406 15.1821 28.0745C15.316 28.2084 15.168 28.4269 14.9637 28.3916ZM18.2263 10.218C18.2545 10.1122 18.7266 10.0982 18.8323 10.1968C18.8746 10.2391 19.0367 10.2461 19.1917 10.2109C19.375 10.1686 19.4595 10.1898 19.4384 10.2743C19.4172 10.3518 19.2481 10.4153 18.9662 10.4364C18.5152 10.4716 18.1911 10.373 18.2334 10.225L18.2263 10.218ZM20.1149 10.6126C20.2276 10.683 20.2206 10.7183 20.0655 10.7535C19.9176 10.7887 19.8541 10.7324 19.7978 10.5492C19.7343 10.3307 19.7625 10.2955 20.0655 10.232L20.4108 10.1616L20.1853 10.3377C20.0092 10.4787 19.9951 10.5351 20.1078 10.6126H20.1149ZM20.136 11.7964C20.1008 11.6766 20.2628 11.6414 20.5588 11.6978C20.735 11.733 20.7209 11.7542 20.4672 11.8176C20.2981 11.8599 20.1501 11.8458 20.136 11.7964ZM25.5761 7.89251C25.5902 7.82909 25.7664 7.77271 25.9637 7.76567C26.161 7.75862 26.4006 7.73043 26.5063 7.70929C26.6332 7.68111 26.6684 7.70929 26.6191 7.79385C26.5345 7.95593 25.5338 8.04754 25.5761 7.89251ZM30.8683 5.75733H30.8824L30.8612 5.76438C30.7767 5.76438 30.6569 5.77143 30.5089 5.78552L30.6146 5.75028C30.6146 5.75028 30.7555 5.71505 30.8683 5.75028V5.75733ZM22.3276 7.364C22.7363 7.30058 23.2014 7.21602 23.3493 7.17374C25.4845 6.58181 25.7453 6.52543 25.6184 6.64523C25.4352 6.8214 25.4986 6.97643 25.7241 6.9271C25.8369 6.89891 25.8932 6.8214 25.865 6.72274C25.8228 6.58181 25.9637 6.53953 27.0771 6.34222C27.4013 6.28584 27.7959 6.22242 28.1975 6.159C27.7043 6.2647 27.5422 6.34222 27.4294 6.46906L27.3308 6.56771C27.3449 6.63113 27.359 6.7016 27.3731 6.76502C26.3724 6.97643 25.4493 7.14555 25.3224 7.12441C24.949 7.06803 24.505 7.17374 24.505 7.32172C24.505 7.40628 24.4416 7.42742 24.2866 7.38514C24.1668 7.34991 23.6665 7.38514 23.1661 7.46266C22.6658 7.54017 22.088 7.61064 21.8907 7.61768C21.2494 7.65292 21.5383 7.47675 22.3135 7.364H22.3276ZM16.7183 10.8733C17.1129 10.6689 17.2045 10.6478 17.2398 10.7746C17.2609 10.8381 17.3666 10.9297 17.4723 10.9861C17.6626 11.0706 17.6555 11.0847 17.4582 11.134C17.3384 11.1622 17.0636 11.1481 16.8452 11.0988L16.4505 11.0142L16.7113 10.8803L16.7183 10.8733ZM15.2244 12.1911C15.5908 11.8528 15.5767 11.8599 15.7529 11.9303C15.8516 11.9656 15.774 12.0854 15.4851 12.2968C14.9989 12.6702 14.7945 12.5857 15.2244 12.1911ZM11.5953 14.2628C11.8419 14.1923 11.849 14.1782 11.6587 14.1289C11.4191 14.0725 13.8855 13.5722 14.1815 13.6216C14.3083 13.6427 14.3506 13.7202 14.3576 13.9316C14.3647 14.1712 14.3224 14.2205 14.0828 14.2417C13.9278 14.2558 13.653 14.2276 13.4697 14.1712C13.1174 14.0655 12.152 14.1712 12.448 14.2769C12.7016 14.3685 12.448 14.4108 11.8278 14.3685C11.3909 14.3403 11.3557 14.3262 11.5953 14.2558V14.2628ZM7.83231 18.7516C8.05781 18.7375 8.32558 18.7516 8.43129 18.7798C8.64974 18.8362 9.51649 18.9207 9.93225 18.9278C10.1225 18.9278 10.2 18.9701 10.1577 19.0476C10.0802 19.1885 8.79772 19.1744 8.52289 19.0264C8.42424 18.9771 8.1776 18.956 7.9662 18.9842C7.74775 19.0123 7.55044 18.9842 7.50816 18.9066C7.44473 18.8009 7.50816 18.7728 7.83935 18.7516H7.83231ZM8.79772 17.2225C8.78363 17.1731 9.0655 17.1731 9.41784 17.2154C9.77018 17.2577 10.1366 17.3 10.2212 17.307C10.3339 17.3141 10.348 17.3423 10.2705 17.3916C10.1366 17.4832 8.83295 17.3352 8.79772 17.2225ZM6.8528 24.1847C6.6414 24.086 6.6414 24.0719 6.93737 24.0085C7.13468 23.9592 7.24742 23.9803 7.24742 24.0578C7.24742 24.2552 7.09944 24.2974 6.8528 24.1847ZM7.88868 21.1123C7.90278 21.2673 7.88164 21.4928 7.83935 21.6126C7.76184 21.824 7.74775 21.824 7.32494 21.7042C6.87394 21.5844 6.71891 21.4435 6.61321 21.0841C6.55684 20.8938 6.60617 20.8727 7.31084 20.7529C7.79003 20.6683 8.12827 20.6613 8.22693 20.7318C8.36082 20.8234 8.34672 20.8375 8.12123 20.8375C7.89573 20.8375 7.8605 20.8727 7.88164 21.1193L7.88868 21.1123ZM8.0719 21.6338C7.98734 21.3378 8.0719 21.2039 8.24807 21.3801L8.43129 21.4435V21.3378C8.389 21.2885 8.41015 21.2391 8.47357 21.225C8.64269 21.1898 9.31213 21.4364 9.34737 21.5492C9.46716 21.972 9.1712 22.1411 8.52994 22.0143C8.22693 21.9579 8.14941 21.8945 8.07895 21.6408L8.0719 21.6338ZM9.19939 24.0649C9.13596 24.0719 8.92456 24.1072 8.74134 24.1424C8.30444 24.2199 8.2833 23.9874 8.71316 23.8042C9.23462 23.5716 9.25576 23.5716 9.29099 23.8183C9.31213 23.9451 9.26985 24.0579 9.20643 24.0649H9.19939ZM11.9265 17.4761C11.7433 17.5184 11.5882 17.5043 11.5671 17.448C11.553 17.3916 11.6869 17.3141 11.8701 17.2718C12.0533 17.2295 12.2084 17.2436 12.2295 17.3C12.2436 17.3563 12.1097 17.4339 11.9265 17.4761ZM12.2788 15.8272C11.7715 15.9329 11.2782 16.0809 11.1725 16.1584C10.9963 16.2782 11.0034 16.2923 11.3134 16.2923C11.6164 16.2923 11.6376 16.3064 11.5107 16.4614C11.3275 16.701 11.4825 16.7574 11.7574 16.5601C11.9124 16.4473 12.0322 16.4191 12.1168 16.4755C12.3634 16.6305 12.1309 16.7362 11.1091 16.9335C10.045 17.1449 9.1712 17.1731 9.07254 17.0111C8.98094 16.856 9.52354 16.3064 9.74903 16.3275C9.86178 16.3416 9.9393 16.3064 9.92521 16.2641C9.90407 16.1866 8.98094 16.0104 8.66383 16.0316C8.39605 16.0456 7.71251 15.8624 7.68433 15.7638C7.67023 15.7074 7.8605 15.651 8.17055 15.6158C8.45243 15.5876 8.96684 15.5312 9.30509 15.489C9.65038 15.4467 9.96044 15.4185 9.99567 15.4326C10.0309 15.4467 10.7004 15.341 11.4755 15.2C13.9912 14.749 14.0828 14.742 14.1603 15.0098C14.2167 15.2141 13.3288 15.6017 12.2718 15.8272H12.2788ZM14.5338 12.8112C14.414 12.7971 14.0053 12.8464 13.6318 12.9169C12.6453 13.1001 11.257 13.1635 10.5101 13.0578C10.4255 13.0437 10.6369 12.9169 10.9752 12.7689L11.5953 12.5011L10.9611 12.628C10.2 12.783 9.25576 12.7971 9.38965 12.6561C9.46012 12.5786 9.45307 12.5434 9.35441 12.5082C9.13596 12.4306 8.95979 12.635 9.07254 12.8323C9.19939 13.0508 9.22053 13.0508 8.43833 13.0296C7.57862 13.0085 6.96555 12.8887 6.9726 12.7407C6.9726 12.6702 6.77529 12.5786 6.52865 12.5293C6.16926 12.4588 6.0988 12.4165 6.1904 12.3108C6.32429 12.1558 6.95851 12.0924 7.05011 12.2263C7.08535 12.2756 7.24742 12.2897 7.4095 12.2545C7.57158 12.2192 7.83231 12.2545 7.98734 12.3249C8.19169 12.4236 8.36786 12.4236 8.65678 12.3179C9.12187 12.1488 10.5594 12.0431 10.954 12.1488C11.1091 12.1911 11.546 12.184 11.9335 12.1417C12.4691 12.0783 12.6312 12.0924 12.6241 12.2051C12.61 12.3813 12.7369 12.3602 13.1738 12.1135C13.4768 11.9444 13.5332 11.9444 13.8221 12.1135C14.0687 12.2686 14.1744 12.2756 14.2801 12.1699C14.4281 12.0219 14.9989 11.9796 15.0341 12.1206C15.0835 12.2827 14.9002 12.3813 14.7241 12.2897C14.4845 12.1629 14.4422 12.2897 14.6466 12.5223C14.858 12.7548 14.8227 12.8394 14.5268 12.8112H14.5338ZM14.111 15.7708C14.111 15.7708 14.0828 15.651 14.118 15.5594C14.1885 15.3903 14.4563 15.3198 14.7734 15.3762C14.858 15.3903 15.0553 15.3903 15.2033 15.3762C15.3512 15.3621 15.4851 15.3903 15.4992 15.4467C15.5204 15.5453 14.2378 15.8483 14.111 15.7638V15.7708ZM14.0123 26.8131C13.9207 26.7991 13.7657 26.8061 13.6671 26.8272C13.5684 26.8484 13.4768 26.8272 13.4556 26.7709C13.4416 26.7145 13.5754 26.637 13.7587 26.5947C13.9983 26.5383 14.0969 26.5665 14.1321 26.6793C14.1603 26.785 14.118 26.8272 14.0123 26.8131ZM17.0777 13.6145C16.9368 13.6991 16.8874 13.6991 16.9086 13.6145C16.9297 13.5299 16.8099 13.5229 16.5421 13.5793C16.1616 13.6638 16.1546 13.6779 16.373 13.7836C16.5915 13.8964 16.5915 13.8964 16.3307 13.8964C16.1828 13.8964 16.0489 13.9457 16.0348 14.0091C16.0207 14.0725 15.9361 14.136 15.8445 14.1501C15.7459 14.1642 15.7247 14.1501 15.7881 14.1007C15.8445 14.0585 15.8727 13.9598 15.8516 13.8893C15.8304 13.8118 15.9361 13.6991 16.1052 13.6286C16.6338 13.4031 16.9368 13.3044 17.0707 13.3115C17.1482 13.3115 17.2539 13.3115 17.3102 13.2904C17.4723 13.2551 17.3173 13.4665 17.0847 13.6075L17.0777 13.6145ZM17.43 8.20961C17.3737 8.12505 17.423 8.10391 17.6203 8.1321C17.7683 8.15324 18.3602 8.13915 18.9451 8.10391C19.53 8.06163 20.1431 8.04049 20.3122 8.05459C20.4813 8.06868 20.9252 8.04049 21.2917 7.99116C21.8413 7.9207 22.849 7.85728 23.596 7.84318L23.4691 7.89251L23.1098 8.04049L23.448 7.98412C23.6312 7.95593 23.8356 7.96298 23.899 7.99821C23.9554 8.03345 24.5966 7.95593 25.4211 7.83613V7.85728C25.4281 8.0264 25.407 8.04754 25.3154 7.96298C25.2308 7.87842 25.2097 7.88546 25.2308 7.96298C25.252 8.0264 25.2027 8.07573 25.1322 8.06163C25.0617 8.04754 24.8855 8.11096 24.7446 8.19552C24.5332 8.32236 24.5966 8.32941 25.1463 8.20961C25.2661 8.18143 25.3929 8.16733 25.5057 8.15324L25.5479 8.17438C25.6255 8.18847 25.703 8.17438 25.7241 8.1321C25.8439 8.11801 25.9355 8.12505 25.9778 8.1321C26.1117 8.18143 26.0976 8.20962 25.9144 8.25894C25.3084 8.42807 24.7023 8.49149 24.4134 8.43511C23.8849 8.32236 23.5326 8.35055 23.4198 8.51263C23.2577 8.75222 21.8343 8.70289 21.7638 8.45625C21.7497 8.40693 21.8695 8.37874 22.0457 8.38578C22.2289 8.39988 22.3417 8.37169 22.3276 8.31532C22.3135 8.26599 22.236 8.2378 22.1514 8.25894C22.0668 8.28008 22.0175 8.2378 22.0386 8.16733C22.0598 8.08277 22.0105 8.08277 21.8907 8.15324C21.792 8.21666 21.7004 8.22371 21.6863 8.17438C21.6511 8.06163 21.2283 8.24485 21.186 8.38578C21.1507 8.51967 20.7068 8.61128 20.6786 8.49853C20.6645 8.44921 20.742 8.36465 20.8477 8.31532C20.9957 8.24485 20.9675 8.2378 20.742 8.28008C20.5729 8.30827 20.3545 8.32236 20.2558 8.30122C20.1149 8.28008 20.0937 8.30122 20.1783 8.42102C20.2981 8.59719 20.0796 8.6888 19.7978 8.57605C19.6639 8.52672 19.678 8.49853 19.8612 8.44921C20.0726 8.39283 20.0726 8.38579 19.8823 8.3435C19.7625 8.32236 19.4807 8.33646 19.2411 8.37874C18.7266 8.47739 17.5146 8.35055 17.4089 8.18847L17.43 8.20961ZM17.3455 13.7132C17.3807 13.5722 17.7331 13.4877 17.9585 13.5722C18.0783 13.6216 18.022 13.6638 17.726 13.7273C17.4794 13.7836 17.3314 13.7766 17.3525 13.7061L17.3455 13.7132ZM10.2212 38.0175C10.1859 37.8907 10.3692 37.7639 10.5594 37.792C10.644 37.8061 11.3346 37.6934 12.0886 37.5454C12.8426 37.3974 13.505 37.3058 13.5613 37.3411C13.6177 37.3763 14.0899 37.2847 14.6184 37.1367C15.2667 36.9535 15.6049 36.9042 15.6754 36.9676C15.7318 37.0239 15.9784 37.0169 16.2321 36.9676C16.4858 36.9182 16.817 36.883 16.979 36.9112C17.1411 36.9394 17.5076 36.9112 17.7965 36.8619C18.2616 36.7773 18.325 36.7914 18.3461 36.9676C18.3602 37.0803 18.3602 37.186 18.3461 37.2001C18.3391 37.2213 17.881 37.2917 17.3243 37.3551C16.7747 37.4256 15.4076 37.6511 14.2872 37.8696C12.7792 38.1585 12.0674 38.2501 11.5319 38.229C10.6017 38.1867 10.2635 38.1303 10.2282 38.0105L10.2212 38.0175ZM19.84 37.9048C19.685 38.1162 19.1988 38.1937 17.6555 38.2712C17.0918 38.2994 16.7535 38.3558 16.7183 38.4333C16.6338 38.5883 17.0495 38.7081 17.5639 38.687L17.9585 38.6729L17.4935 38.7927C16.8874 38.9477 16.5562 38.9266 16.5703 38.7363C16.5703 38.6588 16.5421 38.5954 16.4928 38.6095C16.4435 38.6236 16.4223 38.7011 16.4505 38.7856C16.4858 38.9054 16.4294 38.9477 16.225 38.9477C15.774 38.9618 14.9496 39.0675 13.7939 39.2648C11.1654 39.7158 10.9822 39.737 10.9893 39.4974C10.9893 39.4269 11.3416 39.3071 11.9265 39.1732C12.7439 38.99 12.7651 38.983 12.0956 39.1028C11.1373 39.2719 11.0245 39.2648 11.1302 39.0111C11.1866 38.8702 11.3134 38.8138 11.6517 38.7856C11.8983 38.7645 12.6805 38.687 13.4063 38.6165C14.3365 38.5249 14.7523 38.5249 14.8368 38.6165C14.9918 38.7856 15.1539 38.7434 15.0271 38.5672C14.9425 38.4474 15.0059 38.4192 15.4499 38.3699C16.2321 38.2783 19.4877 37.8273 19.7625 37.7709C19.9951 37.7216 19.9951 37.7286 19.8541 37.9118L19.84 37.9048ZM27.0419 35.7908C25.8439 36.0656 25.1956 36.1713 25.2097 36.1008C25.2449 35.9669 28.5428 35.2341 28.7542 35.3116C28.8317 35.3398 28.0566 35.5512 27.0348 35.7837L27.0419 35.7908ZM32.4468 41.1322C31.3897 41.3789 31.0938 41.4 31.0444 41.2309C31.0163 41.1252 32.9612 40.794 33.2853 40.8504C33.4122 40.8715 33.0669 40.9842 32.4468 41.1322ZM42.4462 39.7088H42.4321L42.4532 39.7017C42.5378 39.7017 42.6576 39.6947 42.8055 39.6806L42.6998 39.7158C42.6998 39.7158 42.5589 39.7511 42.4462 39.7158V39.7088ZM50.9869 38.1021C50.5782 38.1655 50.1131 38.2501 49.9651 38.2924C47.8299 38.8843 47.5692 38.9407 47.696 38.8209C47.8792 38.6447 47.8158 38.4897 47.5903 38.539C47.4776 38.5672 47.4212 38.6447 47.4494 38.7434C47.4917 38.8843 47.3507 38.9266 46.2373 39.1239C45.9132 39.1803 45.5186 39.2437 45.1169 39.3071C45.6102 39.2014 45.7722 39.1239 45.885 38.997L45.9836 38.8984C45.9696 38.835 45.9555 38.7645 45.9414 38.7011C46.942 38.4897 47.8651 38.3206 47.992 38.3417C48.3655 38.3981 48.8094 38.2924 48.8094 38.1444C48.8094 38.0598 48.8728 38.0387 49.0279 38.081C49.1477 38.1162 49.648 38.081 50.1483 38.0035C50.6486 37.9259 51.2265 37.8555 51.4238 37.8484C52.065 37.8132 51.7761 37.9894 51.001 38.1021H50.9869ZM55.7012 37.3411C55.5532 37.3199 54.9613 37.334 54.3764 37.3692C53.7915 37.4115 53.1784 37.4327 53.0093 37.4186C52.8402 37.4045 52.3962 37.4327 52.0298 37.482C51.4167 37.5595 50.2329 37.63 49.4718 37.63C49.2111 37.63 48.8165 37.6793 48.1047 37.7991C47.9426 37.8273 47.9004 37.785 47.8933 37.6159C47.8933 37.4468 47.9145 37.4256 47.999 37.5102C48.0836 37.5947 48.1047 37.5877 48.0836 37.5102C48.0624 37.4468 48.1118 37.3974 48.1822 37.4115C48.2527 37.4256 48.4289 37.3622 48.5698 37.2776C48.7812 37.1508 48.7178 37.1437 48.1681 37.2635C47.8017 37.3411 47.4353 37.3763 47.3366 37.3411C47.2027 37.2917 47.2168 37.2635 47.4 37.2142C48.0061 37.0451 48.6121 36.9817 48.901 37.038C49.4295 37.1508 49.7819 37.1226 49.8946 36.9605C50.0567 36.7209 51.4801 36.7703 51.5506 37.0169C51.5647 37.0662 51.4449 37.0944 51.2687 37.0874C51.0855 37.0733 50.9728 37.1015 50.9869 37.1578C51.001 37.2072 51.0785 37.2354 51.163 37.2142C51.2476 37.1931 51.2969 37.2354 51.2758 37.3058C51.2546 37.3904 51.304 37.3904 51.4238 37.3199C51.5224 37.2565 51.614 37.2494 51.6281 37.2988C51.6634 37.4115 52.0862 37.2283 52.1284 37.0874C52.1637 36.9535 52.6076 36.8619 52.6358 36.9746C52.6499 37.0239 52.5724 37.1085 52.4667 37.1578C52.3187 37.2283 52.3469 37.2354 52.5724 37.1931C52.7415 37.1649 52.96 37.1508 53.0586 37.1719C53.1996 37.1931 53.2207 37.1719 53.1361 37.0521C53.0163 36.876 53.2348 36.7844 53.5167 36.8971C53.6506 36.9464 53.6365 36.9746 53.4532 37.0239C53.2418 37.0803 53.2418 37.0874 53.4321 37.1296C53.5519 37.1508 53.8338 37.1297 54.0734 37.0944C54.5878 36.9958 55.7998 37.1226 55.9055 37.2847C55.9619 37.3692 55.9126 37.3904 55.7153 37.3622L55.7012 37.3411ZM57.4981 37.3622C57.6038 37.4679 57.5122 37.482 56.9696 37.4327C56.6948 37.4115 56.5538 37.3551 56.6102 37.2988C56.7089 37.186 57.3713 37.2354 57.4981 37.3622ZM57.3501 36.2981C57.1176 36.3193 56.8991 36.3193 56.8639 36.2981C56.6877 36.1854 56.885 36.0374 57.181 36.0585C57.7236 36.1008 57.8363 36.2558 57.3501 36.3052V36.2981ZM58.7313 35.0649C58.6538 35.079 58.5551 35.0579 58.5128 35.0086C58.4635 34.9592 58.5128 34.9029 58.6185 34.8817C58.7242 34.8606 58.8229 34.8817 58.837 34.9381C58.8511 34.9945 58.8018 35.0508 58.7313 35.0649ZM63.96 35.7908C63.8825 35.8119 63.7486 35.7696 63.664 35.7062C63.4245 35.523 63.6288 35.4173 63.8755 35.6005C64.0657 35.7344 64.0798 35.7626 63.953 35.7908H63.96Z" fill="#EA6129"/>
<path id="Vector_2" d="M24.8715 9.31596C25.0124 9.28777 25.0053 9.28073 24.8715 9.2314C24.66 9.16093 24.5332 9.18207 24.6319 9.27368C24.6741 9.31596 24.7798 9.33005 24.8715 9.31596Z" fill="#EA6129"/>
</g>
<g id="Group_2">
<path id="Vector_3" d="M41.1636 11.5002H32.6088C29.466 11.5002 26.9221 14.0441 26.9221 17.187V26.4465C26.9221 29.5894 29.466 32.1333 32.6088 32.1333H41.1636C44.3065 32.1333 46.8504 29.5894 46.8504 26.4465V17.187C46.8504 14.0441 44.3065 11.5002 41.1636 11.5002ZM45.0887 26.4465C45.0887 27.5317 44.6518 28.5112 43.9401 29.2229C43.2283 29.9347 42.2488 30.3716 41.1636 30.3716H32.6088C31.5236 30.3716 30.5441 29.9347 29.8324 29.2229C29.1207 28.5112 28.6838 27.5317 28.6838 26.4465V17.187C28.6838 16.1018 29.1207 15.1223 29.8324 14.4106C30.5441 13.6988 31.5236 13.2619 32.6088 13.2619H41.1636C42.2488 13.2619 43.2283 13.6988 43.9401 14.4106C44.6518 15.1223 45.0887 16.1018 45.0887 17.187V26.4465Z" fill="white"/>
<path id="Vector_4" d="M36.8862 16.7361C34.0746 16.7361 31.7985 19.0122 31.7985 21.8239C31.7985 24.6355 34.0746 26.9117 36.8862 26.9117C39.6979 26.9117 41.974 24.6355 41.974 21.8239C41.974 19.0122 39.6979 16.7361 36.8862 16.7361ZM39.2399 24.1704C38.6338 24.7765 37.8094 25.1429 36.8862 25.1429C35.9631 25.1429 35.1386 24.7694 34.5326 24.1704C33.9266 23.5644 33.5602 22.74 33.5602 21.8168C33.5602 20.8937 33.9336 20.0692 34.5326 19.4632C35.1386 18.8572 35.9631 18.4907 36.8862 18.4907C37.8094 18.4907 38.6338 18.8642 39.2399 19.4632C39.8459 20.0692 40.2123 20.8937 40.2123 21.8168C40.2123 22.74 39.8389 23.5644 39.2399 24.1704Z" fill="white"/>
<path id="Vector_5" d="M42.1149 15.1365C41.523 15.1365 41.0438 15.6157 41.0438 16.2076C41.0438 16.7995 41.523 17.2787 42.1149 17.2787C42.7069 17.2787 43.186 16.7995 43.186 16.2076C43.186 15.6157 42.7069 15.1365 42.1149 15.1365Z" fill="white"/>
</g>
</g>
<defs>
<clipPath id="clip0_1_277">
<rect width="72.4481" height="45.48" fill="white" transform="translate(0.447266)"/>
</clipPath>
</defs>
</svg>
