<svg width="80" height="36" viewBox="0 0 80 36" fill="none" xmlns="http://www.w3.org/2000/svg">
<path d="M75.12 18.6281H75.0089L66.3669 18.6188L60.295 15.2296L58.5055 16.1768L42.7225 0.287354L41.0395 1.33945L33.9879 0.287354L27.4147 10.5121L20.9 16.6118L14.2048 10.256L6.74144 17.3014V21.8492L0 28.2265L3.43242 32.0199L31.7773 31.9721L27.6245 36L70.0785 35.9969L79.0368 27.5987C79.5921 26.7101 79.9871 25.6503 79.9871 24.4809C79.9871 19.6231 75.12 18.6281 75.12 18.6281Z" fill="#1F2F3B"/>
<path d="M8.028 17.653L14.0999 11.9976L14.0938 15.9869L12.6097 17.8905L14.0814 17.2843V19.3098L12.5789 21.2289L10.4978 18.5492L8.02338 18.5477L8.028 17.653Z" fill="#EBEBEC"/>
<path d="M16.1455 22.1856L13.1049 26.2397H12.7594L9.78511 22.1717V28.9594H8.02493V19.6232H10.052L12.9738 23.6372L15.8941 19.6232H17.9072V28.9594H16.1471V22.1841L16.1455 22.1856Z" fill="#EBEBEC"/>
<path d="M28.7337 24.3327C28.7075 26.747 27.2265 29.1612 23.9468 29.1612C20.6671 29.1612 19.146 26.8009 19.146 24.3466C19.146 21.8922 20.7195 19.4255 23.9468 19.4255C27.174 19.4255 28.7614 21.8922 28.7337 24.3327ZM20.8784 24.3728C20.9185 25.9062 21.7454 27.5461 23.9453 27.5461C26.1451 27.5461 26.972 25.8923 26.9982 24.3589C27.0259 22.7854 26.1451 21.0252 23.9453 21.0252C21.7454 21.0252 20.8383 22.7993 20.8784 24.3728Z" fill="#EBEBEC"/>
<path d="M31.8946 21.212H28.9342V19.6123H36.6167V21.212H33.6563V28.947H31.8961V21.212H31.8946Z" fill="#EBEBEC"/>
<path d="M46.8569 24.3327C46.8307 26.747 45.3497 29.1612 42.07 29.1612C38.7903 29.1612 37.2692 26.8009 37.2692 24.3466C37.2692 21.8922 38.8427 19.4255 42.07 19.4255C45.2973 19.4255 46.8847 21.8922 46.8569 24.3327ZM39.0016 24.3728C39.0418 25.9062 39.8686 27.5461 42.0685 27.5461C44.2683 27.5461 45.0952 25.8923 45.1229 24.3589C45.1492 22.7854 44.2698 21.0252 42.0685 21.0252C39.8671 21.0252 38.9615 22.7993 39.0016 24.3728Z" fill="#EBEBEC"/>
<path d="M56.4307 28.9469H54.3373L51.616 25.8261H49.9222V28.9469H48.162V19.5984C49.6429 19.5984 51.1239 19.6123 52.6033 19.6123C54.8047 19.6246 55.9648 21.0932 55.9648 22.7069C55.9648 23.9873 55.3786 25.2816 53.6045 25.641L56.4322 28.8281V28.9485L56.4307 28.9469ZM49.9222 21.2521V24.2403H52.6033C53.7248 24.2403 54.2031 23.4936 54.2031 22.7454C54.2031 21.9972 53.7094 21.2521 52.6033 21.2521H49.9222Z" fill="#EBEBEC"/>
<path d="M63.7783 27.1867H58.8974L58.0967 28.9469H56.19L60.3768 19.6107H62.2974L66.4857 28.9469H64.5651L63.7783 27.1867ZM61.3379 21.5714L59.6039 25.5453H63.0718L61.3379 21.5714Z" fill="#EBEBEC"/>
<path d="M67.1506 28.9469V19.6107H68.8984V28.9469H67.1506Z" fill="#EBEBEC"/>
<path d="M78.7669 24.2001C78.807 26.5604 77.3661 28.9469 74.0988 28.9469H70.4303V19.6107H74.0988C77.2998 19.6107 78.7268 21.8907 78.7669 24.1985V24.2001ZM72.1782 27.253H74.0988C76.2184 27.253 77.0591 25.7057 77.019 24.1862C76.9789 22.733 76.1258 21.2783 74.0988 21.2783H72.1782V27.253Z" fill="#EBEBEC"/>
<path d="M39.5786 19.0583C40.2866 18.7081 41.1197 18.506 42.0113 18.506C42.903 18.506 43.7206 18.705 44.4256 19.049L44.441 15.649L41.3896 17.9646L42.3985 16.5607L42.4417 9.65114L39.6156 13.1854V10.4842L34.2718 16.9865L39.6156 7.34795L39.6002 3.96952L34.1175 6.86355L34.1468 0.970581L28.149 10.731L22.0354 16.6841L25.403 18.6634C25.7933 18.7575 26.1636 18.8902 26.503 19.0568H28.4297L28.422 18.7467H37.1118L37.1057 19.0583H39.5786Z" fill="#EBEBEC"/>
<path d="M41.7326 33.5758H39.932L39.6373 34.2253H38.9337L40.4797 30.7816H41.1879L42.7324 34.2253H42.0242L41.7341 33.5758H41.7326ZM40.8331 31.5052L40.1928 32.9709H41.4718L40.8331 31.5052Z" fill="#EBEBEC"/>
<path d="M46.1585 32.4753C46.1739 33.3455 45.6416 34.2265 44.4366 34.2265H43.0835V30.7827H44.4366C45.617 30.7827 46.1431 31.6236 46.1585 32.4753ZM43.7284 33.6016H44.4366C45.2189 33.6016 45.529 33.0323 45.5136 32.4707C45.4982 31.9337 45.1849 31.3983 44.4366 31.3983H43.7284V33.6016Z" fill="#EBEBEC"/>
<path d="M48.406 34.2419H47.7317L46.3015 30.7827H47.0297L48.0681 33.4643L49.1111 30.7827H49.8394L48.4075 34.2419H48.406Z" fill="#EBEBEC"/>
<path d="M52.8027 34.228H50.2245C50.2245 33.0817 50.2245 31.9291 50.2245 30.7827H52.8027V31.4138H50.8694V32.2053H52.7348V32.8101H50.8694V33.5877H52.8027V34.228Z" fill="#EBEBEC"/>
<path d="M55.6704 30.7795H56.32V34.2279H55.9157V34.2325L54.1059 31.9058V34.2279H53.4563V30.7841H53.984L55.6704 32.9195V30.7795Z" fill="#EBEBEC"/>
<path d="M57.8038 31.3751H56.7114V30.7842C57.705 30.7842 58.5459 30.7842 59.5457 30.7842V31.3751H58.4533V34.228H57.8038V31.3751Z" fill="#EBEBEC"/>
<path d="M63.0615 30.7904V32.7622C63.0615 33.7805 62.4366 34.302 61.5695 34.3005C60.7425 34.3005 60.0404 33.799 60.0404 32.7607V30.7888H60.6854V32.7607C60.6854 33.3809 61.0387 33.7111 61.5756 33.7111C62.1126 33.7111 62.4165 33.3516 62.4165 32.7622V30.7888H63.0615V30.7904Z" fill="#EBEBEC"/>
<path d="M66.7484 34.2295H65.9754L64.971 33.0785H64.3461V34.2295H63.6966V30.7811C64.2428 30.7811 64.7889 30.7857 65.3351 30.7857C66.1467 30.7903 66.5741 31.3319 66.5741 31.9275C66.5741 32.3996 66.3581 32.8763 65.7039 33.009L66.7469 34.1847V34.2295H66.7484ZM64.3477 31.3905V32.4922H65.3367C65.7502 32.4922 65.9276 32.2175 65.9276 31.9413C65.9276 31.6652 65.7456 31.3905 65.3382 31.3905H64.3492H64.3477Z" fill="#EBEBEC"/>
<path d="M69.5807 34.231H67.0025V30.7872H69.5807V31.4167H67.6474V32.2083H69.5128V32.8131H67.6474V33.5907H69.5807V34.231Z" fill="#EBEBEC"/>
<path d="M6.45296 30.9817V29.3804L4.98126 29.9867L6.4653 28.083L6.47147 24.0937L1.98849 28.3113L4.43207 30.9817H6.45296Z" fill="#EBEBEC"/>
<path d="M38.7378 29.9125C38.13 29.6272 37.6348 29.2261 37.2492 28.7448L30.8841 34.721H35.8361L34.1176 33.7553L37.28 33.0287L38.7378 29.911V29.9125Z" fill="#EBEBEC"/>
</svg>
