<svg width="581" height="135" viewBox="0 0 581 135" fill="none" xmlns="http://www.w3.org/2000/svg">
<path d="M580 103.417C580 103.417 568.226 86.5795 565.063 78.0386C569.294 80.2131 566.175 77.0605 565.343 74.3707L565.063 76.3618C562.522 74.4144 562.522 69.3667 561.261 67.9606C561.261 68.3624 561.296 68.8601 561.331 69.3579L561.488 68.6855C561.611 69.5762 561.541 70.1963 561.401 70.6941C561.436 71.777 561.313 72.6241 560.621 72.3184L560.753 71.7857C559.693 72.5193 557.861 71.7333 557.064 71.3665L557.047 67.1485C555.163 75.1741 544.405 54.9047 541.882 54.634C539.341 49.3156 536.196 55.9527 533.033 53.2891C527.987 51.9268 530.51 47.141 527.978 43.4994C524.816 40.8532 528.618 48.4161 527.348 48.6955L523.554 42.8356C525.762 42.3291 524.562 39.7878 524.159 38.1547C520.882 37.4386 515.713 29.7099 514.706 38.1198C510.282 34.0938 510.273 30.7229 508.38 30.3037C509.02 31.8407 510.273 33.2293 510.29 34.9322C508.521 31.2207 509.441 35.8492 510.168 36.6788C507.469 40.338 496.142 21.3436 495.581 30.5832V28.8977C494.95 35.7706 495.958 42.4514 494.074 46.2503L492.813 43.1762L490.92 46.128C489.65 43.8923 490.272 42.0671 490.272 41.22C487.179 44.3989 482.878 40.6087 479.137 39.683L483.097 58.4329C479.943 54.1013 474.248 45.3071 473.618 51.3416L471.725 45.0364C465.4 33.0109 467.31 50.2587 464.778 46.6345L461.598 39.7703L464.76 39.8926C461.598 36.4168 460.336 34.1724 457.813 29.7011L457.787 29.8845C457.962 30.1727 458.076 30.4958 458.094 30.9063L457.655 31.0722C457.27 34.4956 455.623 36.8448 453.398 36.6177C450.235 35.6571 447.756 40.7135 442.71 33.4476L441.448 40.469L437.655 36.2858V30.6967C441.369 31.0285 448.369 28.9064 453.144 28.6182L453.231 26.0682C450.402 26.0682 447.178 28.5484 445.303 27.9982C444.479 26.9939 442.526 22.2169 443.358 18.5228L442 22.7671C432.547 23.3959 432.486 23.6578 422.621 17.3351L423.48 20.1384C421.526 21.789 419.572 23.3871 419.029 18.8459C413.107 17.9202 406.965 14.4008 403.119 7.32703L402.278 13.9118C401.026 13.545 399.151 3.59802 398.546 12.8201L395.874 15.7282C394.166 15.2217 393.115 18.9857 391.17 15.2042L391.161 15.1868C391.038 14.951 390.916 14.7065 390.793 14.4095C390.793 14.6104 390.802 14.7851 390.811 14.9597C386.938 12.0516 390.846 20.8633 386.421 17.0731C385.002 12.3922 384.844 25.4307 382.689 23.9373L380.517 14.4969C376.601 9.08238 375.935 18.549 370.266 18.5752C367.542 15.213 366.228 7.15237 368.032 0C365.553 8.66319 366.902 5.64155 363.617 9.79849C363.109 6.2354 363.459 5.48436 364.186 2.27933C361.269 -1.89507 362.382 5.49309 360.183 5.2835C359.543 11.9905 358.807 22.6623 358.089 23.0989L358.939 25.1949C356.608 28.7754 354.059 30.4522 351.352 27.0812L351.457 23.7102L348.575 25.4219L348.391 21.1078L344.273 22.444L344.834 23.6054C343.87 24.1731 340.69 25.6577 338.877 23.4046L338.947 21.0117C333.822 13.5362 329.599 23.326 323.598 24.1207L324.386 19.2302C322.345 14.3659 323.825 26.7581 321.39 24.3303L321.267 18.322C319.121 26.2166 318.49 16.6452 317.018 13.6585L317.71 21.527L314.924 19.8677C311.858 17.2565 313.041 9.92075 313.488 5.79875L311.403 11.9992L310.991 5.04771C309.467 13.1345 309.467 3.74648 306.794 8.08681C306.575 5.45816 307.25 3.94734 306.339 2.82951L301.932 12.628L304.587 8.28767L304.263 18.4442C301.494 26.1468 300.513 17.3351 298.533 20.1734L299.891 17.1517C296.667 19.6144 296.492 15.3003 294.67 13.0472C295.23 14.9335 296.098 17.7368 294.792 19.0643C293.837 19.6232 294.275 15.4924 293.364 14.3746C293.145 21.1427 290.832 24.7233 288.73 21.5357C288.756 20.5751 288.8 19.6406 288.94 19.0293C288.406 20.121 288.125 21.8676 287.197 20.2432L287.749 12.7241L285.953 19.8852C284.761 17.8242 283.009 23.2823 283.167 18.2084L283.85 16.7063L274.791 14.8899L274.669 8.87279C273.775 17.1517 269.736 5.72889 270.034 16.0601C268.326 10.4273 263.306 20.0424 264.313 8.38373C258.356 7.48423 255.141 18.6975 247.904 13.0297C245.329 3.13517 238.267 6.3402 233.616 5.29223C224.539 9.4317 218.67 13.152 209.383 16.3221C203.803 2.51512 195.462 21.0729 189.452 13.2742L187.805 18.7586C183.81 10.0255 177.713 20.7061 172.115 12.2001C170.739 14.6017 170.021 15.3614 169.705 15.5536C169.96 15.8156 170.345 16.8548 170.468 20.3393C168.864 17.894 165.632 20.9593 165.859 13.9991L166.262 13.283C166.499 6.33147 161.409 16.5317 159.622 10.5059L160.603 17.9552L157.572 16.6976L158.387 15.2654C145.228 31.8058 139.279 8.16541 126.918 23.2736C128.556 15.1431 124.482 27.5441 124.316 18.6625C121.197 7.48423 118.542 21.0729 115.984 24.0508C115.984 24.4875 115.949 25.0027 115.809 25.6839L111.341 24.6185C114.013 13.3878 108.126 33.9367 110.579 24.374C98.927 15.9728 83.7357 24.5312 70.2441 20.6537L70.8311 23.5443C67.4144 22.9941 63.1566 26.4961 60.5634 21.885C57.9702 17.2827 54.8864 29.2208 53.8789 29.6749C51.3208 34.155 48.9729 26.5922 49.4109 25.4045C46.4673 27.2122 43.6463 36.7836 39.5463 32.5044C38.1007 22.9854 28.0346 41.8488 27.9031 31.1159L27.8593 32.0241C22.4539 24.47 17.3551 37.3251 11.538 30.4784C11.538 30.4784 11.6519 29.6924 11.8446 28.9675L0 61.5593L3.37291 97.391L13.6406 126.49L41.4649 120.184L63.6735 131.563L117.719 127.712L121.582 119.625C132.2 133.755 145.824 117.503 157.265 127.59L157.502 120.63C160.726 120.219 160.507 124.525 161.304 125.747C191.31 124.202 222.191 114.936 249.192 123.704C251.794 128.306 259.714 125.599 261.755 130.463C270.525 121.948 279.811 122.036 288.59 122.909L288.257 123.678L292.392 122.333C292.567 122.9 292.584 123.73 292.453 124.263C297.114 118.106 304.464 124.193 310.176 126.708L309.843 127.468C343.169 128.734 374.104 115.748 407.149 125.459C422.516 136.812 440.388 121.136 458.023 130.594C461.256 137.519 496.93 132.323 500.075 129.066L495.94 120.612C509.213 116.726 515.407 125.197 526.769 118.377L526.139 120.211C527.794 122.167 528.723 103.181 546.998 126.367V127.214C547.576 127.083 547.629 125.669 548.593 127.136L545.737 122.446C547.629 120.324 549.285 116.289 551.808 115.713C552.342 116.647 552.526 118.385 552.579 119.739L558.764 118.324L560.656 123.782C562.549 120.822 561.69 109.303 566.745 115.722C564.835 107.731 569.251 110.927 568.628 106.858C568.883 107.844 569.461 109.32 569.934 110.691C572.939 109.766 578.607 107.521 580.009 103.417H580Z" fill="#EA6129"/>
</svg>
