<svg width="180" height="12" viewBox="0 0 180 12" fill="none" xmlns="http://www.w3.org/2000/svg">
<g id="Elementos" clip-path="url(#clip0_1_112)">
<path id="Vector" d="M179.79 2.18743C180.056 2.24378 179.962 1.60086 180 1.4856C179.554 1.62904 179.8 2.35648 179.79 2.18743Z" fill="#EA6129"/>
<path id="Vector_2" d="M175.405 3.65006L175.482 3.38623L174.834 4.03171L175.405 3.65006Z" fill="#EA6129"/>
<path id="Vector_3" d="M171.301 3.63724C171.688 4.73353 172.787 3.4605 173.519 3.84984L173.64 4.10086L173.97 3.21716C173.081 3.35804 171.929 3.94205 171.304 3.63724H171.301Z" fill="#EA6129"/>
<path id="Vector_4" d="M169.114 1.26538C169.25 1.69314 168.64 1.63423 169.624 1.39858C169.575 1.35247 169.56 1.32429 169.531 1.291C169.442 1.29868 169.321 1.29612 169.114 1.26538Z" fill="#EA6129"/>
<path id="Vector_5" d="M169.531 1.29094C169.25 0.932342 169.964 1.26021 169.531 1.29094V1.29094Z" fill="#EA6129"/>
<path id="Vector_6" d="M167.669 0.660889C167.085 0.868365 167.206 1.11939 167.539 1.53434L168.107 1.15268C167.989 0.901664 167.482 0.842751 167.669 0.660889Z" fill="#EA6129"/>
<path id="Vector_7" d="M166.998 2.33598L167.293 2.17461C167.241 2.06959 167.162 2.03117 166.998 2.33598Z" fill="#EA6129"/>
<path id="Vector_8" d="M167.58 2.05171C167.528 2.37701 167.651 2.06451 167.918 1.83398L167.293 2.17466C167.375 2.3514 167.385 2.70744 167.58 2.05171Z" fill="#EA6129"/>
<path id="Vector_9" d="M168.271 2.0005C168.591 2.23871 169.004 2.38984 168.433 2.76893C169.521 2.61781 169.36 1.84681 168.271 2.0005Z" fill="#EA6129"/>
<path id="Vector_10" d="M171.091 4.77202L171.519 5.0922L171.888 4.72335C171.703 4.90521 171.066 4.42622 171.091 4.76945V4.77202Z" fill="#EA6129"/>
<path id="Vector_11" d="M163.991 0.96826C163.955 1.20135 164.183 1.59069 164.224 1.88782L164.644 1.61887C164.429 1.46006 164.019 1.31149 163.991 0.965698V0.96826Z" fill="#EA6129"/>
<path id="Vector_12" d="M164.224 1.88782L163.594 2.2874C164.155 2.33351 164.257 2.14396 164.224 1.88782Z" fill="#EA6129"/>
<path id="Vector_13" d="M166.896 3.55524L167.928 2.71252L166.696 3.56548L166.896 3.55524Z" fill="#EA6129"/>
<path id="Vector_14" d="M161.312 1.21407L161.588 0.937436L161.947 0.396973L161.312 1.21407Z" fill="#EA6129"/>
<path id="Vector_15" d="M159.995 1.03226C160.259 0.584008 159.634 0.274074 159.913 0C159.48 0.0794046 159.111 0.463621 158.778 0.809415C159.132 0.617307 159.508 0.665974 159.995 1.03226Z" fill="#EA6129"/>
<path id="Vector_16" d="M158.778 0.809448C158.591 0.911906 158.407 1.06047 158.22 1.31405C158.397 1.20647 158.579 1.01436 158.778 0.809448Z" fill="#EA6129"/>
<path id="Vector_17" d="M162.029 1.5061L162.277 2.16183C162.352 2.16439 162.439 2.16952 162.526 2.17208C162.477 2.0312 162.382 1.66235 162.032 1.5061H162.029Z" fill="#EA6129"/>
<path id="Vector_18" d="M162.285 2.18489L162.277 2.1644C162.008 2.14903 161.824 2.13622 161.742 2.12854C161.811 2.13366 161.975 2.15159 162.285 2.18745V2.18489Z" fill="#EA6129"/>
<path id="Vector_19" d="M162.587 2.17725H162.526C162.549 2.23872 162.564 2.26177 162.587 2.17725Z" fill="#EA6129"/>
<path id="Vector_20" d="M164.852 4.2802C165.115 3.82939 164.69 3.51177 165.246 2.9585C164.877 3.32478 164.106 3.71924 164.852 4.2802Z" fill="#EA6129"/>
<path id="Vector_21" d="M163.612 2.53833L162.895 2.99683L163.563 3.14795C163.55 2.97377 163.43 2.72275 163.612 2.53833Z" fill="#EA6129"/>
<path id="Vector_22" d="M162.567 3.20694L162.895 2.9969L162.646 2.94055L162.567 3.20694Z" fill="#EA6129"/>
<path id="Vector_23" d="M159.365 1.92877C159.076 2.21565 158.761 2.2387 158.404 2.28481C158.786 2.41288 159.181 2.4846 159.557 2.48204C159.611 2.27456 159.775 1.90571 159.365 1.92877Z" fill="#EA6129"/>
<path id="Vector_24" d="M160.784 2.1106L160.72 2.14902C160.758 2.20537 160.792 2.2233 160.784 2.1106Z" fill="#EA6129"/>
<path id="Vector_25" d="M154.949 2.39749C154.954 2.35907 154.957 2.32321 154.962 2.28479L154.893 2.27966C154.913 2.31552 154.929 2.36163 154.949 2.40005V2.39749Z" fill="#EA6129"/>
<path id="Vector_26" d="M159.619 2.60247C159.906 2.72798 160.077 2.56917 160.241 2.36682C160.026 2.43342 159.798 2.4744 159.555 2.48209C159.532 2.5743 159.527 2.63577 159.619 2.60504V2.60247Z" fill="#EA6129"/>
<path id="Vector_27" d="M157.242 1.62139C157.39 1.75971 157.562 1.87497 157.738 1.98255C157.592 1.77508 157.293 1.44977 157.242 1.62139Z" fill="#EA6129"/>
<path id="Vector_28" d="M160.623 1.96715L160.666 1.93898C160.571 1.7981 160.584 1.86726 160.623 1.96715Z" fill="#EA6129"/>
<path id="Vector_29" d="M160.241 2.36675C160.415 2.31552 160.579 2.2438 160.717 2.14903C160.682 2.10292 160.646 2.0312 160.62 1.96716C160.472 2.06194 160.356 2.22331 160.238 2.36675H160.241Z" fill="#EA6129"/>
<path id="Vector_30" d="M154.27 3.26835C154.501 3.60134 155.735 4.04447 155.177 4.59774C154.304 4.91023 154.46 4.38258 154.035 4.05984C154.396 4.81802 152.923 5.16382 153.113 6.27804L153.878 5.88614C153.894 6.06032 153.615 6.33696 153.827 6.49577C153.878 5.88614 154.634 5.32519 155.285 5.97835C155.925 5.52242 155.507 3.51937 154.946 2.40002C154.926 2.66641 154.926 2.90975 154.265 3.27091L154.27 3.26835Z" fill="#EA6129"/>
<path id="Vector_31" d="M155.538 1.55994C155.087 1.85706 154.993 2.08247 154.962 2.28482L156.299 2.36935L156.207 2.459L156.478 2.38472C156.168 2.27714 155.948 2.03636 155.538 1.55994Z" fill="#EA6129"/>
<path id="Vector_32" d="M157.767 2.02353H157.772V2.03121C157.828 2.11318 157.846 2.16441 157.782 2.11574L157.756 2.12855C157.749 2.22076 157.723 2.30016 157.698 2.37957C157.326 2.24381 157.639 2.20795 157.756 2.12855C157.762 2.09525 157.772 2.06451 157.772 2.03121L157.767 2.02353L156.478 2.38725C156.75 2.47946 157.093 2.45897 157.698 2.38469C157.485 3.0481 156.832 3.32986 157.231 4.0445C158.028 3.9984 157.79 3.49123 158.266 3.20435C156.98 3.36828 158.635 2.8355 157.705 2.45897C157.959 2.34627 158.184 2.31297 158.399 2.28479C158.169 2.20539 157.943 2.10549 157.733 1.98254L157.764 2.02353H157.767Z" fill="#EA6129"/>
<path id="Vector_33" d="M164.165 5.70435C164.124 5.64543 164.127 5.59933 164.124 5.55066C164.04 5.63263 164.009 5.68642 164.165 5.70435Z" fill="#EA6129"/>
<path id="Vector_34" d="M164.191 4.75404L164.099 4.84369C163.691 4.66439 163.192 4.11624 163.043 3.84729C163.182 4.36726 163.32 4.76941 163.635 5.30475C163.73 5.21254 163.807 4.94615 164.111 5.01531C164.375 5.2151 164.111 5.33292 164.124 5.55065C164.309 5.37391 164.767 5.07678 164.191 4.75404Z" fill="#EA6129"/>
<path id="Vector_35" d="M163.043 3.8473C163.031 3.79863 163.018 3.74996 163.005 3.70129C162.984 3.72179 163.002 3.77558 163.043 3.8473Z" fill="#EA6129"/>
<path id="Vector_36" d="M160.103 4.9103L160.075 4.56706C160.684 4.70282 160.554 4.27762 160.628 4.01379L159.555 4.3391L160.1 4.91286L160.103 4.9103Z" fill="#EA6129"/>
<path id="Vector_37" d="M154.913 1.25L154.293 2.23872L154.77 1.94927L154.913 1.25Z" fill="#EA6129"/>
<path id="Vector_38" d="M153.428 1.42419L153.059 1.79304L153.376 2.03382L153.428 1.42419Z" fill="#EA6129"/>
<path id="Vector_39" d="M74.684 9.57971L74.3689 9.75133C74.5175 9.69754 74.6148 9.64119 74.684 9.57971Z" fill="#EA6129"/>
<path id="Vector_40" d="M76.9661 9.62073L77.0225 9.32104C76.9174 9.48754 76.8739 9.60793 76.9661 9.62073Z" fill="#EA6129"/>
<path id="Vector_41" d="M119.127 2.10294C118.669 1.5343 118.154 0.65317 118.21 1.33707L118.351 2.00305C118.671 1.88266 118.917 1.95694 119.127 2.10038V2.10294Z" fill="#EA6129"/>
<path id="Vector_42" d="M95.6723 6.08339C95.7158 6.14743 95.7619 6.21659 95.8055 6.28575C95.9182 6.05778 96.0232 5.84518 96.1154 5.64795C95.9822 5.78371 95.8311 5.92971 95.6697 6.08339H95.6723Z" fill="#EA6129"/>
<path id="Vector_43" d="M94.7426 8.41174C94.8783 8.56287 95.073 8.70631 95.347 8.84206L94.7426 8.41174Z" fill="#EA6129"/>
<path id="Vector_44" d="M62.2173 10.2867L61.8485 10.9655C62.4248 10.963 62.1712 10.6197 62.2173 10.2867Z" fill="#EA6129"/>
<path id="Vector_45" d="M139.094 2.27971C138.697 2.01844 138.382 1.91086 138.105 1.87756C138.582 2.25922 138.968 2.83554 139.094 2.27971Z" fill="#EA6129"/>
<path id="Vector_46" d="M75.5829 2.50513C75.3908 2.62551 75.3063 2.76127 75.314 2.90983C75.5137 2.79457 75.6239 2.66906 75.5829 2.50513Z" fill="#EA6129"/>
<path id="Vector_47" d="M138.105 1.87746C137.752 1.59314 137.349 1.4164 136.96 1.87746C137.029 1.94406 137.098 1.97735 137.17 2.03371C137.46 1.921 137.752 1.83135 138.105 1.8749V1.87746Z" fill="#EA6129"/>
<path id="Vector_48" d="M17.0028 9.73346C16.9695 9.70272 16.9311 9.68991 16.9003 9.65405C16.8901 9.7437 16.9362 9.74883 17.0028 9.73346Z" fill="#EA6129"/>
<path id="Vector_49" d="M3.82941 3.00717C3.96004 2.96618 4.17008 2.96618 4.36987 2.95594C4.27254 2.90983 4.1086 2.91495 3.82941 3.00717Z" fill="#EA6129"/>
<path id="Vector_50" d="M147.764 1.74181C147.81 1.66753 148.059 1.69827 147.764 1.74181V1.74181Z" fill="#EA6129"/>
<path id="Vector_51" d="M149.086 4.70274C149.109 4.54137 149.153 4.43892 149.204 4.37744C149.14 4.45172 149.094 4.54906 149.086 4.70274Z" fill="#EA6129"/>
<path id="Vector_52" d="M134.015 6.02966H133.989C134.076 6.15774 134.061 6.13212 134.015 6.02966Z" fill="#EA6129"/>
<path id="Vector_53" d="M148.21 2.0466C148.1 1.96463 147.972 1.89547 147.831 1.84937C147.892 1.90059 148.008 1.96463 148.21 2.0466Z" fill="#EA6129"/>
<path id="Vector_54" d="M148.151 1.73151C148.254 1.76225 148.333 1.77762 148.41 1.79555C148.448 1.6854 148.415 1.61368 148.151 1.73151Z" fill="#EA6129"/>
<path id="Vector_55" d="M147.764 1.74182C147.677 1.75207 147.554 1.76487 147.352 1.77768C147.521 1.76744 147.68 1.79817 147.831 1.84684C147.772 1.80073 147.749 1.76487 147.764 1.74182Z" fill="#EA6129"/>
<path id="Vector_56" d="M41.1648 7.88672C40.8677 8.16335 40.9983 8.11981 41.2289 7.95075C41.2084 7.93026 41.1879 7.91489 41.1648 7.88672Z" fill="#EA6129"/>
<path id="Vector_57" d="M111.43 9.02657L111.464 8.99327L111.42 8.97021L111.43 9.02657Z" fill="#EA6129"/>
<path id="Vector_58" d="M110.367 9.52342C110.821 8.69351 111.077 8.79597 111.42 8.97015L111.069 7.04651L110.367 9.52086V9.52342Z" fill="#EA6129"/>
<path id="Vector_59" d="M26.3675 2.71C26.3546 2.67927 26.3393 2.64597 26.3188 2.61011C26.3342 2.64597 26.3521 2.6767 26.3675 2.71Z" fill="#EA6129"/>
<path id="Vector_60" d="M48.0295 10.2893C47.9987 10.2944 47.968 10.297 47.9373 10.2996C47.9706 10.2996 48.0013 10.2996 48.0295 10.2893Z" fill="#EA6129"/>
<path id="Vector_61" d="M75.6931 9.41333L75.5727 9.42614C75.6188 9.43382 75.6572 9.42614 75.6931 9.41333Z" fill="#EA6129"/>
<path id="Vector_62" d="M18.9879 9.70276L19.0494 9.72581C19.034 9.713 19.0135 9.70532 18.9879 9.70276Z" fill="#EA6129"/>
<path id="Vector_63" d="M151.942 1.60089C152.431 2.90466 150.026 1.647 150.572 2.82014C150.008 1.76738 149.573 2.38469 148.822 1.35499C148.845 1.66493 149.101 1.94925 148.407 1.79556C148.377 1.88521 148.302 2.00304 148.256 2.06963L148.21 2.04658L148.248 2.08244C148.218 2.12855 148.215 2.13879 148.264 2.09525C148.428 2.231 148.563 2.39494 148.617 2.56911C148.274 3.28376 147.173 3.2607 146.801 3.62955C146.391 3.48099 146.973 3.27351 146.75 2.94052L146.194 3.49379C146.138 2.80221 145.103 2.34627 146.071 1.94156L145.2 1.91083C144.688 1.52405 143.981 1.37036 143.548 1.6598C143.138 1.51124 142.511 2.42311 142.869 1.88265L141.504 2.31041L141.491 2.13879C140.144 2.0517 138.717 3.28119 137.175 2.03634C136.722 2.21051 136.253 2.42311 135.495 2.22844L135.346 1.63163C134.765 1.8391 133.597 1.03481 133.346 1.65724C132.718 0.0512203 130.518 1.30633 129.494 1.02201L129.455 1.80068C128.751 1.75714 128.075 1.97742 127.199 2.28992L127.252 2.97895C126.497 3.54502 125.313 2.48971 124.12 2.55887C124.202 2.29504 124.504 2.3642 124.719 2.52301C123.292 0.965654 121.709 3.65517 120.416 2.52301C120.093 2.77403 119.86 2.68694 119.635 2.51532C119.665 2.51532 119.691 2.49996 119.714 2.47946C119.681 2.47178 119.632 2.46922 119.581 2.47178C119.437 2.35395 119.291 2.21564 119.133 2.10549C119.268 2.27199 119.396 2.41031 119.509 2.47434C119.261 2.48971 118.884 2.57424 118.515 2.74585L118.359 2.0056C118.328 2.01584 118.305 2.01328 118.274 2.02609C117.911 1.75202 117.982 2.37701 118.177 2.93284C117.99 3.05323 117.821 3.20179 117.688 3.37853C117.393 2.1849 116.72 3.78068 116.318 2.50764C116.087 3.08396 114.694 2.99688 114.33 4.01633C113.92 3.86776 113.513 3.72432 113.146 4.09061L112.972 3.15056L112.073 4.41591C111.528 3.84215 111.3 3.50916 111.843 2.78428C110.531 3.8985 110.78 3.20435 109.665 4.30833L109.719 3.69871C109.32 3.72176 108.684 4.5363 108.444 4.03426C107.552 2.87905 104.035 3.87545 101.748 2.79964C102.191 4.59009 100.685 1.99535 100.595 3.38621C100.462 2.96358 100.145 2.7228 100.513 2.35395C99.3454 2.77147 98.7589 1.68286 97.9546 2.85343C97.8214 2.42824 98.2056 2.231 98.0852 1.97998C97.9904 2.0722 97.7138 2.34883 97.5934 2.09525C97.4756 1.84423 97.765 1.73921 97.9495 1.55479C96.7584 1.62651 96.6354 2.93284 96.5509 4.15721C95.9464 3.57576 95.6442 3.65773 95.2087 4.46202C94.9987 4.06243 94.6478 3.64236 95.388 3.49892C94.9705 3.44 92.8419 2.91235 92.7984 3.89338C92.6678 3.64492 92.217 3.82166 92.1068 3.93436C91.1719 3.87545 91.0899 3.78836 90.1704 3.88057L90.424 4.04194C90.0602 5.22789 89.6606 4.30577 88.9204 4.44921L88.9409 4.32882C87.2426 3.4733 88.2083 4.73865 86.5331 3.76275L86.6253 4.50044C86.4691 6.08597 85.1423 3.56551 84.1689 4.17258L84.5198 4.59265C83.9896 5.13568 83.0368 2.43592 82.504 2.23869C82.3887 2.10037 82.6884 2.01841 82.8498 1.91595C81.4538 0.981023 82.6679 2.88161 81.628 3.10702C81.4359 2.58704 81.8739 1.78275 81.1746 1.68542C80.8262 1.26278 79.1434 3.37597 78.188 2.37701C78.398 2.77915 78.608 3.17874 78.1239 3.48099C77.3837 3.62443 76.1209 1.96461 75.4523 3.22997C75.3576 3.11982 75.3217 3.01481 75.3191 2.91491C74.7531 3.24021 73.48 3.45793 73.1394 4.1444C72.6168 1.59833 69.6199 5.38157 69.6328 3.0353L67.891 3.16081L67.9371 2.92003C66.8254 2.76378 66.431 3.3273 66.0391 3.89082C65.7829 3.73201 65.9699 3.51172 65.9904 3.38878C64.3639 2.91491 64.2025 3.01481 62.8398 4.18538L62.6989 3.42464C62.3301 3.86776 60.3475 2.231 58.7543 3.11726C58.7697 3.03017 58.803 2.88417 58.9285 2.77659C57.1329 3.67053 54.633 0.663404 53.9747 3.43744L52.7913 4.12135C54.323 4.33651 52.5633 5.32522 53.1934 5.78628C52.5915 5.95021 51.6361 4.94869 52.3763 4.80781L52.4916 4.94613C52.7631 3.49892 50.5885 4.43384 50.6294 3.45025C47.6146 3.52197 44.6767 2.72024 41.8539 2.65877L42.1792 3.78324L41.1931 3.7192C40.9344 3.45793 40.8473 2.84063 41.5491 2.88673C41.1803 2.24893 40.3709 3.41951 40.3504 3.66541C38.9749 3.20947 40.8883 2.35395 40.4656 2.32834L39.8919 2.41287L40.02 2.5435C39.5563 3.002 39.5154 3.48867 38.6701 3.43488C38.1347 3.20947 38.396 2.74073 38.186 2.69719C38.186 2.61778 38.1168 2.57936 37.8632 2.66389L36.6235 2.56655L37.1204 3.45537C36.5697 3.89338 35.9524 3.40927 36.5262 4.41335C35.686 2.86368 31.8976 3.85752 31.3802 3.37597C30.6092 4.02401 29.8485 4.0112 28.9084 3.93436C29.1415 4.11879 29.2824 5.11775 28.4704 4.9948C28.7599 2.98407 27.0668 4.04707 26.3752 2.72024C26.7056 3.55015 24.0494 2.91235 24.9382 4.2571C24.2594 4.09061 24.8972 3.48611 24.3824 3.002C22.7687 3.79861 20.8271 2.48459 18.8317 2.75354C18.801 3.02249 19.134 3.43744 18.7062 3.83959L17.6535 2.48715C17.259 2.62034 17.2897 4.04707 16.57 3.10958C16.6724 3.33755 16.8236 3.68078 16.5597 3.76531C12.6535 2.44873 8.57573 4.84367 4.60806 2.36932C5.14596 2.89442 4.78736 2.94565 4.37753 2.96358C4.64392 3.08909 4.37241 3.63211 4.42364 3.9984L2.76126 2.98151C2.45901 3.9984 0.981063 3.05067 0.806885 4.02145L1.33198 3.84727C0.632707 4.9948 2.31045 6.39847 2.20799 7.86873C2.99179 6.56496 4.27251 9.80006 5.55835 7.93277C5.84267 8.23246 5.31758 8.40663 5.4687 8.74731C5.79401 8.11719 6.18847 7.984 6.91592 8.26832L6.83395 8.42456C8.8831 8.27088 9.75911 8.89331 12.0618 9.30826L11.8902 8.58081C12.3846 8.67815 12.4896 8.90611 12.7201 9.08798C13.2888 7.984 11.3318 9.0265 11.8492 7.80726C12.505 9.28777 15.3354 7.83031 15.7785 9.51318C16.5392 9.52086 15.5556 8.67046 16.3164 8.68071L16.5188 9.13664L16.7109 8.55008C17.2103 8.64741 17.4614 9.21605 17.4793 9.60283C17.3589 9.55672 17.1361 9.71041 17.0054 9.74371C17.6074 10.2432 18.6652 9.65662 18.9905 9.71297L18.3194 9.45682C20.3942 9.03162 22.93 9.62844 24.9356 8.70376L24.7845 8.36053C26.3163 7.72529 26.0114 8.73706 27.6917 8.44506L27.6303 8.52702C27.9658 8.18379 28.4166 8.01217 28.8751 8.05059C28.4499 8.45274 29.6743 8.83183 29.1159 9.27752C30.7757 8.59618 29.9381 8.74218 31.0344 7.46402L31.288 8.03266C31.662 7.51782 31.6927 7.2463 32.5329 7.09774C31.8438 7.58697 33.0682 7.96607 32.2972 8.61411C34.0595 9.86153 34.915 7.35644 35.7219 9.17763C36.5313 7.59978 34.1978 8.30162 34.6512 7.96351C34.2721 7.44866 35.3197 6.78524 35.873 6.94405C36.4365 6.97991 36.831 8.96247 38.2474 8.93173C38.1066 8.92404 38.0963 9.04443 37.9554 9.03675C38.4857 9.43889 38.9928 8.49116 39.6434 9.14433C40.0071 8.19147 40.4887 9.19812 40.5937 7.98144L39.2951 8.26319C40.0328 7.94557 40.7218 6.52142 41.9359 7.213C41.8411 7.4589 41.48 7.78164 41.2315 7.96094C41.5876 8.31955 41.9154 7.72273 42.2817 8.09158C42.1767 9.31082 40.7039 8.35541 39.9149 9.28521C40.2966 9.80006 41.4083 8.40407 41.0112 9.72321C41.5799 8.04547 42.4072 9.93581 43.3652 8.65509L43.3012 9.3851C43.4523 9.26984 43.7673 8.92661 44.0465 8.94454L43.5419 9.88971C44.3181 9.08285 45.0378 10.5941 45.7832 10.1561C44.2233 10.1792 45.4323 9.27752 44.774 8.74474C46.6695 7.78164 45.9061 10.5659 47.9425 10.3149C47.6069 10.3098 46.9794 9.83592 47.3943 9.52854C47.8042 9.67967 48.3446 9.95887 48.5982 10.3405C50.0249 10.1894 48.3779 9.59002 48.9876 9.14177C49.4742 10.0306 49.6868 8.7806 50.3144 8.49628L50.3195 9.23654C51.946 9.71297 50.7498 7.69199 52.215 8.26576L51.5951 9.29289L52.3584 9.0265L52.2022 9.86922C53.0321 9.24422 53.2908 9.4056 54.1027 9.64125C53.9132 9.11871 54.2078 8.29649 54.9301 8.27344C55.4219 8.71401 54.656 8.97783 55.6755 8.87282C55.4449 9.33644 55.1914 9.91788 54.7482 9.23654C54.7021 9.47732 54.5203 9.70272 54.4742 9.94094C55.0018 10.4481 55.8035 10.0562 56.1724 10.0485C56.0289 10.0203 55.8599 9.98192 55.7728 9.87434L57.2533 8.8472C57.4864 9.1264 57.302 9.34924 57.1176 9.56953C57.4173 9.49012 57.6247 9.14945 58.0653 9.08542C57.95 9.68735 57.9782 10.3098 57.3558 10.5941L58.7646 9.92557C58.8593 10.1868 59.4869 10.6453 59.305 10.8682C60.0863 11.2217 61.221 9.70016 62.2584 10.1663C62.3122 10.0485 62.4197 9.93837 62.64 9.85129C63.6134 9.98704 64.4766 10.7273 65.6318 9.89995L66.2875 10.9809C67.1917 10.735 65.4013 9.62076 66.9074 9.21093C67.9729 8.86769 67.3044 10.133 67.6784 10.4327C68.2086 9.88715 69.1307 8.7806 70.1092 9.65918C69.7839 9.86153 69.5303 9.70272 69.228 9.78213L69.9734 10.3815C69.0718 11.3677 68.4212 11.027 69.123 11.8697C69.228 9.78213 72.0226 11.6545 72.1276 9.56953L72.6194 10.0075C72.4785 9.98704 72.4555 10.11 72.3171 10.0895C73.2726 11.0885 73.0267 8.58081 74.2587 8.87794C74.689 9.03675 74.9887 9.34156 74.6942 9.58746L75.6521 9.07005C75.8827 9.10335 75.8724 9.35693 75.7034 9.4184L77.043 9.26472L77.0327 9.32619C77.2402 8.99833 77.7141 8.49372 77.9421 8.276C78.3135 8.57569 77.7551 8.49628 77.8498 8.75755L78.6593 8.25295C78.9897 8.79341 78.3186 9.31851 77.7602 9.24166C78.5158 11.3267 78.4313 8.71657 80.0604 9.93325L79.2971 10.1971C79.7889 11.3805 80.3857 10.9527 81.2463 11.6904C81.0414 11.3036 79.5199 9.83079 80.3959 9.31082C80.6418 9.46707 80.9697 9.54391 81.441 9.12384C81.4461 9.86665 81.9072 9.68479 82.4861 9.64125L82.4476 10.6248C83.0726 10.3405 83.024 9.84104 83.3902 9.39791C84.087 9.49525 84.2304 10.256 84.3943 10.8989C85.5086 11.0552 83.6233 9.67711 84.945 9.49269C85.8723 9.86922 86.5254 9.46707 87.6345 8.87794C88.2851 9.21605 87.5218 9.47988 87.7549 9.76164L88.3313 8.97783C88.4721 8.99576 88.426 9.23654 88.403 9.35949C88.8871 9.05468 88.444 8.3759 89.2047 8.10951C89.4096 7.02602 90.7697 9.69248 91.7149 8.46299C91.948 8.74218 91.6022 9.06492 91.6739 9.44658C92.9675 8.63973 92.783 8.86001 93.846 7.77396L94.7528 8.41944C94.0868 7.68175 94.9372 6.8083 95.6826 6.09109C95.4469 5.73505 95.2446 5.42256 95.1088 5.27399L96.2973 4.74634C96.4408 4.90771 96.3204 5.24582 96.1257 5.65565C96.2077 5.57368 96.2845 5.49428 96.3434 5.42C96.7686 5.78372 96.5483 6.3498 96.2435 6.90051C96.0975 6.70584 95.9541 6.50092 95.8158 6.29345C95.5212 6.89026 95.2471 7.55111 95.3086 8.12744C95.3855 8.01473 95.534 7.9174 95.698 7.86105C95.6211 8.02242 95.5724 8.16842 95.6083 8.26576C95.6493 8.36821 95.7722 8.15049 95.9669 7.90203L96.2384 8.99833L96.305 8.56288L97.8598 9.24935C98.9715 8.14537 99.9397 6.52142 101.705 6.0706C101.267 6.87489 101.61 7.38206 101.587 8.33491C101.105 7.32827 100.219 8.76267 99.3045 8.55776C99.7809 8.66278 99.6759 9.11871 99.5555 9.27496L101.187 8.35797C101.151 9.13664 101.533 8.94197 101.961 9.26472C101.638 7.72529 103.177 8.24014 103.841 7.76627C103.882 8.28369 103.723 8.81134 102.914 8.68583C103.807 9.8436 104.069 6.87746 104.947 7.86361C104.75 7.87642 104.643 7.79701 104.566 8.06084C105.027 7.60234 106.156 7.96607 105.892 8.41688L105.695 8.42713C107.009 8.60899 109.694 8.43737 109.888 7.13104C109.901 7.30009 109.717 8.70632 109.637 8.97015L111.981 4.57216C111.774 5.69407 112.568 8.36821 111.479 9.00345C111.791 9.16226 112.178 9.34924 112.839 8.95478C112.627 8.79597 112.306 7.33083 112.598 7.22837C113.397 8.47835 113.154 7.89691 114.14 8.96247C113.82 8.72169 114.176 6.96198 114.681 7.01833C114.601 7.28216 114.722 8.75499 114.537 8.93941L115.739 7.28985C115.518 7.68175 115.759 8.71145 116.023 9.16482C115.892 8.82671 117.112 9.19556 117.445 9.02394L116.912 8.62436C118.331 8.88562 118.315 6.19355 119.724 6.2832C119.553 6.6418 119.304 8.48092 120.019 8.69864C120.347 7.81238 121.474 4.44153 122.719 3.76018L122.957 4.26479L123.912 3.68846C123.318 5.02041 121.645 7.82263 120.733 8.9138C121.264 9.31338 120.882 9.51061 121.676 9.46451C121.958 9.93838 121.243 10.1843 121.008 10.2124L122.859 10.5198C122.777 9.485 124.276 9.48244 124.207 8.6218L122.193 9.69248C122.112 8.66022 123.356 6.75963 124.67 6.94149C125.003 7.35388 124.419 8.7806 124.448 9.1264C124.619 8.77036 125.692 8.44762 125.815 8.69864L125.26 9.25191C125.99 9.64125 126.453 7.88154 127.332 8.86769C127.634 8.93429 128.236 10.1971 128.29 9.58746C127.795 8.4092 127.698 4.76171 128.028 3.87545C128.133 3.95485 129.619 5.00248 129.967 5.58393C130.467 6.50861 129.217 7.78677 129.642 8.58081C129.66 8.29905 129.937 7.9507 130.052 7.838C130.37 8.07877 129.921 8.71145 130.613 8.58594C130.728 7.53831 132.019 8.67559 130.941 7.69968C131.617 7.39999 131.661 7.91484 132.455 7.86873C132.201 7.19251 133.169 5.566 133.845 5.26631C133.804 5.5327 133.958 5.87849 134.032 6.0373C135.421 6.13208 136.164 6.6085 137.457 6.61619C137.577 6.86977 138.2 7.17714 137.934 7.62796C138.12 7.44353 138.29 7.08749 138.689 7.06188C139.46 7.96863 137.8 7.20276 138.389 8.29137C138.441 7.68175 139.422 7.45122 139.99 7.07212C139.816 6.13208 138.676 6.89282 138.108 7.27192C138.105 5.97583 139.096 4.61827 140.449 4.01633C141.522 3.69359 140.915 4.85392 141.102 4.66949C143.12 4.89746 142.821 2.40518 144.498 3.34011C145.164 4.16745 144.529 4.98455 144.675 5.57881C143.799 5.8913 143.33 5.05371 142.739 5.08701L143.469 5.47891C143.19 5.75298 142.606 5.96302 142.288 5.72225C142.846 6.46506 145.697 5.86569 147.255 6.54959C147.531 6.27296 148.008 5.98607 147.782 5.65309L147.29 5.76835C146.837 5.10238 148.218 4.84623 147.595 4.5363C148.256 4.06756 148.996 3.33242 149.926 3.70896L150.1 4.65156C150.082 4.39542 149.573 4.13672 149.293 4.33138C149.719 4.11879 150.679 5.59161 151.084 4.41847L150.431 3.76531C151.094 3.29144 151.914 2.29248 152.739 2.58961C152.365 1.6598 152.549 2.69719 151.963 1.60601L151.942 1.60089ZM38.0707 2.95845L38.2654 3.15312C37.8248 3.36572 37.9478 3.17361 38.0707 2.95845ZM79.5634 9.49012C79.8093 8.63973 79.9989 9.04699 80.3677 9.29289C80.1526 9.44914 79.7223 9.92813 79.5634 9.49012ZM96.6252 7.34876C96.8276 7.28729 97.0581 7.31546 97.3142 7.50501C97.1529 7.75091 96.9044 7.62796 96.6252 7.34876ZM114.32 4.01889C114.291 4.09829 114.268 4.18538 114.253 4.28016C114.24 4.11366 114.138 4.03426 114.32 4.01889ZM144.501 2.37957C144.02 2.09013 144.191 2.20539 144.524 2.34371L144.501 2.37957Z" fill="#EA6129"/>
<path id="Vector_64" d="M149.273 4.32629C149.25 4.33654 149.229 4.35191 149.211 4.3724C149.229 4.35191 149.252 4.34166 149.273 4.32629Z" fill="#EA6129"/>
<path id="Vector_65" d="M95.393 8.5219C95.3315 8.39639 95.3162 8.25807 95.3008 8.11975C95.2163 8.24526 95.2137 8.3887 95.393 8.5219Z" fill="#EA6129"/>
<path id="Vector_66" d="M62.2865 10.1612L62.2532 10.1536C62.2353 10.1971 62.2251 10.2432 62.2199 10.2868L62.2891 10.1612H62.2865Z" fill="#EA6129"/>
<path id="Vector_67" d="M130.024 8.95477C129.819 8.84719 129.704 8.71144 129.627 8.57312C129.617 8.75498 129.709 8.90867 130.024 8.95477Z" fill="#EA6129"/>
<path id="Vector_68" d="M150.761 1.42674L150.828 1.40625C150.8 1.40625 150.779 1.4165 150.761 1.42674Z" fill="#EA6129"/>
<path id="Vector_69" d="M150.761 1.84427C150.748 1.69571 150.659 1.4908 150.761 1.42932L150.185 1.6035C150.495 1.56764 150.605 1.72901 150.761 1.84684V1.84427Z" fill="#EA6129"/>
<path id="Vector_70" d="M156.389 5.99635C156.483 5.9067 156.589 5.9861 156.681 5.89389L156.655 5.5481C156.256 5.57115 155.976 5.84778 156.389 5.99379V5.99635Z" fill="#EA6129"/>
<path id="Vector_71" d="M152.242 4.16743C152.375 3.29398 151.896 3.58342 151.419 3.87031C151.471 4.49274 151.873 4.2827 152.321 4.16743C152.293 4.16743 152.267 4.17512 152.242 4.16743Z" fill="#EA6129"/>
<path id="Vector_72" d="M152.426 4.14696C152.564 4.11879 152.705 4.10086 152.841 4.13159C152.895 3.78324 152.672 4.05987 152.426 4.14696Z" fill="#EA6129"/>
<path id="Vector_73" d="M146.794 2.25408C147.006 2.41545 146.927 1.45747 147.047 1.71105C147.285 0.917005 145.628 2.67159 146.794 2.25408Z" fill="#EA6129"/>
<path id="Vector_74" d="M151.371 5.776L151.783 5.92712L151.622 5.15613L151.371 5.776Z" fill="#EA6129"/>
<path id="Vector_75" d="M148.238 5.3611L148.955 5.5737C148.945 5.44563 149.035 5.36878 149.148 5.30987C148.704 5.28426 148.22 5.13057 148.238 5.35854V5.3611Z" fill="#EA6129"/>
<path id="Vector_76" d="M149.726 5.18433C149.601 5.19201 149.335 5.21762 149.15 5.3124C149.381 5.32777 149.598 5.3124 149.726 5.18433Z" fill="#EA6129"/>
<path id="Vector_77" d="M150.085 5.93994L150.802 6.15766L150.59 5.99629L150.085 5.93994Z" fill="#EA6129"/>
<path id="Vector_78" d="M140.526 5.21252L139.742 5.43281C139.662 5.69664 139.875 5.85801 140.167 5.75299C140.354 5.56856 140.646 5.46611 140.526 5.21252Z" fill="#EA6129"/>
<path id="Vector_79" d="M142.549 6.73657L142.526 7.69199L142.895 7.32314C142.682 7.16433 142.67 6.99272 142.549 6.73657Z" fill="#EA6129"/>
<path id="Vector_80" d="M140.61 7.54346C140.533 7.80729 139.473 8.3042 140.467 8.24273C140.546 7.9789 141.33 7.76118 140.61 7.54346Z" fill="#EA6129"/>
<path id="Vector_81" d="M128.815 6.337L129.012 6.32419L128.984 4.75916L128.815 6.337Z" fill="#EA6129"/>
<path id="Vector_82" d="M119.012 8.88306C118.451 9.2724 118.159 9.05211 118.415 10.0818C119.343 10.4558 118.636 9.11615 119.473 9.58489C119.691 9.21604 118.787 9.20324 119.012 8.88306Z" fill="#EA6129"/>
<path id="Vector_83" d="M119.012 8.88311C119.102 8.82164 119.197 8.74736 119.299 8.6449C119.138 8.74223 119.061 8.81651 119.012 8.88311Z" fill="#EA6129"/>
<path id="Vector_84" d="M1.64442 2.16698L1.04761 1.83911L1.43182 2.36421L1.64442 2.16698Z" fill="#EA6129"/>
<path id="Vector_85" d="M0 3.23256C0.135756 3.18901 0.397023 3.10193 0.499481 3.32733L0.358601 2.33093L0 3.23256Z" fill="#EA6129"/>
<path id="Vector_86" d="M81.5588 10.7427L82.025 11.3036L82.0711 11.0629C81.9789 10.8042 81.838 10.7837 81.5588 10.7427Z" fill="#EA6129"/>
<path id="Vector_87" d="M73.9334 10.5557L74.0717 10.5762L73.813 9.67456L73.9334 10.5557Z" fill="#EA6129"/>
<path id="Vector_88" d="M67.8218 11.588C67.8858 11.6008 67.9524 11.6008 68.0242 11.5803C67.9601 11.57 67.891 11.5752 67.8218 11.588Z" fill="#EA6129"/>
<path id="Vector_89" d="M67.143 11.7057C67.3556 11.7339 67.5964 11.6238 67.8218 11.5879C67.3428 11.5008 67.0764 10.7145 67.143 11.7057Z" fill="#EA6129"/>
</g>
<defs>
<clipPath id="clip0_1_112">
<rect width="180" height="11.8595" fill="white"/>
</clipPath>
</defs>
</svg>
